<svg xmlns="http://www.w3.org/2000/svg" width="113" height="117" viewBox="0 0 113 117">
    <g fill="none" fill-rule="nonzero">
        <path fill="#0BF" d="M84.56 56.82c-15.464 0-28-12.536-28-28s12.536-28 28-28 28 12.536 28 28-12.536 28-28 28zm0-50.16c-12.15 0-22 9.85-22 22s9.85 22 22 22 22-9.85 22-22c-.066-12.123-9.877-21.934-22-22zM25.78 45.32a3.44 3.44 0 0 1-2.74-1.34 3.5 3.5 0 0 1 .58-4.92l11.26-8.88a3.503 3.503 0 1 1 4.34 5.5l-11.28 8.88a3.52 3.52 0 0 1-2.16.76zM50.72 101.34a3.52 3.52 0 0 1-2.74-5.68l16.98-21.5a3.503 3.503 0 1 1 5.5 4.34L53.48 100a3.52 3.52 0 0 1-2.76 1.34z"/>
        <path fill="#0067D4" d="M44.52 49.54H3.7A2.76 2.76 0 0 0 .92 52.3v23.28a2.78 2.78 0 0 0 2.78 2.78h40.82a2.76 2.76 0 0 0 2.76-2.78V52.36a2.76 2.76 0 0 0-2.76-2.82zM24.1 71.32a7.32 7.32 0 1 1 7.32-7.34 7.34 7.34 0 0 1-7.32 7.34zM45.54 40.56a14.34 14.34 0 1 1 14.32-14.34c-.011 7.907-6.413 14.318-14.32 14.34zm0-21.66a7.32 7.32 0 1 0 0 14.64 7.32 7.32 0 0 0 0-14.64zM71.86 79.84c-7.917-.033-14.31-6.476-14.28-14.393.03-7.917 6.47-14.313 14.387-14.287 7.917.026 14.315 6.463 14.293 14.38a14.34 14.34 0 0 1-14.4 14.3zm0-21.66a7.32 7.32 0 1 0 0 14.64 7.32 7.32 0 0 0 0-14.64z"/>
        <path fill="#0BF" d="M37.7 100.9a3.52 3.52 0 0 1-2.52-1.08l-8.12-8.28a3.508 3.508 0 0 1 5.04-4.88l8.12 8.4a3.46 3.46 0 0 1 0 4.94 3.5 3.5 0 0 1-2.52.9z"/>
        <path fill="#0067D4" d="M45.4 116.1a11.86 11.86 0 1 1 11.84-11.84c-.011 6.534-5.306 11.829-11.84 11.84zm0-16.68a4.84 4.84 0 1 0 0 9.68 4.84 4.84 0 0 0 0-9.68zM84.54 10.8c-9.941 0-18 8.059-18 18s8.059 18 18 18 18-8.059 18-18-8.059-18-18-18zm7.38 20.18h-4.38v4.38a3 3 0 0 1-6 0v-4.38h-4.4a3 3 0 0 1 0-6h4.4v-4.4a3 3 0 0 1 6 0v4.4h4.38a3 3 0 0 1 0 6z"/>
        <path fill="#FFF" d="M94.92 27.98a3 3 0 0 1-3 3h-4.38v4.38a3 3 0 0 1-6 0v-4.38h-4.4a3 3 0 0 1 0-6h4.4v-4.4a3 3 0 0 1 6 0v4.4h4.38a3 3 0 0 1 3 3z"/>
    </g>
</svg>
