<svg xmlns="http://www.w3.org/2000/svg" width="87" height="94" viewBox="0 0 87 94">
    <g fill="none" fill-rule="nonzero">
        <path fill="#0067D4" d="M.78 83.94l-.44-.38a6.8 6.8 0 0 1-.5-.62c.3.4.6.74.94 1zM58.38 51.32v9.44L35.54 83.62 12.68 60.76V20.2a4.48 4.48 0 0 1 4.46-4.48H38.4c.84 0 1.52-.68 1.52-1.52V9.46a1.54 1.54 0 0 0-1.52-1.52H8.78a4 4 0 0 0-4 4V62.5a3.88 3.88 0 0 0 1.14 2.76l26.86 26.68a3.78 3.78 0 0 0 2.76 1.14 3.74 3.74 0 0 0 2.74-1.14L65 65.14a3.82 3.82 0 0 0 1.16-2.76v-9.1a2.48 2.48 0 0 0-1.1-2l-2.92-2a2.44 2.44 0 0 0-3.76 2.04z"/>
        <path fill="#0BF" d="M48.06 32.42v1.12a6 6 0 0 0 6 6h9.6a6 6 0 0 0 6-6v-1.12a6 6 0 0 0-6-6h-9.6a6 6 0 0 0-6 6z"/>
        <path fill="#0067D4" d="M64.4 10.76v2.12a5.02 5.02 0 0 0 5.02 5.06h11.72a5.02 5.02 0 0 0 5.02-5.02v-2.16a5.04 5.04 0 0 0-5.02-5.02H69.42a5.04 5.04 0 0 0-5.02 5.02zM53 22.7h2.2a5.02 5.02 0 0 0 5.02-5.02V5.94a5 5 0 0 0-5.02-5H53a5.02 5.02 0 0 0-4.94 5v11.72A5.02 5.02 0 0 0 53 22.7z"/>
        <path fill="#0BF" d="M50.4 47.94v8.24a2.46 2.46 0 0 1-.72 1.74L37.3 70.3a2.46 2.46 0 0 1-3.5 0L21.38 57.9a2.46 2.46 0 0 1-.72-1.74v-29.8a2.5 2.5 0 0 1 2.5-2.5h12.8a2.44 2.44 0 0 1 2.44 2.44v19.2h9.58a2.42 2.42 0 0 1 2.42 2.44z"/>
    </g>
</svg>
