<svg xmlns="http://www.w3.org/2000/svg" width="84" height="125" viewBox="0 0 84 125">
    <g fill="none" fill-rule="evenodd">
        <path fill="#D4EAFF" d="M20 0C-15.34 0-44 28.673-44 64.045c0 28.297 18.338 52.304 43.767 60.773 3.199.593 4.373-1.39 4.373-3.081 0-1.527-.06-6.572-.087-11.924-17.805 3.874-21.562-7.557-21.562-7.557-2.911-7.402-7.106-9.37-7.106-9.37-5.807-3.976.438-3.894.438-3.894 6.427.45 9.81 6.6 9.81 6.6 5.709 9.79 14.973 6.96 18.625 5.324.574-4.139 2.233-6.966 4.063-8.564-14.215-1.62-29.159-7.112-29.159-31.652 0-6.993 2.5-12.706 6.595-17.191-.665-1.614-2.856-8.127.62-16.949 0 0 5.374-1.721 17.604 6.565 5.105-1.42 10.58-2.13 16.02-2.155 5.439.024 10.918.736 16.033 2.155 12.215-8.286 17.582-6.565 17.582-6.565 3.484 8.822 1.292 15.335.627 16.949 4.104 4.485 6.587 10.198 6.587 17.19 0 24.6-14.972 30.016-29.223 31.602 2.295 1.987 4.34 5.885 4.34 11.86 0 8.568-.074 15.465-.074 17.576 0 1.704 1.153 3.701 4.397 3.072C65.685 116.331 84 92.333 84 64.045 84 28.673 55.346 0 20 0"/>
        <path fill="#FFFFFE" d="M4.117 104.125c.102.494-.491 1-1.339 1.135-.833.13-1.605-.174-1.71-.663-.104-.506.5-1.013 1.332-1.144.849-.126 1.608.17 1.717.672"/>
    </g>
</svg>
