<svg xmlns="http://www.w3.org/2000/svg" width="107" height="97" viewBox="0 0 107 97">
    <g fill="none" fill-rule="nonzero" transform="translate(-11 -16)">
        <path fill="#0BF" d="M36.5 66.44c-13.851 0-25.08-11.229-25.08-25.08 0-13.851 11.229-25.08 25.08-25.08 13.851 0 25.08 11.229 25.08 25.08-.011 13.847-11.233 25.069-25.08 25.08zm0-44.8c-10.891 0-19.72 8.829-19.72 19.72 0 10.891 8.829 19.72 19.72 19.72 10.891 0 19.72-8.829 19.72-19.72-.011-10.886-8.834-19.709-19.72-19.72z"/>
        <path fill="#0067D4" d="M36.5 25.34c-8.837 0-16 7.163-16 16s7.163 16 16 16 16-7.163 16-16-7.163-16-16-16zm6.58 18h-3.9v4a2.68 2.68 0 0 1-5.36 0v-4h-4a2.68 2.68 0 1 1 0-5.34h4v-4a2.68 2.68 0 0 1 5.36 0v4h3.9a2.68 2.68 0 1 1 0 5.34z"/>
        <path fill="#FFF" d="M45.76 40.7a2.66 2.66 0 0 1-2.68 2.66h-3.9v4a2.68 2.68 0 0 1-5.36 0v-4h-4a2.68 2.68 0 1 1 0-5.34h4v-4a2.68 2.68 0 0 1 5.36 0v4h3.9a2.66 2.66 0 0 1 2.68 2.68z"/>
        <path fill="#0BF" d="M113.6 112.34h-5a5 5 0 0 1-5-5V41.76H66.34v65.58a5 5 0 0 1-5 5H25.48a5 5 0 1 1 0-10h30.86V36.76a5 5 0 0 1 5-5h47.26a5 5 0 0 1 5 5v65.58a3.76 3.76 0 0 1 3.76 3.76v2.48a3.76 3.76 0 0 1-3.76 3.76z"/>
        <path fill="#0067D4" d="M77.36 112.24a4.96 4.96 0 0 1-3.76-1.74L56 89.54a4.9 4.9 0 0 1 .1-6.4L74.76 62.2A4.88 4.88 0 1 1 82 68.6L66.16 86.4l14.92 17.82a4.9 4.9 0 0 1-3.74 8l.02.02z"/>
        <path fill="#0067D4" d="M48.64 103a4.78 4.78 0 0 1-3.1-1.12l-11.4-9.4a4.88 4.88 0 1 1 6.22-7.52l7.86 6.58 8-8.48a4.882 4.882 0 0 1 7.12 6.68l-11.14 11.8a4.88 4.88 0 0 1-3.56 1.46z"/>
        <path fill="#0067D4" d="M90.44 89.02h-8.82A4.88 4.88 0 0 1 78 87.34L67.06 74.78H58l-6.46 7.12a4.885 4.885 0 1 1-7.24-6.56l8-8.72A4.9 4.9 0 0 1 55.92 65h13.32a4.9 4.9 0 0 1 3.68 1.68l10.94 12.58h6.6a4.88 4.88 0 1 1 0 9.76h-.02z"/>
        <circle cx="80.88" cy="59.78" r="9.94" fill="#0067D4"/>
    </g>
</svg>
