<svg xmlns="http://www.w3.org/2000/svg" width="92" height="92" viewBox="0 0 92 92">
    <g fill="none" fill-rule="nonzero">
        <path fill="#0069FF" d="M19.56 70.72l-.34-.28a4 4 0 0 1-.38-.48c.224.268.465.522.72.76z"/>
        <path fill="#0BF" d="M82.88 91.1H4.48A4.48 4.48 0 0 1 0 86.6V8.2a4.48 4.48 0 0 1 4.48-4.48h49.08a4.64 4.64 0 0 1 4.7 4 4.46 4.46 0 0 1-4.46 4.94H15.28a6.34 6.34 0 0 0-6.32 6.28v56.4a6.72 6.72 0 0 0 6.72 6.72h53a9.72 9.72 0 0 0 9.72-9.72v-33.8a4.66 4.66 0 0 1 4-4.72 4.5 4.5 0 0 1 4.94 4.46V86.6a4.48 4.48 0 0 1-4.46 4.5z"/>
        <path fill="#0067D4" d="M43.52 69.2a4.46 4.46 0 0 1-3.16-1.3L23.1 50.64a4.46 4.46 0 0 1 0-6.34 4.46 4.46 0 0 1 6.34 0l7.44 7.44a2.88 2.88 0 0 0 4.56-.68C47.9 39.32 62.76 20.1 86.78 1.56a3.28 3.28 0 0 1 4.6.64 3.26 3.26 0 0 1-.64 4.52A130.8 130.8 0 0 0 47.76 66.2a4.52 4.52 0 0 1-3.24 2.9 5.46 5.46 0 0 1-1 .1z"/>
    </g>
</svg>
