<svg xmlns="http://www.w3.org/2000/svg" width="270" height="239" viewBox="0 0 270 239">
    <defs>
        <linearGradient id="a" x1="50.009%" x2="50.009%" y1="100%" y2="0%">
            <stop offset="0%" stop-color="#403A9B"/>
            <stop offset="100%" stop-color="#1F83DA"/>
        </linearGradient>
        <linearGradient id="b" x1="21.76%" x2="112.812%" y1="22.029%" y2="112.131%">
            <stop offset="0%" stop-color="#3B97D9"/>
            <stop offset="100%" stop-color="#BCFDF1"/>
        </linearGradient>
        <linearGradient id="c" x1="50.594%" x2="8.912%" y1="52.263%" y2="-108.214%">
            <stop offset="0%" stop-color="#3B97D9"/>
            <stop offset="100%" stop-color="#BCFDF1"/>
        </linearGradient>
        <linearGradient id="d" x1="-28.54%" x2="64.764%" y1="65.98%" y2="47.013%">
            <stop offset="0%" stop-color="#403A9B"/>
            <stop offset="100%" stop-color="#1F83DA"/>
        </linearGradient>
        <linearGradient id="e" x1="60.577%" x2="44.905%" y1="81.165%" y2="34.972%">
            <stop offset="0%" stop-color="#3B97D9"/>
            <stop offset="100%" stop-color="#BCFDF1"/>
        </linearGradient>
        <linearGradient id="f" x1="50%" x2="50%" y1="100%" y2="0%">
            <stop offset="0%" stop-color="#1F83DA"/>
            <stop offset="64%" stop-color="#4BA0E7"/>
            <stop offset="100%" stop-color="#5FADED"/>
        </linearGradient>
        <linearGradient id="g" x1="50%" x2="50%" y1="100%" y2="0%">
            <stop offset="0%" stop-color="#3B97D9"/>
            <stop offset="100%" stop-color="#BCFDF1"/>
        </linearGradient>
        <linearGradient id="h" x1="50.004%" x2="50.004%" y1="100%" y2="0%">
            <stop offset="0%" stop-color="#A7F9F5"/>
            <stop offset="100%" stop-color="#FFF9F5"/>
        </linearGradient>
        <linearGradient id="i" x1="50%" x2="50%" y1="100%" y2="0%">
            <stop offset="0%" stop-color="#A7F9F5"/>
            <stop offset="100%" stop-color="#FFF9F5"/>
        </linearGradient>
        <linearGradient id="j" x1="50.005%" x2="50.005%" y1="100%" y2="0%">
            <stop offset="0%" stop-color="#A7F9F5"/>
            <stop offset="100%" stop-color="#FFF9F5"/>
        </linearGradient>
        <linearGradient id="k" x1="11.316%" x2="91.065%" y1="39.533%" y2="61.045%">
            <stop offset="0%" stop-color="#403A9B"/>
            <stop offset="100%" stop-color="#1F83DA"/>
        </linearGradient>
        <linearGradient id="l" x1="15.01%" x2="89.249%" y1="41.992%" y2="67.99%">
            <stop offset="0%" stop-color="#A7F9F5"/>
            <stop offset="100%" stop-color="#FFF9F5"/>
        </linearGradient>
        <linearGradient id="m" x1="50.009%" x2="50.009%" y1="100%" y2="0%">
            <stop offset="0%" stop-color="#3B97D9"/>
            <stop offset="100%" stop-color="#BCFDF1"/>
        </linearGradient>
        <linearGradient id="n" x1="50%" x2="50%" y1="100%" y2="0%">
            <stop offset="0%" stop-color="#3B97D9"/>
            <stop offset="100%" stop-color="#BCFDF1"/>
        </linearGradient>
        <linearGradient id="o" x1="50.009%" x2="50.009%" y1="100%" y2="0%">
            <stop offset="0%" stop-color="#A7F9F5"/>
            <stop offset="100%" stop-color="#FFF9F5"/>
        </linearGradient>
        <linearGradient id="p" x1="17.987%" x2="85.625%" y1="44.37%" y2="69.164%">
            <stop offset="0%" stop-color="#A7F9F5"/>
            <stop offset="100%" stop-color="#FFF9F5"/>
        </linearGradient>
        <linearGradient id="q" x1="50%" x2="50%" y1="100%" y2="0%">
            <stop offset="0%" stop-color="#A7F9F5"/>
            <stop offset="100%" stop-color="#FFF9F5"/>
        </linearGradient>
        <linearGradient id="r" x1="49.958%" x2="49.958%" y1="99.919%" y2="-.035%">
            <stop offset="0%" stop-color="#403A9B"/>
            <stop offset="100%" stop-color="#1F83DA"/>
        </linearGradient>
        <linearGradient id="s" x1="49.992%" x2="49.992%" y1="100.078%" y2="0%">
            <stop offset="0%" stop-color="#3B97D9"/>
            <stop offset="100%" stop-color="#BCFDF1"/>
        </linearGradient>
        <linearGradient id="t" x1="27.499%" x2="72.553%" y1="54.452%" y2="45.598%">
            <stop offset="0%" stop-color="#A7F9F5"/>
            <stop offset="100%" stop-color="#FFF9F5"/>
        </linearGradient>
        <linearGradient id="u" x1="50.022%" x2="50.022%" y1="99.987%" y2="-.02%">
            <stop offset="0%" stop-color="#403A9B"/>
            <stop offset="100%" stop-color="#1F83DA"/>
        </linearGradient>
        <linearGradient id="v" x1="50%" x2="50%" y1="99.983%" y2=".023%">
            <stop offset="0%" stop-color="#373D9C"/>
            <stop offset="66%" stop-color="#686CC4"/>
            <stop offset="100%" stop-color="#7C80D5"/>
        </linearGradient>
        <linearGradient id="w" x1="50.017%" x2="50.017%" y1="99.984%" y2=".022%">
            <stop offset="0%" stop-color="#A7F9F5"/>
            <stop offset="100%" stop-color="#FFF9F5"/>
        </linearGradient>
        <linearGradient id="x" x1="75.806%" x2="31.281%" y1="150.748%" y2="-23.197%">
            <stop offset="0%" stop-color="#3B97D9"/>
            <stop offset="100%" stop-color="#BCFDF1"/>
        </linearGradient>
        <linearGradient id="y" x1="20.724%" x2="110.024%" y1="22.606%" y2="106.318%">
            <stop offset="0%" stop-color="#3B97D9"/>
            <stop offset="100%" stop-color="#BCFDF1"/>
        </linearGradient>
        <linearGradient id="z" x1="40.721%" x2="52.692%" y1="40.678%" y2="52.673%">
            <stop offset="0%" stop-color="#403A9B"/>
            <stop offset="100%" stop-color="#1F83DA"/>
        </linearGradient>
        <linearGradient id="A" x1="40.852%" x2="57.959%" y1="80.153%" y2="19.612%">
            <stop offset="0%" stop-color="#3B97D9"/>
            <stop offset="100%" stop-color="#BCFDF1"/>
        </linearGradient>
        <linearGradient id="B" x1="50.143%" x2="48.568%" y1="46.278%" y2="129.378%">
            <stop offset="0%" stop-color="#FFF" stop-opacity="0"/>
            <stop offset="100%" stop-color="#A7F9F5"/>
        </linearGradient>
        <linearGradient id="C" x1="50.193%" x2="49.345%" y1="33.357%" y2="116.2%">
            <stop offset="0%" stop-color="#FFF" stop-opacity="0"/>
            <stop offset="100%" stop-color="#A7F9F5"/>
        </linearGradient>
        <linearGradient id="D" x1="50.36%" x2="48.116%" y1="23.876%" y2="74.446%">
            <stop offset="0%" stop-color="#FFF" stop-opacity="0"/>
            <stop offset="100%" stop-color="#A7F9F5"/>
        </linearGradient>
        <linearGradient id="E" x1="24.194%" x2="68.768%" y1="150.748%" y2="-23.197%">
            <stop offset="0%" stop-color="#3B97D9"/>
            <stop offset="100%" stop-color="#BCFDF1"/>
        </linearGradient>
        <linearGradient id="F" x1="79.228%" x2="-10.065%" y1="22.676%" y2="106.338%">
            <stop offset="0%" stop-color="#3B97D9"/>
            <stop offset="100%" stop-color="#BCFDF1"/>
        </linearGradient>
        <linearGradient id="G" x1="59.324%" x2="47.29%" y1="40.782%" y2="52.7%">
            <stop offset="0%" stop-color="#403A9B"/>
            <stop offset="100%" stop-color="#1F83DA"/>
        </linearGradient>
        <linearGradient id="H" x1="79.277%" x2="-10.015%" y1="22.535%" y2="106.338%">
            <stop offset="0%" stop-color="#3B97D9"/>
            <stop offset="100%" stop-color="#BCFDF1"/>
        </linearGradient>
        <linearGradient id="I" x1="59.291%" x2="47.334%" y1="40.596%" y2="52.7%">
            <stop offset="0%" stop-color="#403A9B"/>
            <stop offset="100%" stop-color="#1F83DA"/>
        </linearGradient>
        <linearGradient id="J" x1="-.457%" x2="100.913%" y1="36.475%" y2="63.462%">
            <stop offset="0%" stop-color="#A7F9F5"/>
            <stop offset="100%" stop-color="#FFF9F5"/>
        </linearGradient>
    </defs>
    <g fill="none" fill-rule="evenodd" transform="translate(0 -28)">
        <path fill="#4C93E6" fill-rule="nonzero" d="M52.279 232.315a4.298 4.298 0 0 1-2.305-.663l-9.932-6.309a4.305 4.305 0 0 1 0-7.303l17.526-10.71 1.974 3.155L42 221.195a.52.52 0 0 0-.253.457.536.536 0 0 0 .253.473l9.916 6.31a.553.553 0 0 0 .584 0l20.053-12.43 1.99 3.155-20.022 12.508a4.219 4.219 0 0 1-2.242.647z"/>
        <path fill="#4C93E6" fill-rule="nonzero" d="M137.226 266.826a17.225 17.225 0 0 1-8.084-2.003l-28.737-15.252a13.544 13.544 0 0 0-13.152.3l-11.148 6.561a17.163 17.163 0 0 1-17.731-.158L35.62 242.346a6.923 6.923 0 0 1 0-11.814l8.921-5.504 1.974 3.154-8.921 5.505a3.154 3.154 0 0 0 0 5.394l22.752 13.944a13.465 13.465 0 0 0 13.864.126l11.147-6.577a17.384 17.384 0 0 1 16.831-.363l28.737 15.253a13.56 13.56 0 0 0 13.406-.458l72.631-45 1.99 3.154-72.632 45.017a17.382 17.382 0 0 1-9.095 2.65z"/>
        <path fill="url(#a)" fill-rule="nonzero" d="M219.805 171.935l-84.837 47.793v-40.206l84.837-47.62z"/>
        <path fill="url(#b)" fill-rule="nonzero" d="M197.053 171.604v13.028l-32.29 18.203v-13.108l28.769-16.152z"/>
        <path fill="url(#c)" fill-rule="nonzero" d="M199.595 135.657v12.997l-32.29 18.202-2.258-1.735v-13.076l32.306-18.123z"/>
        <path fill="url(#d)" fill-rule="nonzero" d="M193.532 173.575v9.906l-28.769 16.215v-9.969z"/>
        <path fill="url(#e)" fill-rule="nonzero" d="M226.847 112.47l-91.879 51.578v15.474l91.88-51.578z"/>
        <path fill="url(#f)" fill-rule="nonzero" d="M35.716 163.686l99.252 56.042v-40.206l-99.252-55.869z"/>
        <path fill="url(#g)" fill-rule="nonzero" d="M28.674 104.22l106.294 59.828v15.474L28.674 119.694z"/>
        <path fill="url(#h)" fill-rule="nonzero" d="M28.674 104.22l106.294 59.828 91.88-51.578-105.79-59.623z"/>
        <path fill="url(#i)" fill-rule="nonzero" d="M134.779 193.986L0 117.943l4.642-1.814 130.153 73.55 127.39-71.5-39.743-22.397 3.647-2.256 43.753 24.654z"/>
        <path fill="url(#j)" fill-rule="nonzero" d="M134.81 202.33L29.59 142.707l4.642-1.814 100.579 57.13 43.72-24.542 3.79 2.192z"/>
        <path fill="url(#k)" fill-rule="nonzero" d="M209.668 111.792l-5.32 2.98-3.206 1.815-67.42 37.824-79.264-44.607-3.237-1.83-5.368-3.028 76.358-42.445z"/>
        <path fill="#4C93E6" fill-rule="nonzero" d="M204.347 114.773l-3.205 1.814-67.42 37.824-79.264-44.607-3.237-1.83 70.99-39.464z"/>
        <path stroke="url(#l)" stroke-width="1.575" d="M154.942 92.265l36.19 20.93-40.832 24.433-21.442-10.142"/>
        <path fill="url(#m)" fill-rule="nonzero" d="M226.847 171.982l-91.879 51.863v20.82l91.88-51.862z"/>
        <path fill="url(#n)" fill-rule="nonzero" d="M28.674 163.749l106.294 60.096v20.82l-106.294-60.08z"/>
        <path fill="url(#o)" fill-rule="nonzero" d="M226.847 171.982l-91.879 51.863v-4.196l84.774-47.84.063-4.022z"/>
        <path stroke="url(#p)" stroke-width="1.575" d="M148.69 110.735l20.02 11.01L131.7 143.4l-5.826-3.344"/>
        <path fill="url(#q)" fill-rule="nonzero" d="M28.674 163.749l106.294 60.096v-4.275l-99.157-56.058-.095-5.047z"/>
        <path fill="url(#r)" fill-rule="nonzero" d="M108.505 125.988c12.3 7.886 31.184 9.89 42.237 2.05 11.053-7.84 10.058-20.647-2.147-28.55-12.206-7.902-31.216-7.886-42.284-.094-11.069 7.792-10.09 18.707 2.194 26.594z"/>
        <path fill="url(#s)" fill-rule="nonzero" d="M158.416 115.325c-.158 4.621-2.684 9.164-7.658 12.619-11.053 7.886-30.79 6.309-43.074-1.578-6.947-4.464-9.473-8.927-9.079-14.732.08-1.104.206-6.041.3-7.398.3-4.732 3.158-9.306 8.48-12.618 11.526-7.114 30.41-5.915 42.173 2.713 5.731 4.211 8.716 9.464 8.953 14.432.063 1.23-.064 5.6-.095 6.562z"/>
        <ellipse cx="128.741" cy="107.289" fill="url(#t)" fill-rule="nonzero" rx="20.095" ry="29.968" transform="rotate(-82.5 128.741 107.29)"/>
        <path fill="url(#u)" fill-rule="nonzero" d="M148.69 110.735a11.485 11.485 0 0 1-5.543 7.145c-7.8 4.858-20.526 4.007-28.579-1.83a14.876 14.876 0 0 1-5.542-7.066c-1.5-4.511.237-9.18 5.258-12.303 7.784-4.827 20.527-4.022 28.563 1.845 4.8 3.534 6.758 8.076 5.842 12.209z"/>
        <path fill="url(#v)" fill-rule="nonzero" d="M148.69 110.735a11.485 11.485 0 0 1-5.543 7.145c-7.8 4.858-20.526 4.007-28.579-1.83a14.876 14.876 0 0 1-5.542-7.066 11.532 11.532 0 0 1 5.558-7.13c7.784-4.858 20.527-4.006 28.563 1.815a15.018 15.018 0 0 1 5.542 7.066z"/>
        <path fill="url(#w)" fill-rule="nonzero" d="M134.858 110.088a3.502 3.502 0 0 1-1.674 2.161 8.376 8.376 0 0 1-8.652-.552 4.638 4.638 0 0 1-1.674-2.145 3.153 3.153 0 0 1 1.579-3.723 8.344 8.344 0 0 1 8.637.553 3.69 3.69 0 0 1 1.784 3.706z"/>
        <path fill="url(#x)" fill-rule="nonzero" d="M199.595 148.67l-32.306 18.202V153.78l32.306-18.123z"/>
        <path fill="url(#y)" fill-rule="nonzero" d="M187.942 139.521v12.824l-5.605 3.154v-12.84l3.49-1.955z"/>
        <path fill="url(#z)" fill-rule="nonzero" d="M185.826 140.704v10.126l-3.49 1.972V142.66z"/>
        <path fill="url(#A)" fill-rule="nonzero" d="M89.732 207.74v11.041l-8.874 6.846-32.29-18.187v-13.012l8.874-4.811z"/>
        <path fill="url(#B)" fill-rule="nonzero" d="M154.91 111.066V.193L102.554 17.09v90.25a7.458 7.458 0 0 0 0 3.015v.71h.252c1.202 3.302 3.877 6.164 7.548 8.076 10.39 5.93 27.047 6.752 37.215 1.862 5.29-2.573 7.737-6.2 7.343-9.938z"/>
        <path fill="url(#C)" fill-rule="nonzero" d="M141.205 101.26V.262l-24.631 15.393v82.212a13.346 13.346 0 0 0 0 2.75v.645h.094c.362 2.637 1.564 5.172 3.506 7.398 4.879 5.396 12.71 6.157 17.494 1.697 2.574-2.633 3.825-5.85 3.537-9.095z"/>
        <path fill="url(#D)" fill-rule="nonzero" d="M194.81 42.768c-47.21-30.726-92.178-26.246-135.789 0l39.726 64.513h.269c.695 4.558 3.631 9.148 8.795 12.95 11.778 8.643 30.663 9.858 42.189 2.712 5.921-3.675 8.732-8.848 8.463-14.195-.016-.994 36.348-65.98 36.348-65.98z"/>
        <path fill="url(#E)" fill-rule="nonzero" d="M48.553 207.44l32.305 18.203V212.55l-32.305-18.123z"/>
        <path fill="url(#F)" fill-rule="nonzero" d="M54.663 201.447v8.99l3.932 2.209v-8.991l-2.463-1.372z"/>
        <path fill="url(#G)" fill-rule="nonzero" d="M56.132 202.283v7.098l2.463 1.372v-7.098z"/>
        <path fill="url(#H)" fill-rule="nonzero" d="M69.647 210.138v8.99l3.932 2.209v-9.007l-2.447-1.356z"/>
        <path fill="url(#I)" fill-rule="nonzero" d="M71.132 210.974v7.082l2.447 1.388v-7.114z"/>
        <path stroke="url(#J)" stroke-width="1.575" d="M113.937 138.48l7.42-3.77 6.411 4.038-7.357 3.628z"/>
        <path fill="#4C93E6" fill-rule="nonzero" d="M224.005 221.605c-6.947 0-12.631-4.322-12.631-9.638 0-5.315 5.668-9.637 12.631-9.637s12.632 4.322 12.632 9.637c0 5.316-5.669 9.638-12.632 9.638zm0-15.521c-4.737 0-8.858 2.697-8.858 5.883 0 3.187 4.058 5.884 8.858 5.884 4.8 0 8.874-2.697 8.874-5.884 0-3.186-4.058-5.883-8.874-5.883z"/>
    </g>
</svg>
