<?xml version="1.0" encoding="UTF-8"?>
<svg width="305px" height="38px" viewBox="0 0 305 38" version="1.1" xmlns="http://www.w3.org/2000/svg" xmlns:xlink="http://www.w3.org/1999/xlink">
    <!-- Generator: Sketch 54.1 (76490) - https://sketchapp.com -->
    <title>CEL Horizontal Logo</title>
    <desc>Created with Sketch.</desc>
    <g id="Desktop" stroke="none" stroke-width="1" fill="none" fill-rule="evenodd">
        <g id="CEL-Horizontal-Logo">
            <g id="Group" transform="translate(13.000000, 0.000000)">
                <path d="M50.76,22.7271233 C50.5043829,23.7564841 50.0010397,24.7055622 49.295,25.4894521 C48.6325716,26.2051326 47.8091401,26.747695 46.895,27.0708219 C45.9073911,27.4148908 44.8692723,27.5862817 43.825,27.5776712 C42.3800552,27.6133451 40.9500022,27.2749207 39.67,26.5943836 C38.5126081,25.9450569 37.576478,24.9554589 36.985,23.7560274 C36.3271543,22.3696492 36.0065396,20.8436818 36.05,19.3058904 C36.0096006,17.7634527 36.3354128,16.233756 37,14.8456164 C37.591478,13.6461849 38.5276081,12.6565869 39.685,12.0072603 C40.956312,11.3275429 42.3781076,10.9890358 43.815,11.0239726 C44.8505585,11.0122079 45.880976,11.1731687 46.865,11.500411 C47.7490369,11.7889015 48.5539489,12.2836726 49.215,12.9449315 C49.8821277,13.6439861 50.3548059,14.5096096 50.585,15.4538356 L46.96,16.9338356 C46.8486329,16.1346447 46.4605056,15.401653 45.865,14.8658904 C45.3054534,14.4776775 44.6375622,14.2822065 43.96,14.3083562 C43.2679105,14.2911536 42.5867232,14.4854171 42.005,14.8658904 C41.4230284,15.2778192 40.9783639,15.8593825 40.73,16.5334247 C40.4095536,17.4170903 40.2585154,18.3546569 40.285,19.2957534 C40.2629292,20.2286695 40.4016783,21.1583305 40.695,22.0428767 C40.9167946,22.724165 41.3500233,23.3144574 41.93,23.7256164 C42.5451934,24.1141811 43.2605842,24.308271 43.985,24.2831507 C44.6905107,24.3043566 45.3814389,24.0768632 45.94,23.6394521 C46.5105463,23.12441 46.8855109,22.4233745 47,21.6576712 L50.76,22.7271233 Z" id="Path" fill="#333333" fill-rule="nonzero"></path>
                <path d="M52.775,27.3242466 L52.775,15.159863 L56.375,15.159863 L56.545,17.7853425 C56.7918681,16.9657945 57.2614652,16.2333056 57.9,15.6717808 C58.5511831,15.1533914 59.3625751,14.8858073 60.19,14.9165753 C60.4517034,14.9132914 60.7130552,14.9370673 60.97,14.9875342 C61.1458672,15.0264176 61.3145994,15.0931246 61.47,15.1852055 L61.06,18.5912329 C60.8628684,18.5166569 60.6583391,18.4639744 60.45,18.4341096 C60.1520145,18.390163 59.8511032,18.3698274 59.55,18.3732877 C59.083419,18.368358 58.622381,18.4760752 58.205,18.6875342 C57.7891591,18.8953826 57.4417721,19.2211173 57.205,19.6252055 C56.9390126,20.1018545 56.8091661,20.6441504 56.83,21.1913699 L56.83,27.3242466 L52.775,27.3242466 Z" id="Path" fill="#333333" fill-rule="nonzero"></path>
                <path d="M75.17,15.159863 L70.8,27.3242466 C70.44543,28.3987216 69.952865,29.4212045 69.335,30.3653425 C68.8677825,31.074956 68.2222476,31.6453496 67.465,32.0176712 C66.646833,32.3764985 65.7611178,32.5494943 64.87,32.5245205 C64.2483853,32.5312025 63.6284427,32.4579702 63.025,32.3065753 C62.5096143,32.1786032 62.0158767,31.9736199 61.56,31.6983562 L62.375,28.9005479 C62.6524375,29.1026289 62.9618872,29.2551879 63.29,29.3516438 C63.6895056,29.4478541 64.0994652,29.4921368 64.51,29.4834247 C64.9040143,29.4993141 65.2957496,29.4157138 65.65,29.240137 C65.9878975,29.0286373 66.239802,28.7013511 66.36,28.3176712 L66.67,27.5624658 L65.28,24.2527397 L61.68,15.1294521 L66.18,15.1294521 L68,22.0935616 L68.575,24.6734247 L69.25,21.9972603 L71.095,15.159863 L75.17,15.159863 Z" id="Path" fill="#333333" fill-rule="nonzero"></path>
                <path d="M76.61,32.4383562 L76.61,15.159863 L80.28,15.159863 L80.5,19.5643836 L80,19.0575342 C80.092425,18.2982466 80.346632,17.5684155 80.745,16.9186301 C81.118381,16.3139275 81.6337321,15.8124133 82.245,15.4589041 C82.881351,15.0926087 83.6033548,14.9070087 84.335,14.9216438 C85.2532975,14.9016291 86.1566781,15.1592405 86.93,15.6616438 C87.6932551,16.1941457 88.2887365,16.9385747 88.645,17.8056164 C89.0776854,18.8809017 89.285403,20.0355466 89.255,21.1964384 C89.2835857,22.3717818 89.0707468,23.5403085 88.63,24.6278082 C88.2726366,25.5138134 87.667903,26.2748008 86.89,26.8173973 C86.1166745,27.3296927 85.2085966,27.59295 84.285,27.5726027 C83.3123749,27.6146912 82.3635563,27.260626 81.65,26.5893151 C80.9668397,25.9122928 80.4985249,25.0440131 80.305,24.0956164 L80.69,23.5076712 L80.69,32.4383562 L76.61,32.4383562 Z M82.895,24.5315068 C83.5412674,24.5593615 84.1598463,24.2638322 84.55,23.7408219 C85.0081143,22.996101 85.2184221,22.1220269 85.15,21.2471233 C85.217333,20.374307 85.0127166,19.5020818 84.565,18.7534247 C83.8770148,17.8883651 82.6475079,17.7071582 81.745,18.3378082 C81.3843365,18.6233246 81.1133389,19.0089751 80.965,19.4478082 C80.7660736,20.0256165 80.6728792,20.6353844 80.69,21.2471233 C80.6763631,21.845048 80.7608474,22.4411133 80.94,23.0109589 C81.0745165,23.4557681 81.3375059,23.8494768 81.695,24.1412329 C82.0411154,24.402321 82.4637189,24.5379786 82.895,24.5264384 L82.895,24.5315068 Z" id="Shape" fill="#333333" fill-rule="nonzero"></path>
                <path d="M100.245,15.159863 L100.245,18.1046575 L90.53,18.1046575 L90.53,15.159863 L100.245,15.159863 Z M96.67,11.2926027 L96.67,22.9957534 C96.6255968,23.4549017 96.7786647,23.9111601 97.09,24.2476712 C97.4197088,24.5134976 97.8344034,24.6470074 98.255,24.6227397 C98.5929176,24.6289949 98.9298919,24.5845882 99.255,24.4909589 C99.5296019,24.4038597 99.7868822,24.26831 100.015,24.0905479 L100.445,26.6247945 C99.9889363,26.9400171 99.4809412,27.1700299 98.945,27.3039726 C98.3329142,27.4664296 97.7027179,27.5481998 97.07,27.5472603 C96.2647871,27.5644221 95.4632673,27.4321548 94.705,27.1569863 C94.074095,26.9226335 93.5353848,26.486829 93.17,25.9152055 C92.77976,25.2288686 92.5842293,24.446556 92.605,23.6546575 L92.605,12.4330137 L96.67,11.2926027 Z" id="Shape" fill="#333333" fill-rule="nonzero"></path>
                <path d="M107.855,14.9165753 C109.0056,14.8918476 110.145439,15.1455261 111.18,15.6565753 C112.118905,16.1397911 112.895061,16.8948255 113.41,17.8258904 C113.972078,18.8722375 114.249883,20.0511568 114.215,21.2420548 C114.249883,22.4329528 113.972078,23.6118721 113.41,24.6582192 C112.895061,25.5892841 112.118905,26.3443185 111.18,26.8275342 C109.084206,27.8144123 106.665794,27.8144123 104.57,26.8275342 C103.62484,26.3477895 102.842958,25.592266 102.325,24.6582192 C101.755967,23.6138284 101.471232,22.4347961 101.5,21.2420548 C101.465117,20.0511568 101.742922,18.8722375 102.305,17.8258904 C102.822958,16.8918436 103.60484,16.13632 104.55,15.6565753 C105.577816,15.1466378 106.71092,14.8929322 107.855,14.9165753 Z M107.855,17.8613699 C106.946956,17.8092397 106.126235,18.4068177 105.885,19.2957534 C105.692579,19.9254426 105.604716,20.5831673 105.625,21.2420548 C105.604239,21.897641 105.692125,22.5521127 105.885,23.1782192 C106.024741,23.614611 106.293574,23.9968403 106.655,24.2730137 C107.009955,24.5120164 107.429025,24.6341494 107.855,24.6227397 C108.289069,24.6364183 108.716771,24.5143135 109.08,24.2730137 C109.441482,23.9979756 109.708985,23.6151511 109.845,23.1782192 C110.042225,22.5530146 110.131866,21.8980732 110.11,21.2420548 C110.131432,20.5827353 110.041815,19.9245376 109.845,19.2957534 C109.714389,18.8561232 109.445786,18.4717247 109.08,18.2009589 C108.714715,17.965305 108.28775,17.8469439 107.855,17.8613699 L107.855,17.8613699 Z" id="Shape" fill="#333333" fill-rule="nonzero"></path>
                <path d="M118.92,26.8275342 C117.970781,26.3573448 117.189602,25.5991243 116.685,24.6582192 C116.150336,23.6029493 115.887202,22.4279047 115.92,21.2420548 C115.889803,20.0579224 116.158277,18.885574 116.7,17.8360274 C117.196881,16.9008435 117.962361,16.1407862 118.895,15.6565753 C119.917253,15.1460169 121.04566,14.8922113 122.185,14.9165753 C123.293189,14.8834279 124.391324,15.1381677 125.375,15.6565753 C126.230003,16.1238345 126.937216,16.8266792 127.415,17.6839726 C127.906579,18.5970258 128.154746,19.6242558 128.135,20.6642466 C128.135,20.9531507 128.135,21.2420548 128.135,21.5258904 C128.135,21.809726 128.095,22.0327397 128.065,22.2658904 L118.565,22.2658904 L118.565,20.0509589 L126.295,20.0509589 L124.325,21.120411 C124.404759,20.2689771 124.241626,19.4122346 123.855,18.6520548 C123.504516,18.0850435 122.873276,17.7611982 122.215,17.8106849 C121.748521,17.7924757 121.28777,17.9198565 120.895,18.1756164 C120.51181,18.459433 120.229429,18.8612483 120.09,19.3210959 C119.888317,19.9576579 119.795315,20.62445 119.815,21.2927397 C119.790515,21.9550317 119.892379,22.6158883 120.115,23.2390411 C120.269195,23.6874811 120.566557,24.0709641 120.96,24.3287671 C121.393154,24.568378 121.881844,24.6856597 122.375,24.6683562 C122.870504,24.6904235 123.361781,24.5672416 123.79,24.3135616 C124.167357,24.0726408 124.461037,23.7182327 124.63,23.299863 L127.895,24.42 C127.539824,25.4344447 126.812832,26.2712293 125.865,26.7565753 C124.788973,27.3381048 123.584185,27.631215 122.365,27.6080822 C121.172226,27.6248323 119.992233,27.3574764 118.92,26.8275342 Z" id="Path" fill="#333333" fill-rule="nonzero"></path>
                <path d="M136.105,14.9165753 C137.139878,14.8788216 138.17176,15.0511475 139.14,15.4234247 C139.875653,15.7196085 140.526929,16.1969021 141.035,16.8121918 C141.472765,17.3469632 141.765699,17.9880189 141.885,18.6723288 L138.12,19.9394521 C138.089315,19.3644863 137.879207,18.814273 137.52,18.3682192 C137.180228,18.0184963 136.708457,17.8338503 136.225,17.8613699 C135.771752,17.8445973 135.324011,17.9664546 134.94,18.2110959 C134.566058,18.4878626 134.29204,18.8813723 134.16,19.3312329 C133.966578,19.9660088 133.877059,20.6286209 133.895,21.2927397 C133.872375,21.9491177 133.970724,22.6040154 134.185,23.2238356 C134.330155,23.6631593 134.617314,24.0399728 135,24.2932877 C135.37541,24.5214657 135.807468,24.6357969 136.245,24.6227397 C136.592219,24.63606 136.936871,24.557451 137.245,24.3946575 C137.515559,24.229578 137.742151,23.9998822 137.905,23.7256164 C138.091204,23.3958578 138.205442,23.0294372 138.24,22.6510959 L141.91,23.8472603 C141.800233,24.5580385 141.487332,25.2206078 141.01,25.7530137 C140.480334,26.3453408 139.818592,26.8006556 139.08,27.0809589 C138.183774,27.4299559 137.229977,27.6019955 136.27,27.5878082 C135.085462,27.6148154 133.91103,27.3614395 132.84,26.8478082 C131.887144,26.3755279 131.100092,25.6183815 130.585,24.6784932 C129.524968,22.5278003 129.524968,19.9968572 130.585,17.8461644 C131.092123,16.9125567 131.866025,16.1563235 132.805,15.6768493 C133.829267,15.1597626 134.960873,14.8990565 136.105,14.9165753 Z" id="Path" fill="#333333" fill-rule="nonzero"></path>
                <path d="M149.735,14.9165753 C150.8856,14.8918476 152.025439,15.1455261 153.06,15.6565753 C153.998905,16.1397911 154.775061,16.8948255 155.29,17.8258904 C156.363571,19.9733247 156.363571,22.5107849 155.29,24.6582192 C154.775061,25.5892841 153.998905,26.3443185 153.06,26.8275342 C150.962348,27.8139029 148.542652,27.8139029 146.445,26.8275342 C145.501333,26.3474797 144.721141,25.5919071 144.205,24.6582192 C143.642922,23.6118721 143.365117,22.4329528 143.4,21.2420548 C143.365117,20.0511568 143.642922,18.8722375 144.205,17.8258904 C144.721141,16.8922025 145.501333,16.1366299 146.445,15.6565753 C147.468539,15.1497346 148.596045,14.8961313 149.735,14.9165753 Z M149.735,17.8613699 C148.826956,17.8092397 148.006235,18.4068177 147.765,19.2957534 C147.572579,19.9254426 147.484716,20.5831673 147.505,21.2420548 C147.484239,21.897641 147.572125,22.5521127 147.765,23.1782192 C147.904741,23.614611 148.173574,23.9968403 148.535,24.2730137 C148.889955,24.5120164 149.309025,24.6341494 149.735,24.6227397 C150.169069,24.6364183 150.596771,24.5143135 150.96,24.2730137 C151.321482,23.9979756 151.588985,23.6151511 151.725,23.1782192 C151.922225,22.5530146 152.011866,21.8980732 151.99,21.2420548 C152.011432,20.5827353 151.921815,19.9245376 151.725,19.2957534 C151.594389,18.8561232 151.325786,18.4717247 150.96,18.2009589 C150.594715,17.965305 150.16775,17.8469439 149.735,17.8613699 L149.735,17.8613699 Z" id="Shape" fill="#333333" fill-rule="nonzero"></path>
                <path d="M158.4,27.3242466 L158.4,15.159863 L162.045,15.159863 L162.265,19.3464384 L161.805,18.880137 C161.930229,18.0961249 162.221954,17.3490405 162.66,16.6905479 C163.049919,16.1221851 163.57888,15.6663217 164.195,15.3676712 C164.844256,15.0605996 165.553625,14.9063859 166.27,14.9165753 C167.024776,14.9046523 167.771132,15.0785788 168.445,15.4234247 C169.058512,15.7444356 169.563434,16.2439193 169.895,16.8578082 C170.270658,17.5943363 170.453169,18.416413 170.425,19.2450685 L170.425,27.3546575 L166.345,27.3546575 L166.345,20.319589 C166.406565,19.6916354 166.227542,19.0637312 165.845,18.5658904 C165.523603,18.2321516 165.07998,18.0486006 164.62,18.0590411 C164.242337,18.0562304 163.870347,18.1522476 163.54,18.3378082 C163.191422,18.5538738 162.919928,18.8770275 162.765,19.260274 C162.554456,19.7769297 162.457211,20.3338029 162.48,20.8923288 L162.48,27.3242466 L158.4,27.3242466 Z" id="Path" fill="#333333" fill-rule="nonzero"></path>
                <path d="M179,14.9165753 C180.150657,14.8912604 181.290631,15.1449689 182.325,15.6565753 C183.263905,16.1397911 184.040061,16.8948255 184.555,17.8258904 C185.117078,18.8722375 185.394883,20.0511568 185.36,21.2420548 C185.394883,22.4329528 185.117078,23.6118721 184.555,24.6582192 C184.040061,25.5892841 183.263905,26.3443185 182.325,26.8275342 C180.229206,27.8144123 177.810794,27.8144123 175.715,26.8275342 C174.76984,26.3477895 173.987958,25.592266 173.47,24.6582192 C172.396429,22.5107849 172.396429,19.9733247 173.47,17.8258904 C173.987958,16.8918436 174.76984,16.13632 175.715,15.6565753 C176.736775,15.1497843 177.862652,14.8961621 179,14.9165753 L179,14.9165753 Z M179,17.8613699 C178.092645,17.8077595 177.272518,18.4064246 177.035,19.2957534 C176.838185,19.9245376 176.748568,20.5827353 176.77,21.2420548 C176.748134,21.8980732 176.837775,22.5530146 177.035,23.1782192 C177.171015,23.6151511 177.438518,23.9979756 177.8,24.2730137 C178.154955,24.5120164 178.574025,24.6341494 179,24.6227397 C179.434069,24.6364183 179.861771,24.5143135 180.225,24.2730137 C180.58828,23.9975857 180.858915,23.6152768 181,23.1782192 C181.192875,22.5521127 181.280761,21.897641 181.26,21.2420548 C181.280284,20.5831673 181.192421,19.9254426 181,19.2957534 C180.865777,18.8565673 180.595831,18.4727548 180.23,18.2009589 C179.863295,17.964316 179.434439,17.8459137 179,17.8613699 L179,17.8613699 Z" id="Shape" fill="#333333" fill-rule="nonzero"></path>
                <path d="M187.655,27.3242466 L187.655,15.159863 L191.305,15.159863 L191.425,17.5217808 C191.755082,16.7198067 192.320693,16.0402695 193.045,15.5754795 C193.769871,15.1272741 194.606106,14.8986438 195.455,14.9165753 C196.272297,14.8962074 197.07906,15.1068035 197.785,15.5247945 C198.453026,15.9461791 198.965991,16.5783609 199.245,17.3241096 C199.486032,16.8143637 199.826169,16.3592325 200.245,15.9860274 C200.657885,15.6371172 201.133213,15.3721056 201.645,15.2054795 C202.172279,15.0277025 202.724321,14.9370021 203.28,14.9368493 C204.011074,14.9195112 204.735303,15.0830422 205.39,15.4132877 C206.00693,15.7348695 206.51654,16.2338298 206.855,16.8476712 C207.244632,17.5826301 207.427948,18.41184 207.385,19.2450685 L207.335,27.3546575 L203.305,27.3546575 L203.305,20.1726027 C203.364167,19.5912349 203.205301,19.0085904 202.86,18.5405479 C202.544091,18.2253868 202.112747,18.0582016 201.67,18.0793151 C201.28566,18.0745672 200.907815,18.1799856 200.58,18.3834247 C200.239808,18.5993171 199.975574,18.9186132 199.825,19.2957534 C199.633588,19.7784857 199.543343,20.2963066 199.56,20.8163014 L199.56,27.3242466 L195.5,27.3242466 L195.5,20.1726027 C195.558848,19.5897027 195.396118,19.0060009 195.045,18.5405479 C194.730841,18.2290607 194.304127,18.0622689 193.865,18.0793151 C193.498303,18.0788056 193.138526,18.1805024 192.825,18.3732877 C192.476847,18.5867081 192.203915,18.9059433 192.045,19.2856164 C191.832093,19.7963531 191.733069,20.3484465 191.755,20.9024658 L191.755,27.3242466 L187.655,27.3242466 Z" id="Path" fill="#333333" fill-rule="nonzero"></path>
                <path d="M212.28,13.7508219 C211.639308,13.804052 210.99968,13.6361494 210.465,13.2743836 C210.062594,12.8890162 209.856283,12.3381654 209.905,11.7791781 C209.852935,11.2122517 210.059171,10.6522676 210.465,10.2586301 C211.588495,9.62326297 212.956505,9.62326297 214.08,10.2586301 C214.49455,10.6472248 214.707084,11.2092567 214.655,11.7791781 C214.703767,12.3411948 214.491138,12.8941076 214.08,13.2743836 C213.549462,13.6328226 212.915681,13.8005769 212.28,13.7508219 Z M214.32,15.159863 L214.32,27.3242466 L210.24,27.3242466 L210.24,15.159863 L214.32,15.159863 Z" id="Shape" fill="#333333" fill-rule="nonzero"></path>
                <path d="M222.91,14.9165753 C223.944912,14.8782729 224.976901,15.0506166 225.945,15.4234247 C226.681371,15.7182801 227.332948,16.195794 227.84,16.8121918 C228.279174,17.3466713 228.573801,17.9876624 228.695,18.6723288 L224.925,19.9394521 C224.894315,19.3644863 224.684207,18.814273 224.325,18.3682192 C223.985963,18.0173626 223.513665,17.8325101 223.03,17.8613699 C222.576822,17.8452239 222.12926,17.9670326 221.745,18.2110959 C221.371058,18.4878626 221.09704,18.8813723 220.965,19.3312329 C220.772119,19.9643908 220.682606,20.6252458 220.7,21.2876712 C220.679901,21.9438979 220.778179,22.5983295 220.99,23.2187671 C221.136881,23.6571541 221.423644,24.0334479 221.805,24.2882192 C222.182504,24.5157621 222.61597,24.6300071 223.055,24.6176712 C223.402219,24.6309915 223.746871,24.5523825 224.055,24.389589 C224.326587,24.2258451 224.553469,23.9958552 224.715,23.7205479 C224.903263,23.3917075 225.017648,23.0248165 225.05,22.6460274 L228.725,23.8421918 C228.610815,24.5515724 228.298487,25.2129273 227.825,25.7479452 C227.292523,26.3393088 226.629416,26.7943839 225.89,27.0758904 C224.995538,27.424976 224.043359,27.5970298 223.085,27.5827397 C221.898798,27.6103513 220.722608,27.3569653 219.65,26.8427397 C218.698067,26.3691131 217.91137,25.6123082 217.395,24.6734247 C216.842574,23.6239154 216.570246,22.4463026 216.605,21.2572603 C216.570246,20.0682179 216.842574,18.8906051 217.395,17.8410959 C217.904851,16.9096095 218.678016,16.1540965 219.615,15.6717808 C220.63819,15.1572367 221.767966,14.8982948 222.91,14.9165753 L222.91,14.9165753 Z" id="Path" fill="#333333" fill-rule="nonzero"></path>
                <path d="M232.5,26.9694521 C231.524851,26.6061797 230.645421,26.0199557 229.93,25.2563014 L231.85,22.970411 C232.294823,23.5315828 232.85883,23.9837717 233.5,24.2932877 C234.175963,24.6322172 234.920888,24.8058101 235.675,24.800137 C236.10694,24.8192779 236.537588,24.7395906 236.935,24.5669863 C237.212172,24.463701 237.397338,24.1972849 237.4,23.8979452 C237.404143,23.6833358 237.312231,23.4783594 237.15,23.340411 C236.865417,23.1459654 236.540236,23.0210511 236.2,22.9754795 L234.545,22.6561644 C233.045,22.3520548 231.965,21.8958904 231.315,21.2978082 C230.660306,20.6753112 230.306077,19.7942676 230.345,18.8852055 C230.354307,18.1855677 230.583788,17.5072269 231,16.9490411 C231.490586,16.2885359 232.151531,15.7781436 232.91,15.4741096 C233.901965,15.0757964 234.96347,14.8861088 236.03,14.9165753 C237.121834,14.894365 238.208345,15.0764988 239.235,15.4538356 C240.100431,15.7702255 240.87157,16.3059009 241.475,17.009863 L239.5,19.260274 C239.090329,18.7738355 238.577574,18.3874663 238,18.13 C237.423054,17.8531948 236.793293,17.7078707 236.155,17.7042466 C235.834792,17.6971779 235.515142,17.734697 235.205,17.8157534 C234.983728,17.8639586 234.779691,17.9726332 234.615,18.13 C234.47296,18.2777042 234.405449,18.4832013 234.431768,18.6877413 C234.458086,18.8922813 234.575337,19.0733488 234.75,19.1791781 C235.085513,19.3755423 235.455896,19.5029909 235.84,19.5542466 L238.025,19.990137 C239.006701,20.1135104 239.927801,20.5379275 240.665,21.2065753 C241.223718,21.7962237 241.524684,22.589089 241.5,23.4063014 C241.518328,24.5826913 240.979099,25.6966556 240.05,26.4017808 C239.08,27.1789498 237.683333,27.5675342 235.86,27.5675342 C234.713136,27.5807124 233.573827,27.3779147 232.5,26.9694521 Z" id="Path" fill="#333333" fill-rule="nonzero"></path>
                <polygon id="Path" fill="#333333" fill-rule="nonzero" points="254.925 24.0905479 262.87 24.0905479 262.87 27.3242466 250.8 27.3242466 250.8 11.2672603 254.925 11.2672603"></polygon>
                <path d="M271.185,18.2465753 C270.856756,17.9013393 270.397452,17.7165789 269.925,17.739726 C269.430667,17.7187871 268.944011,17.8689287 268.545,18.1654795 C268.14097,18.5289619 267.874085,19.0234608 267.79,19.5643836 L264.335,18.7534247 C264.526778,17.6002958 265.182307,16.5796693 266.145,15.9353425 C267.3477,15.1980228 268.741509,14.8447973 270.145,14.9216438 C271.905,14.9216438 273.27,15.3186758 274.24,16.1127397 C275.229404,16.961254 275.766671,18.2326752 275.69,19.5441096 L275.69,23.9942466 C275.69,24.6278082 275.97,24.9471233 276.53,24.9471233 C276.765722,24.9546165 277.000924,24.920311 277.225,24.8457534 L277,27.2026027 C276.448181,27.4441554 275.850812,27.5600754 275.25,27.5421918 C274.420865,27.5949206 273.599305,27.3549268 272.925,26.8630137 C272.327341,26.3424338 272.006781,25.5666847 272.06,24.769726 L272.06,24.6227397 L272.515,24.4554795 C272.529799,25.0762202 272.321941,25.6813253 271.93,26.1584932 C271.510308,26.6461043 270.972704,27.0146567 270.37,27.2279452 C269.705325,27.4740089 269.002597,27.5975981 268.295,27.5928767 C267.24229,27.6520351 266.200809,27.3483512 265.34,26.7312329 C264.606497,26.1235377 264.204875,25.1961991 264.26,24.2375342 C264.227276,23.4295529 264.513356,22.6416311 265.055,22.0479452 C265.725823,21.3943319 266.580022,20.9675794 267.5,20.8264384 L272.035,19.8786301 L272.035,22.0682192 L269.73,22.5750685 C269.341751,22.6434297 268.97306,22.7974251 268.65,23.0261644 C268.42107,23.2319045 268.297645,23.5325566 268.315,23.8421918 C268.294483,24.1535218 268.42976,24.4544472 268.675,24.6430137 C268.950048,24.832177 269.277942,24.9263826 269.61,24.9116438 C269.954943,24.9129996 270.296088,24.8386487 270.61,24.6936986 C270.92424,24.5435779 271.187127,24.301797 271.365,23.9993151 C271.566009,23.6490294 271.666453,23.2487719 271.655,22.8436986 L271.655,19.61 C271.68306,19.110303 271.513974,18.6198004 271.185,18.2465753 L271.185,18.2465753 Z" id="Path" fill="#333333" fill-rule="nonzero"></path>
                <path d="M286.555,27.5675342 C285.834774,27.5792809 285.124784,27.3936607 284.5,27.030274 C283.887547,26.6739217 283.37209,26.168821 283,25.560411 C282.607571,24.9114288 282.353775,24.1862302 282.255,23.4316438 L282.64,22.9247945 L282.425,27.3293151 L278.85,27.3293151 L278.85,10.000137 L282.93,10.000137 L282.93,18.9815068 L282.545,18.3935616 C282.741452,17.4417878 283.217283,16.5724981 283.91,15.899863 C284.676682,15.217116 285.675796,14.8643632 286.695,14.9165753 C287.585193,14.9011504 288.458346,15.1649144 289.195,15.6717808 C289.957106,16.216013 290.548916,16.9707469 290.9,17.8461644 C291.330636,18.9395041 291.534866,20.1109361 291.5,21.2876712 C291.530823,22.4467682 291.317763,23.599228 290.875,24.6683562 C290.514963,25.5387894 289.916317,26.2863538 289.15,26.8224658 C288.37774,27.3277896 287.473969,27.5872776 286.555,27.5675342 Z M285.14,24.5264384 C285.786964,24.5507665 286.405526,24.2561355 286.8,23.7357534 C287.25376,22.9893342 287.462096,22.1161793 287.395,21.2420548 C287.461022,20.3696217 287.252726,19.4984103 286.8,18.7534247 C286.405526,18.2330425 285.786964,17.9384116 285.14,17.9627397 C284.710707,17.9498834 284.290825,18.0917613 283.955,18.3631507 C283.604924,18.661755 283.343544,19.0530556 283.2,19.4934247 C282.847553,20.6490901 282.847553,21.8857044 283.2,23.0413699 C283.341333,23.4798004 283.607512,23.8660207 283.965,24.1513699 C284.306233,24.4021428 284.71859,24.5337702 285.14,24.5264384 Z" id="Shape" fill="#333333" fill-rule="nonzero"></path>
                <path d="M9.13,2.26561644 L10.43,1.29246575 C10.7753538,1.02882108 11.2560253,1.04788762 11.58,1.33808219 L18,7.01986301 C18.1937254,7.19305316 18.304706,7.4422707 18.304706,7.70410959 C18.304706,7.96594848 18.1937254,8.21516602 18,8.38835616 L9.85,15.9454795" id="Path" stroke="#000000" stroke-width="0.5"></path>
                <polyline id="Path" stroke="#000000" stroke-width="0.5" points="7.165 8.78369863 7.51 12.2150685 5.225 22.8082192 3.97 21.8857534 2.715 22.8082192 0.43 12.2150685 0.78 8.78369863"></polyline>
                <polyline id="Path" stroke="#000000" stroke-width="0.5" stroke-linejoin="bevel" points="9.43 21.2572603 7.185 18.4493151 8.46 17.2734247"></polyline>
                <polyline id="Path" stroke="#000000" stroke-width="0.5" stroke-linejoin="bevel" points="9.89 15.9505479 11.6 14.3691781 13.405 16.65 11.43 23.7560274 9.78 21.6982192"></polyline>
                <polyline id="Path" stroke="#000000" stroke-width="0.5" stroke-linejoin="round" points="9.795 15.4943836 10.775 20.4108219 9.255 22.3824658 9.58 20.2587671 8.16 16.4776712"></polyline>
                <path d="M7.5,17.1061644 C7.5,17.1061644 8.87,15.5856164 9.785,15.4943836 C10.7,15.4031507 8.205,13.7660274 8.985,13.0767123 C12.64,9.85315068 10.765,7.44561644 10.765,7.44561644 L7.265,9.71630137 L7.515,12.2150685 L7.5,17.1061644 Z" id="Path" stroke="#000000" stroke-width="0.5"></path>
                <path d="M10.775,7.44561644 L3.97,9.97986301 L3.97,0.532191781 C3.97,0.532191781 10.89,-0.339589041 10.775,7.44561644 Z" id="Path" stroke="#000000" stroke-width="0.5"></path>
            </g>
            <g id="Group" transform="translate(2.500000, 0.000000)" stroke="#000000" stroke-width="0.5">
                <path d="M18.01,17.1061644 L16.41,19.630274" id="Path"></path>
                <polyline id="Path" points="14.91 32.8489041 27.97 29.8635616 29.685 33.5432877 27.97 35.4084932 14.475 36.8986301"></polyline>
                <polygon id="Path" points="23.15 13.3858904 25.45 16.0417808 27.165 22.6663014 30.96 27.6841096 27.97 29.8635616 23.905 24.3946575 23.905 16.65 22.095 14.3590411"></polygon>
                <polyline id="Path" points="15.5 25.3171233 21.93 23.7560274 24.215 29.1489041 23.47 30.8924658 14.91 32.8489041"></polyline>
                <polygon id="Path" stroke-linejoin="bevel" points="17.84 36.5235616 14.475 36.8986301 14.475 32.3015068"></polygon>
                <polygon id="Path" stroke-linejoin="bevel" points="23.905 24.3946575 22.63 21.2369863 23.905 16.65 27.165 22.6663014"></polygon>
                <polyline id="Path" stroke-linecap="round" stroke-linejoin="bevel" points="15.445 25.9253425 24.245 29.1489041 14.475 30.6643836"></polyline>
                <path d="M27.97,29.8635616 L29.685,26.3308219" id="Path" stroke-linecap="square" stroke-linejoin="bevel"></path>
                <polygon id="Path" points="15.735 29.4834247 13.215 29.4834247 13.67 27.8716438 13.215 22.8082192 14.47 21.8857534 15.725 22.8082192 15.275 27.8716438"></polygon>
                <polygon id="Path" stroke-linecap="square" stroke-linejoin="bevel" points="27.97 35.4084932 16.14 32.570137 29.685 33.5432877"></polygon>
                <path d="M21.39,7.6939726 L28.905,7.6939726" id="Path" stroke-linejoin="bevel"></path>
                <path d="M14.47,9.96465753 L19.63,2.26561644" id="Path" stroke-linejoin="bevel"></path>
                <polyline id="Path" points="6.84 14.3691781 5.035 16.65 7.01 23.7560274 13.44 25.3171233"></polyline>
                <path d="M9.985,17.2683562 L12.53,19.630274" id="Path"></path>
                <path d="M9.31,2.26561644 L8,1.29246575 C7.6546462,1.02882108 7.1739747,1.04788762 6.85,1.33808219 L0.425,7.01986301 C0.231274607,7.19305316 0.120294045,7.4422707 0.120294045,7.70410959 C0.120294045,7.96594848 0.231274607,8.21516602 0.425,8.38835616 L8.555,15.9454795" id="Path"></path>
                <polyline id="Path" stroke-linejoin="bevel" points="9.015 21.2572603 11.26 18.4493151 9.98 17.2734247"></polyline>
                <polyline id="Path" stroke-linejoin="bevel" points="8.55 15.9505479 6.84 14.3691781 5.035 16.65 7.01 23.7560274 8.66 21.6982192"></polyline>
                <polyline id="Path" stroke-linejoin="round" points="8.645 15.4943836 7.665 20.4108219 8.66 21.6982192 9.185 22.3824658 9.015 21.2572603 8.86 20.2587671 10.28 16.4776712"></polyline>
                <path d="M10.93,17.1061644 C10.93,17.1061644 9.56,15.5856164 8.645,15.4943836 C7.73,15.4031507 10.225,13.7660274 9.445,13.0767123 C5.79,9.85315068 7.665,7.44561644 7.665,7.44561644 L11.165,9.71630137 L10.91,12.2150685 L10.93,17.1061644 Z" id="Path"></path>
                <path d="M7.665,7.44561644 L14.47,9.97986301 L14.47,0.532191781 C14.47,0.532191781 7.555,-0.339589041 7.665,7.44561644 Z" id="Path"></path>
            </g>
            <g id="Group" transform="translate(0.000000, 2.027397)" stroke="#000000" stroke-width="0.5">
                <path d="M13.43,15.0787671 L15.03,17.6028767" id="Path"></path>
                <polyline id="Path" points="16.53 30.8215068 3.47 27.8361644 1.755 31.5158904 3.47 33.3810959 16.97 34.8712329"></polyline>
                <polygon id="Path" points="8.295 11.3584932 5.99 14.0143836 4.28 20.6389041 0.485 25.6567123 3.47 27.8361644 7.535 22.3672603 7.535 14.6226027 9.345 12.3316438"></polygon>
                <polyline id="Path" points="15.94 23.289726 9.51 21.7286301 7.225 27.1215068 7.97 28.8650685 16.53 30.8215068"></polyline>
                <polygon id="Path" stroke-linejoin="bevel" points="13.6 34.4961644 16.97 34.8712329 16.965 30.2741096"></polygon>
                <polygon id="Path" stroke-linejoin="bevel" points="7.535 22.3672603 8.81 19.209589 7.535 14.6226027 4.28 20.6389041"></polygon>
                <polyline id="Path" stroke-linejoin="round" points="15.995 23.8979452 7.195 27.1215068 16.97 28.6369863"></polyline>
                <path d="M3.47,27.8361644 L1.755,24.3034247" id="Path" stroke-linecap="square" stroke-linejoin="bevel"></path>
                <polygon id="Path" stroke-linecap="square" stroke-linejoin="bevel" points="3.47 33.3810959 15.3 30.5427397 1.755 31.5158904"></polygon>
                <path d="M10.05,5.66657534 L2.54,5.66657534" id="Path" stroke-linejoin="bevel"></path>
                <path d="M16.97,7.93726027 L11.81,0.238219178" id="Path" stroke-linejoin="bevel"></path>
                <path d="M16.97,1.15054795 L16.97,27.4560274" id="Path"></path>
                <path d="M21.455,15.2409589 L18.91,17.6028767" id="Path"></path>
                <polyline id="Path" points="24.6 12.3417808 26.405 14.6226027 24.43 21.7286301 18 23.289726"></polyline>
            </g>
        </g>
    </g>
</svg>