<svg xmlns="http://www.w3.org/2000/svg" width="128" height="128" viewBox="0 0 128 128">
    <defs>
        <linearGradient id="a" x1="24.77%" x2="75.23%" y1="112.07%" y2="-12.046%">
            <stop offset="0%" stop-color="#B6FFEF"/>
            <stop offset="49%" stop-color="#5A94E0"/>
            <stop offset="57%" stop-color="#5A9DE0"/>
            <stop offset="68%" stop-color="#5AA0E0"/>
            <stop offset="93%" stop-color="#0047BF"/>
        </linearGradient>
        <linearGradient id="b" x1="1048.74%" x2="998.279%" y1="-557.635%" y2="-433.519%">
            <stop offset="0%" stop-color="#B6FFEF"/>
            <stop offset="49%" stop-color="#5A94E0"/>
            <stop offset="57%" stop-color="#5A9DE0"/>
            <stop offset="68%" stop-color="#5AA0E0"/>
            <stop offset="93%" stop-color="#0047BF"/>
        </linearGradient>
        <linearGradient id="c" x1="59.413%" x2="39.056%" y1="44.509%" y2="54.983%">
            <stop offset="0%" stop-color="#B6FFEF"/>
            <stop offset="49%" stop-color="#5A94E0"/>
            <stop offset="57%" stop-color="#5A9DE0"/>
            <stop offset="68%" stop-color="#5AA0E0"/>
            <stop offset="93%" stop-color="#0047BF"/>
        </linearGradient>
        <linearGradient id="d" x1="75.23%" x2="24.77%" y1="-12.046%" y2="112.046%">
            <stop offset="0%" stop-color="#B6FFEF"/>
            <stop offset="49%" stop-color="#5A94E0"/>
            <stop offset="57%" stop-color="#5A9DE0"/>
            <stop offset="68%" stop-color="#5AA0E0"/>
            <stop offset="93%" stop-color="#0047BF"/>
        </linearGradient>
        <linearGradient id="e" x1="75.23%" x2="24.77%" y1="-12.07%" y2="112.046%">
            <stop offset="0%" stop-color="#B6FFEF"/>
            <stop offset="49%" stop-color="#5A94E0"/>
            <stop offset="57%" stop-color="#5A9DE0"/>
            <stop offset="68%" stop-color="#5AA0E0"/>
            <stop offset="93%" stop-color="#0047BF"/>
        </linearGradient>
        <linearGradient id="f" x1="60.354%" x2="31.031%" y1="33.594%" y2="64.888%">
            <stop offset="0%" stop-color="#B6FFEF"/>
            <stop offset="49%" stop-color="#5A94E0"/>
            <stop offset="57%" stop-color="#5A9DE0"/>
            <stop offset="68%" stop-color="#5AA0E0"/>
            <stop offset="93%" stop-color="#0047BF"/>
        </linearGradient>
        <linearGradient id="g" x1="63.362%" x2="47.725%" y1="34.443%" y2="52.65%">
            <stop offset="0%" stop-color="#B6FFEF"/>
            <stop offset="49%" stop-color="#5A94E0"/>
            <stop offset="57%" stop-color="#5A9DE0"/>
            <stop offset="68%" stop-color="#5AA0E0"/>
            <stop offset="93%" stop-color="#0047BF"/>
        </linearGradient>
        <linearGradient id="h" x1="72.603%" x2="43.172%" y1="-8.208%" y2="89.072%">
            <stop offset="0%" stop-color="#B6FFEF"/>
            <stop offset="93%" stop-color="#00A3BF"/>
        </linearGradient>
    </defs>
    <g fill="none" fill-rule="evenodd">
        <path fill="#FFF" d="M-765-2957H675v7422H-765z"/>
        <g transform="translate(13 20)">
            <circle cx="95.788" cy="82.9" r="4.801" stroke="url(#a)" stroke-width="11.2"/>
            <circle cx="4.801" cy="81.671" r="4.801" stroke="url(#b)" stroke-width="11.2"/>
            <path fill="url(#c)" fill-rule="nonzero" d="M91.816 40.946H12.083a7.266 7.266 0 0 1-7.256-7.256V21.232h3.258V33.69a4.003 4.003 0 0 0 3.998 3.998h79.733a4.003 4.003 0 0 0 3.998-3.998V21.9h3.258v11.79a7.266 7.266 0 0 1-7.256 7.256z"/>
            <circle cx="6.456" cy="17.098" r="4.801" stroke="url(#d)" stroke-width="11.2"/>
            <circle cx="97.443" cy="18.33" r="4.801" stroke="url(#e)" stroke-width="11.2"/>
            <path fill="url(#f)" fill-rule="nonzero" d="M47.07 59.052H10.428a7.266 7.266 0 0 0-7.257 7.257v11.79H6.43v-11.79a4.003 4.003 0 0 1 3.999-3.999h36.277l.363-3.258z"/>
            <path fill="url(#g)" fill-rule="nonzero" d="M90.16 59.052H55.774l.363 3.258h34.025a4.003 4.003 0 0 1 3.998 3.999v12.458h3.258V66.309a7.266 7.266 0 0 0-7.256-7.257z"/>
            <path fill="url(#h)" fill-rule="nonzero" d="M78.822 29.645h-4.836v-6.447a22.575 22.575 0 1 0-45.132 0v2.328h9.672v-2.328c0-7.122 5.773-12.895 12.895-12.895s12.896 5.773 12.896 12.895v6.447h-40.3a1.61 1.61 0 0 0-1.61 1.613v40.296a6.454 6.454 0 0 0 6.451 6.45h45.128a6.456 6.456 0 0 0 6.45-6.45V31.258a1.613 1.613 0 0 0-1.614-1.613zM56.248 63.318a1.615 1.615 0 0 1-1.604 1.79h-6.446a1.613 1.613 0 0 1-1.604-1.79l1.017-9.144a6.377 6.377 0 0 1-2.639-5.185 6.449 6.449 0 1 1 12.896 0 6.381 6.381 0 0 1-2.637 5.185l1.017 9.144z"/>
        </g>
    </g>
</svg>
