<svg xmlns="http://www.w3.org/2000/svg" width="128" height="128" viewBox="0 0 128 128">
    <defs>
        <linearGradient id="a" x1="70.159%" x2="40.751%" y1="-69.154%" y2="112.866%">
            <stop offset="0%" stop-color="#B6FFEF"/>
            <stop offset="93%" stop-color="#00A3BF"/>
        </linearGradient>
        <linearGradient id="b" x1=".001%" y1="50.002%" y2="50.002%">
            <stop offset="10%" stop-color="#FEC28B"/>
            <stop offset="97%" stop-color="#FF7D3F"/>
        </linearGradient>
        <linearGradient id="c" x1="63.381%" x2="44.065%" y1="-2.614%" y2="73.065%">
            <stop offset="10%" stop-color="#FEC28B"/>
            <stop offset="97%" stop-color="#FF7D3F"/>
        </linearGradient>
        <linearGradient id="d" x1="53.955%" x2="-10.505%" y1="49.35%" y2="59.949%">
            <stop offset="0%" stop-color="#B6FFEF"/>
            <stop offset="49%" stop-color="#5A94E0"/>
            <stop offset="57%" stop-color="#5A9DE0"/>
            <stop offset="68%" stop-color="#5AA0E0"/>
            <stop offset="93%" stop-color="#0047BF"/>
        </linearGradient>
        <linearGradient id="e" x1="74.158%" x2="26.252%" y1="1.948%" y2="97.235%">
            <stop offset="0%" stop-color="#B6FFEF"/>
            <stop offset="49%" stop-color="#5A94E0"/>
            <stop offset="57%" stop-color="#5A9DE0"/>
            <stop offset="68%" stop-color="#5AA0E0"/>
            <stop offset="93%" stop-color="#0047BF"/>
        </linearGradient>
    </defs>
    <g fill="none" fill-rule="evenodd">
        <path fill="#FFF" d="M-765-3287H675v7422H-765z"/>
        <g transform="translate(21 13)">
            <path fill="#EEB27E" fill-rule="nonzero" d="M42.322 48.553c9.338-1.461 8.028-5.739 8.028-5.739s-3.12-2.063-3.728-5.99c-.472-3.07.805-6.594.805-6.594l-5.11.304h.12l-5.108-.304s1.277 3.525.805 6.594c-.604 3.927-3.728 5.99-3.728 5.99s-1.31 4.278 8.028 5.739h-.112z"/>
            <path fill="#F1C49D" fill-rule="nonzero" d="M53.541 15.609c0 6.004-5.132 18.039-11.137 18.039-6.005 0-10.608-12.025-10.608-18.04C31.886 9.669 36.727 4.9 42.67 4.9c5.941 0 10.782 4.769 10.872 10.71z"/>
            <path fill="url(#a)" fill-rule="nonzero" d="M42.441 10.7c3.512 0 4.536-1.071 6.229-.226 3.02 1.51 3.06 5.353 3.02 8.719-.04 3.365-.125 3.825.529 2.681 1.285-2.237 2.503-4.68 2.264-11.023 0 0-.678-10.759-12.042-10.759-11.363 0-12.042 10.76-12.042 10.76-.248 6.342.98 8.775 2.265 11.022.653 1.144.566.681.529-2.681-.037-3.363 0-7.208 3.02-8.72 1.692-.844 2.719.227 6.228.227z"/>
            <path fill="url(#b)" fill-rule="nonzero" d="M42.382 45.732c-4.345 0-6.525-4.225-6.525-4.225S21.53 44.825 19.312 48.55c-2.217 3.725-9.26 17.012-7.65 45.702l57.885-.8-.758-9.522 5.792 1.367s2.415-.497 0-13.287c-1.934-10.228-5.615-22.15-6.241-23.456-1.31-2.719-10.168-4.722-13.188-5.537a23.08 23.08 0 0 1-5.237-2.115s-1.377 4.829-7.533 4.829z"/>
            <path stroke="#043059" stroke-linecap="round" stroke-width="1.768" d="M52.671 24.668c-.964 2.466-3.131 6.532-9.134 5.965"/>
            <circle cx="43.537" cy="30.633" r="1.397" fill="#043059" fill-rule="nonzero"/>
            <path fill="#EEB27E" fill-rule="nonzero" d="M52.482 54.038s-3.827-6.71-3.499-11.363c.328-4.653 2.321-5.398 1.74-8.267-.582-2.868-2.14-6.606-1.21-7.908.929-1.303 5.689 3.454 5.915 6.022.226 2.567-1.149 6.944-.915 9.512.234 2.567 2.801 8.45 2.801 8.45l-4.832 3.554z"/>
            <path fill="url(#c)" fill-rule="nonzero" d="M68.35 48.553c4.528 6.644 8.45 25.267 8.052 30.904-.397 5.637-.805 7.55-2.115 7.854-1.31.303-12.676-7.752-16.811-17.517-4.136-9.766-7.954-19.732-7.954-19.732l7.25-3.624s3.825 7.456 7.248 12.283c3.422 4.827 7.55 9.865 8.45 13.188.9 3.323 2.317 8.756 2.518 10.468.201 1.713-.303-12.283-2.518-19.227-2.214-6.944-4.12-14.597-4.12-14.597z"/>
            <rect width="85.129" height="10.973" x=".206" y="91.337" fill="url(#d)" fill-rule="nonzero" rx="5.487"/>
            <rect width="44.81" height="30.302" x="20.207" y="61.035" fill="url(#e)" fill-rule="nonzero" rx="5.496"/>
            <path stroke="#000" stroke-width="4" d="M29.577 17.1c1.016-7.121 6.365-12.552 12.81-12.552 6.273 0 11.507 5.145 12.718 11.988"/>
            <path fill="#000" fill-rule="nonzero" d="M33.28 26.008a3.303 3.303 0 0 1-3.977-2.463l-1.006-4.3a3.3 3.3 0 0 1 2.463-3.977 1.111 1.111 0 0 1 1.337.83l2.006 8.565a1.111 1.111 0 0 1-.823 1.345zM51.963 26.008a3.306 3.306 0 0 0 3.977-2.463l1.006-4.3a3.303 3.303 0 0 0-2.463-3.977 1.113 1.113 0 0 0-1.34.83l-2.005 8.565a1.113 1.113 0 0 0 .825 1.345z"/>
        </g>
    </g>
</svg>
