<svg xmlns="http://www.w3.org/2000/svg" width="128" height="128" viewBox="0 0 128 128">
    <defs>
        <linearGradient id="a" x1="50%" x2="50%" y1="0%" y2="103.518%">
            <stop offset="0%" stop-color="#CDDEEF"/>
            <stop offset="100%" stop-color="#FEFFFF"/>
        </linearGradient>
        <linearGradient id="b" x1="49.999%" x2="49.999%" y1="-67.999%" y2="135.915%">
            <stop offset="0%" stop-color="#B6FFEF"/>
            <stop offset="49%" stop-color="#5A94E0"/>
            <stop offset="57%" stop-color="#5A9DE0"/>
            <stop offset="68%" stop-color="#5AA0E0"/>
            <stop offset="93%" stop-color="#0047BF"/>
        </linearGradient>
        <linearGradient id="c" x1="0%" y1="50%" y2="50%">
            <stop offset="10%" stop-color="#FEC28B"/>
            <stop offset="97%" stop-color="#FF7D3F"/>
        </linearGradient>
        <linearGradient id="d" x1="49.996%" x2="49.996%" y1="578.188%" y2="-68.006%">
            <stop offset="0%" stop-color="#B6FFEF"/>
            <stop offset="49%" stop-color="#5A94E0"/>
            <stop offset="57%" stop-color="#5A9DE0"/>
            <stop offset="68%" stop-color="#5AA0E0"/>
            <stop offset="93%" stop-color="#0047BF"/>
        </linearGradient>
        <linearGradient id="e" x1="50%" x2="50%" y1="793.028%" y2="146.617%">
            <stop offset="0%" stop-color="#B6FFEF"/>
            <stop offset="56%" stop-color="#5A94E0"/>
            <stop offset="81%" stop-color="#5AA0E0"/>
            <stop offset="97%" stop-color="#528AE0"/>
        </linearGradient>
    </defs>
    <g fill="none" fill-rule="evenodd">
        <path fill="#FFF" d="M-1049-2957H391v7422h-1440z"/>
        <path fill="url(#a)" d="M1143 1579l1246.859 861.795c42.706 29.518 53.398 88.067 23.88 130.773a94 94 0 0 1-35.53 30.75l-854.242 424.051c-49.468 24.557-109.478 4.361-134.034-45.108a100 100 0 0 1-8.964-27.408L1143 1579z" transform="matrix(-1 0 0 1 2615 -2957)"/>
        <g fill-rule="nonzero" transform="translate(6 19)">
            <rect width="114.941" height="80.262" x=".259" y=".239" fill="url(#b)" rx="4.5"/>
            <rect width="105.46" height="65.868" x="4.8" y="5.69" fill="url(#c)" rx="4.5"/>
            <rect width="9.161" height="1.745" x="25.777" y="75.485" fill="#D4F8F5" rx=".873"/>
            <rect width="1.745" height="1.745" x="22.287" y="75.485" fill="#D4F8F5" rx=".873"/>
            <rect width="36.867" height="6.228" x="36.544" y="84.759" fill="url(#d)" rx="3.114"/>
            <path fill="url(#e)" d="M47.479 80.5h16.588v4.256H47.479z"/>
            <path fill="#FFF" d="M34.618 17.524c-9.413 0-17.044 7.631-17.044 17.045 0 9.413 7.63 17.044 17.044 17.044 9.414 0 17.045-7.63 17.045-17.044a17.044 17.044 0 0 0-17.045-17.045zm0 1.624a15.398 15.398 0 0 1 12.594 6.548l-2.037 2.036a3.2 3.2 0 0 0-1.638-.462 3.247 3.247 0 0 0-3.246 3.246 3.2 3.2 0 0 0 .462 1.638L35.44 37.47a3.148 3.148 0 0 0-3.279 0l-3.692-3.692a3.2 3.2 0 0 0 .46-1.637 3.24 3.24 0 0 0-6.377-.812h-3.008a15.436 15.436 0 0 1 15.075-12.18zM45.17 30.51a1.623 1.623 0 1 1-1.623-1.624 1.623 1.623 0 0 1 1.618 1.624h.005zm-9.74 9.74a1.623 1.623 0 1 1-1.622-1.624 1.623 1.623 0 0 1 1.617 1.623h.006zm-8.116-8.117a1.623 1.623 0 1 1-1.623-1.623 1.623 1.623 0 0 1 1.618 1.623h.005zm14.799 15.918a15.418 15.418 0 0 1-22.828-15.107h3.276a3.247 3.247 0 0 0 3.13 2.435 3.2 3.2 0 0 0 1.638-.46l3.692 3.692a3.2 3.2 0 0 0-.46 1.638 3.247 3.247 0 1 0 6.493 0 3.2 3.2 0 0 0-.46-1.638l5.298-5.315a3.226 3.226 0 0 0 4.425-4.427l1.768-1.769c4.128 7.437 1.453 16.812-5.978 20.951h.006z"/>
            <path fill="#FFF" d="M54.903 22.4a3.25 3.25 0 0 0 3.133-2.435h4.987v-1.638h-4.987a3.24 3.24 0 0 0-6.38.812 3.2 3.2 0 0 0 .463 1.638l-1.428 1.425c-6.695-8.724-19.12-10.528-28.019-4.067-8.898 6.46-11.031 18.834-4.81 27.9 6.223 9.068 18.535 11.528 27.764 5.549l2.45 2.45 1.146 1.149 6.534 6.533a4.256 4.256 0 1 0 6.019-6.019l-6.534-6.533-1.15-1.15-2.449-2.449a20.221 20.221 0 0 0 0-22.025l1.623-1.623a3.2 3.2 0 0 0 1.638.483zm0-4.87a1.623 1.623 0 1 1-1.623 1.623 1.62 1.62 0 0 1 1.623-1.629v.006zm5.722 39.328a2.633 2.633 0 1 1-3.68 3.767l-.04-.043-6.534-6.534 3.72-3.72 6.534 6.53zm-7.68-7.68l-3.723 3.72-2.246-2.245c.113-.087.221-.183.335-.273.113-.09.244-.198.363-.291.178-.149.355-.291.527-.457l.259-.241c.334-.312.654-.635.965-.97.082-.084.163-.168.245-.258.154-.172.305-.346.457-.524.101-.122.2-.241.29-.366.09-.125.187-.218.274-.332l2.254 2.237zm-3.147-3.782c-.256.36-.522.707-.797 1.045-.082.099-.169.192-.253.29-.248.292-.504.582-.768.841-.117.12-.233.239-.352.352-.27.265-.55.521-.841.771-.096.082-.192.169-.291.25-.337.28-.686.545-1.044.798-7.915 5.649-18.838 4.285-25.12-3.136-6.283-7.422-5.825-18.42 1.052-25.294 6.878-6.873 17.878-7.324 25.295-1.036 7.417 6.287 8.773 17.212 3.119 25.122v-.003zM76.928 19.148h15.296v1.623H76.928zM76.928 24.605h25.687v1.623H76.928zM76.928 28.887h25.687v1.623H76.928zM76.928 33.167h25.687v1.623H76.928zM76.928 37.449h25.687v1.623H76.928z"/>
        </g>
    </g>
</svg>
