<svg xmlns="http://www.w3.org/2000/svg" width="56" height="56" viewBox="0 0 56 56">
    <defs>
        <radialGradient id="a" cx="80.456%" cy="15.969%" r="130.703%" fx="80.456%" fy="15.969%">
            <stop offset="0%" stop-color="#F5A3CC"/>
            <stop offset="100%" stop-color="#D65EE1"/>
        </radialGradient>
    </defs>
    <g fill="none" fill-rule="nonzero">
        <circle cx="28" cy="28" r="28" fill="url(#a)"/>
        <g fill="#FFF">
            <path d="M10.8 42.8c-.1 0-.1-.1-.2-.1-.1-.1-.1-.2-.2-.2.1.1.3.2.4.3zM18.4 27c0 .9.1 1.8.3 2.7l-3.1 1.5-7.1-3.8c-.6-.3-.8-1-.4-1.6l6.8-10.9c.4-.6 1.2-.6 1.5 0l3.6 5.8c-1 2-1.6 4.1-1.6 6.3zM21.3 35.1L16.4 43c-.4.6-1.2.6-1.5 0L7.4 31c-.2-.3.2-.7.5-.5l7.7 4.1 4.1-2.1c.4 1 1 1.8 1.6 2.6zM42.2 27c0 6-4.9 10.9-10.9 10.9S20.4 33 20.4 27s4.9-10.9 10.9-10.9c3.3 0 6.2 1.5 8.2 3.8l-9 8.4-2.3-2.3c-.3-.3-.8-.5-1.2-.5-.4 0-.9.2-1.2.5-.6.7-.6 1.7 0 2.4l3.5 3.5c.6.6 1.7.6 2.3 0l9.3-9.9c.9 1.4 1.3 3.2 1.3 5z"/>
            <path d="M31.4 44.3c-3.1 0-6.1-.8-8.7-2.4-.7-.4-1-1.3-.5-2.1s1.3-1 2.1-.5c2.2 1.3 4.7 2 7.2 2 7.9 0 14.3-6.4 14.3-14.3s-6.4-14.3-14.3-14.3c-3.3 0-6.3 1.1-8.9 3.1-.7.5-1.6.4-2.1-.2-.5-.7-.4-1.6.2-2.1 3.1-2.4 6.8-3.7 10.7-3.7 9.6 0 17.3 7.8 17.3 17.3s-7.8 17.2-17.3 17.2z"/>
        </g>
    </g>
</svg>
