<svg xmlns="http://www.w3.org/2000/svg" xmlns:xlink="http://www.w3.org/1999/xlink" width="64" height="64" viewBox="0 0 64 64">
    <defs>
        <rect id="b" width="1040" height="364" rx="8"/>
        <filter id="a" width="110%" height="128.6%" x="-5%" y="-13.7%" filterUnits="objectBoundingBox">
            <feOffset dy="2" in="SourceAlpha" result="shadowOffsetOuter1"/>
            <feGaussianBlur in="shadowOffsetOuter1" result="shadowBlurOuter1" stdDeviation="17"/>
            <feColorMatrix in="shadowBlurOuter1" values="0 0 0 0 0 0 0 0 0 0 0 0 0 0 0 0 0 0 0.08 0"/>
        </filter>
        <radialGradient id="c" cx="80.515%" cy="16.007%" r="129.487%" fx="80.515%" fy="16.007%">
            <stop offset="0%" stop-color="#8F76ED"/>
            <stop offset="100%" stop-color="#493DC3"/>
        </radialGradient>
    </defs>
    <g fill="none" fill-rule="evenodd">
        <path fill="#FFF" d="M-557-2027H883v7958H-557z"/>
        <g transform="translate(-357 -186)">
            <use fill="#000" filter="url(#a)" xlink:href="#b"/>
            <use fill="#FFF" xlink:href="#b"/>
        </g>
        <g fill-rule="nonzero" transform="translate(4 4)">
            <path fill="#FFF" d="M13.4 42.8c-.1 0-.1-.1-.2-.1-.1-.1-.1-.2-.2-.2.2.1.3.2.4.3z"/>
            <circle cx="28.9" cy="28" r="28" fill="url(#c)"/>
            <path fill="#FFFFFD" d="M50.6 33.6c.1.9-.6 1.6-1.5 1.6-.8 0-1.4-.6-1.5-1.4l-.1-1.5c-.1-1.2-1.6-1.8-2.5-.9-5.1 5.5-10.7 8.6-16.8 9.1-10.4.9-16.9-3.4-18.9-5.1-.4-.3-.5-.9-.2-1.4.3-.5.9-.6 1.4-.3 2.3 1.5 8.9 5.5 15.9 4.2 5.9-1.1 10.9-5.5 15.7-11.8.4-.5 0-1.3-.7-1.2l-3.2.5c-.8.1-1.6-.4-1.7-1.2-.1-.8.4-1.6 1.2-1.7l10.4-1.7c.4-.1.9 0 1.2.3.3.3.5.7.6 1.1l.7 11.4z"/>
            <path fill="#FFF" d="M21.1 23.6v12c-3-.3-5.9-1.3-7.9-2.2v-9.8c0-.5.4-.8.8-.8h6.2c.5 0 .9.4.9.8zM32.2 18v14.2c-2 1.7-4.1 2.9-6.3 3.3-.5.1-1.1.2-1.6.2V18c0-.5.4-.8.8-.8h6.2c.5 0 .9.4.9.8z"/>
        </g>
    </g>
</svg>
