<svg xmlns="http://www.w3.org/2000/svg" width="32" height="32" viewBox="0 0 32 32">
    <g fill="none" fill-rule="evenodd">
        <path d="M-8-8h48v48H-8z"/>
        <path fill="#DADFE2" d="M16 0c8.837 0 16 7.163 16 16s-7.163 16-16 16S0 24.837 0 16 7.163 0 16 0zm6.747 9.72L7.335 15.664c-1.052.422-1.046 1.01-.192 1.27l3.955 1.235 9.157-5.776c.432-.263.829-.122.503.167l-7.42 6.695-.271 4.08c.4 0 .576-.184.8-.4l1.92-1.87 4 2.955c.735.406 1.267.195 1.45-.684l2.624-12.368c.27-1.077-.41-1.566-1.114-1.246z"/>
    </g>
</svg>
