<svg xmlns="http://www.w3.org/2000/svg" width="32" height="32" viewBox="0 0 32 32">
    <g fill="none" fill-rule="evenodd">
        <path fill="#DADFE2" d="M16 0C7.165 0 0 7.168 0 16.011c0 7.075 4.585 13.076 10.942 15.193.8.149 1.093-.347 1.093-.77 0-.382-.015-1.643-.022-2.98-4.45.968-5.39-1.89-5.39-1.89-.728-1.85-1.777-2.343-1.777-2.343-1.451-.993.11-.973.11-.973 1.606.113 2.452 1.65 2.452 1.65 1.427 2.448 3.743 1.74 4.656 1.33.144-1.034.559-1.74 1.016-2.14-3.554-.405-7.29-1.778-7.29-7.913 0-1.748.626-3.176 1.65-4.298-.167-.403-.715-2.032.154-4.237 0 0 1.344-.43 4.401 1.641A15.326 15.326 0 0 1 16 7.742c1.36.007 2.73.184 4.008.54 3.054-2.072 4.396-1.642 4.396-1.642.87 2.205.323 3.834.157 4.237 1.026 1.122 1.647 2.55 1.647 4.298 0 6.15-3.743 7.504-7.306 7.9.574.497 1.085 1.471 1.085 2.965 0 2.142-.019 3.867-.019 4.394 0 .426.288.926 1.1.768C27.42 29.082 32 23.083 32 16.012 32 7.167 24.836 0 16 0"/>
        <path fill="#FFFFFE" d="M6.487 23.326c-.07.159-.32.206-.547.097-.232-.104-.362-.32-.287-.48.07-.163.32-.208.55-.1.233.105.365.323.284.483M7.24 24.182c-.153.141-.45.075-.652-.148-.21-.223-.248-.52-.094-.664.157-.14.446-.075.655.148.21.225.25.52.09.664M7.772 25.336c-.196.126-.516.008-.714-.256-.195-.264-.195-.581.004-.708s.514-.013.715.25c.195.267.195.585-.005.714"/>
        <path fill="#FFFFFE" d="M8.658 26.049c-.157.176-.49.128-.733-.112-.249-.234-.318-.567-.162-.743.159-.177.493-.127.738.111.248.234.323.57.157.744M9.76 26.554c-.061.25-.345.364-.631.257-.285-.11-.472-.402-.415-.655.06-.252.345-.37.633-.257.285.11.472.4.413.655M11.05 26.578c.008.264-.23.482-.526.486-.297.01-.537-.204-.54-.463 0-.266.233-.482.53-.489.295-.007.537.204.537.466M12.327 26.221c.035.257-.17.521-.465.591-.29.068-.557-.09-.594-.345-.036-.264.174-.528.463-.596.294-.066.558.089.596.35"/>
    </g>
</svg>
