<?xml version="1.0" encoding="UTF-8"?>
<svg width="66px" height="66px" viewBox="0 0 66 66" version="1.1" xmlns="http://www.w3.org/2000/svg" xmlns:xlink="http://www.w3.org/1999/xlink">
    <!-- Generator: Sketch 58 (84663) - https://sketch.com -->
    <title>Scroll Down@3x</title>
    <desc>Created with Sketch.</desc>
    <defs>
        <path d="M16.7071068,5.70710678 C17.0976311,5.31658249 17.0976311,4.68341751 16.7071068,4.29289322 C16.3165825,3.90236893 15.6834175,3.90236893 15.2928932,4.29289322 L8.29289322,11.2928932 C7.90236893,11.6834175 7.90236893,12.3165825 8.29289322,12.7071068 L15.2928932,19.7071068 C15.6834175,20.0976311 16.3165825,20.0976311 16.7071068,19.7071068 C17.0976311,19.3165825 17.0976311,18.6834175 16.7071068,18.2928932 L10.4142136,12 L16.7071068,5.70710678 Z" id="path-1"></path>
    </defs>
    <g id="Page-1" stroke="none" stroke-width="1" fill="none" fill-rule="evenodd">
        <g id="Artboard" transform="translate(-43.000000, -46.000000)">
            <g id="Scroll-Down" transform="translate(44.000000, 47.000000)">
                <circle id="Oval" stroke="#C3D0E9" cx="32" cy="32" r="32"></circle>
                <circle id="Oval" fill="#E7EDF9" cx="32" cy="32" r="24"></circle>
                <g id="Icon-/-Chevron-Down" transform="translate(20.000000, 20.000000)">
                    <mask id="mask-2" fill="white">
                        <use xlink:href="#path-1"></use>
                    </mask>
                    <use id="Mask" fill="#1F5E98" fill-rule="nonzero" transform="translate(12.500000, 12.000000) scale(-1, 1) rotate(-90.000000) translate(-12.500000, -12.000000) " xlink:href="#path-1"></use>
                </g>
            </g>
        </g>
    </g>
</svg>