<?xml version="1.0" encoding="UTF-8"?>
<svg width="48px" height="48px" viewBox="0 0 48 48" version="1.1" xmlns="http://www.w3.org/2000/svg" xmlns:xlink="http://www.w3.org/1999/xlink">
    <!-- Generator: Sketch 58 (84663) - https://sketch.com -->
    <title>Next@3x</title>
    <desc>Created with Sketch.</desc>
    <defs>
        <circle id="path-1" cx="16" cy="16" r="16"></circle>
        <filter x="-40.6%" y="-34.4%" width="181.2%" height="181.2%" filterUnits="objectBoundingBox" id="filter-2">
            <feOffset dx="0" dy="2" in="SourceAlpha" result="shadowOffsetOuter1"></feOffset>
            <feGaussianBlur stdDeviation="4" in="shadowOffsetOuter1" result="shadowBlurOuter1"></feGaussianBlur>
            <feColorMatrix values="0 0 0 0 0   0 0 0 0 0   0 0 0 0 0  0 0 0 0.0776879371 0" type="matrix" in="shadowBlurOuter1"></feColorMatrix>
        </filter>
        <path d="M16.7071068,5.70710678 C17.0976311,5.31658249 17.0976311,4.68341751 16.7071068,4.29289322 C16.3165825,3.90236893 15.6834175,3.90236893 15.2928932,4.29289322 L8.29289322,11.2928932 C7.90236893,11.6834175 7.90236893,12.3165825 8.29289322,12.7071068 L15.2928932,19.7071068 C15.6834175,20.0976311 16.3165825,20.0976311 16.7071068,19.7071068 C17.0976311,19.3165825 17.0976311,18.6834175 16.7071068,18.2928932 L10.4142136,12 L16.7071068,5.70710678 Z" id="path-3"></path>
    </defs>
    <g id="Page-1" stroke="none" stroke-width="1" fill="none" fill-rule="evenodd">
        <g id="Artboard" transform="translate(-177.000000, -57.000000)">
            <g id="Next" transform="translate(185.000000, 63.000000)">
                <g id="Oval-Copy">
                    <use fill="black" fill-opacity="1" filter="url(#filter-2)" xlink:href="#path-1"></use>
                    <use fill="#FFFFFF" fill-rule="evenodd" xlink:href="#path-1"></use>
                </g>
                <g id="Icon-/-Chevron-Right" transform="translate(4.000000, 4.000000)">
                    <mask id="mask-4" fill="white">
                        <use xlink:href="#path-3"></use>
                    </mask>
                    <use id="Mask" fill="#1F5E98" fill-rule="nonzero" transform="translate(12.500000, 12.000000) scale(-1, 1) translate(-12.500000, -12.000000) " xlink:href="#path-3"></use>
                </g>
            </g>
        </g>
    </g>
</svg>