<svg xmlns="http://www.w3.org/2000/svg" width="418" height="257" viewBox="0 0 418 257">
    <defs>
        <linearGradient id="a" x1="45.355%" x2="51.964%" y1="28.092%" y2="63.758%">
            <stop offset="0%" stop-color="#E1813F"/>
            <stop offset="41%" stop-color="#EC9541"/>
            <stop offset="95%" stop-color="#F8AB43"/>
        </linearGradient>
        <linearGradient id="b" x1="41.023%" x2="58.976%" y1="28.056%" y2="78.589%">
            <stop offset="0%" stop-color="#E1813F"/>
            <stop offset="41%" stop-color="#EC9541"/>
            <stop offset="95%" stop-color="#F8AB43"/>
        </linearGradient>
    </defs>
    <g fill="none" fill-rule="evenodd">
        <path fill="#F2B368" fill-rule="nonzero" d="M116.697 238l-1.674 2.604s-5.023 0-5.023 1.85c0 1.851 8.187 1.524 8.187 1.524a1.475 1.475 0 0 0 .67-1.95l-.185-2.358-1.975-1.67zM134.697 236l-1.674 2.604s-5.023 0-5.023 1.85c0 1.851 8.187 1.524 8.187 1.524a1.475 1.475 0 0 0 .67-1.95l-.185-2.358-1.975-1.67z"/>
        <path fill="#0C64CD" fill-rule="nonzero" d="M276 171.808V56.475a4.484 4.484 0 0 1 2.22-3.856 4.52 4.52 0 0 1 4.463-.06L400.61 117.69a6.522 6.522 0 0 1 3.39 5.727v114.11a4.483 4.483 0 0 1-2.205 3.844 4.52 4.52 0 0 1-4.445.087l-117.927-63.89a6.522 6.522 0 0 1-3.423-5.76z"/>
        <path fill="#D85252" fill-rule="nonzero" d="M304.362 150.964a6.703 6.703 0 0 1 4.13-1.352 8.87 8.87 0 0 1 2.399.346 13.7 13.7 0 0 1 6.211 4.042c.977-1.21 1.943-2.442 2.898-3.695a18.148 18.148 0 0 0-7.844-4.768 11.864 11.864 0 0 0-10.575 1.781 12.125 12.125 0 0 0-2.581 2.69c1.249.907 2.498 1.798 3.697 2.738a7.617 7.617 0 0 1 1.665-1.782z"/>
        <path fill="#F2B368" fill-rule="nonzero" d="M327 167.412c-.05-6.136-2.324-12.015-6.346-16.412a161.055 161.055 0 0 1-2.654 3.636c2.981 3.51 4.672 8.046 4.76 12.776a15.89 15.89 0 0 1-.199 2.565L326.68 171c.212-1.183.319-2.384.32-3.588z"/>
        <path fill="#8154A8" fill-rule="nonzero" d="M322.495 169.228a9.286 9.286 0 0 1-3.29 6 7.103 7.103 0 0 1-6.38.988c-6.067-1.702-11.23-9.37-11.263-16.748a11.774 11.774 0 0 1 1.858-6.777c-1.184-.924-2.433-1.8-3.65-2.691a16.047 16.047 0 0 0-2.763 9.484c0 9.534 6.462 18.775 14.586 21.077 1.163.306 2.364.454 3.568.438 2.45.016 4.837-.764 6.79-2.221a13.661 13.661 0 0 0 5.049-8.56l-4.505-.99z"/>
        <path fill="#D85252" fill-rule="nonzero" d="M373 191.037c0-9.724-6.397-19.167-14.55-21.499a11.52 11.52 0 0 0-10.415 1.786A12.89 12.89 0 0 0 344 176.75a28.764 28.764 0 0 0 3.871 2.695 8.755 8.755 0 0 1 2.92-4.482 6.526 6.526 0 0 1 4.067-1.356c.8.006 1.595.123 2.362.348 6.086 1.736 11.236 9.559 11.236 17.067a13.778 13.778 0 0 1-.87 4.961c1.378.629 2.74 1.323 4.085 2.018a18.19 18.19 0 0 0 1.328-6.963z"/>
        <path fill="#F2B368" fill-rule="nonzero" d="M367.88 195.655a8.188 8.188 0 0 1-2.715 3.613 7.296 7.296 0 0 1-6.42.972c-4.634-1.274-8.738-5.907-10.475-11.24a30.202 30.202 0 0 0-4.27 1.767c2.234 6.575 7.38 12.052 13.487 13.74 1.173.323 2.387.489 3.608.493 2.465.016 4.867-.75 6.834-2.181a12.51 12.51 0 0 0 4.071-5.19 80.729 80.729 0 0 0-4.12-1.974z"/>
        <path fill="#8154A8" fill-rule="nonzero" d="M347.037 183.844a12.67 12.67 0 0 1 .654-4.175 32.2 32.2 0 0 1-4.29-2.669 16.252 16.252 0 0 0-1.399 6.86 21.318 21.318 0 0 0 1.309 7.14 34.463 34.463 0 0 1 4.689-1.818 16.705 16.705 0 0 1-.963-5.338z"/>
        <g stroke="#FFF" stroke-linecap="round" stroke-linejoin="round" stroke-width=".5" opacity=".66">
            <path d="M285.672 120.634l5.033 2.75"/>
            <path stroke-dasharray="7.382" d="M301.755 129.402l82.887 45.156"/>
            <path d="M390.167 177.584l5.032 2.733"/>
        </g>
        <path stroke="#FFF" stroke-linecap="round" stroke-linejoin="round" stroke-width=".5" d="M287 96.357s2.791 9.01 12.83 0c12.178-10.928 14.268 19.674 22.969 20.021 8.7.347 10.627-19.84 17.956-15.392 9.223 5.687 5.273 25.94 14.398 29.76 7.884 3.306 12.423-11.574 20.258-7.474C384.7 128.133 383.95 157.628 395 159"/>
        <path stroke="#FFF" stroke-linecap="round" stroke-linejoin="round" stroke-width=".5" d="M305.5 126v-21M321.5 132v-9M340.5 142v-31M356.5 151v-14M374.5 159v-27" opacity=".53"/>
        <path fill="#217DEB" fill-rule="nonzero" d="M133 155.668l-40.959-22.619V133l-.049.033-.049-.033v.05L16 175.003 56.91 198z"/>
        <path fill="#69ADFF" fill-rule="nonzero" d="M103.867 164.736A2.227 2.227 0 0 0 105 162.79c0-.808-.434-1.553-1.133-1.944l-15.258-8.465a3.02 3.02 0 0 0-2.94 0l-32.55 17.975A2.227 2.227 0 0 0 52 172.294c0 .802.427 1.543 1.118 1.936l14.177 8.122a5.065 5.065 0 0 0 4.957 0l31.615-17.616z"/>
        <path fill="#0C64CD" fill-rule="nonzero" d="M108.595 28.223L158.66.645a5.221 5.221 0 0 1 5.027 0l9.731 5.37a4.964 4.964 0 0 1 2.579 4.347v68.751a1.622 1.622 0 0 1-2.546 1.411l-10.98-6.813a5.221 5.221 0 0 0-5.238-.162l-48.38 26.215A1.93 1.93 0 0 1 106 98.061V32.555a5.013 5.013 0 0 1 2.595-4.332zM58 198.731V257l76-41.731V157z"/>
        <path fill="#7536AD" fill-rule="nonzero" d="M137.463 174a25.682 25.682 0 0 1 0 17.504s-1.132 39.945-.427 47.496h-5.558s-7.345-27.916-7.476-37.134c-.131-9.218 6.935-26.395 6.935-26.395l6.526-1.471z"/>
        <path fill="#8154A8" fill-rule="nonzero" d="M109 183.19l3.94 57.81h5.531l5.78-42.79c3.69-2 6.342-5.44 7.301-9.467 1.325-6.495-.712-9.743-.712-9.743L109 183.19z"/>
        <path fill="#FFBDC5" fill-rule="nonzero" d="M112.777 141.983c-.081.532-9.782-11.63-14.185-25.984 0 0-3.978-2.924-3.505-3.638l.815-.88s-3.26-3.905-2.87-4.437c.392-.531 4.892 3.904 4.892 3.904l2.87 3.722L126 137.398l-13.223 4.585z"/>
        <path fill="#DD9343" fill-rule="nonzero" d="M104.363 118a10.964 10.964 0 0 0-4.363 2.16c4.738 12.454 12.731 22.302 12.796 21.823L126 137.497 104.363 118z"/>
        <path fill="#FFBDC5" fill-rule="nonzero" d="M120 133.18v2.863s-.645 4.717-6 2.236c0 0 1.653-4.028 1.14-6.279l4.86 1.18z"/>
        <path fill="#F2B368" fill-rule="nonzero" d="M170.28 216l-.077 4.106s-5.288 3.458-4.001 5.47c1.287 2.012 9.523-3.79 9.523-3.79.525-.912.277-2.106-.559-2.694l-.217-2.31-4.668-.782z"/>
        <path fill="#D85252" fill-rule="nonzero" d="M166 158l3.191 58.926s2.31 2.417 7.28 0l1.529-41.21-1.878-15.12L166 158z"/>
        <path fill="#F2B368" fill-rule="nonzero" d="M185.405 216.65l-.202 2.596s-5.288 3.376-4.001 5.34 9.523-3.7 9.523-3.7c.525-.89.277-2.056-.559-2.63L189.95 216l-4.544.65z"/>
        <path fill="#E86969" fill-rule="nonzero" d="M189.031 166.108l.969 51.185a6.072 6.072 0 0 1-5.688 0L174 163.348s13.86-1.792 15.031 2.76z"/>
        <path fill="#FFAF9F" fill-rule="nonzero" d="M172 123c-4.256 1.557-7.207 5.653-7.482 10.388L164 143h3.467L172 123z"/>
        <path fill="#8154A8" fill-rule="nonzero" d="M164.291 132.974l-.291 5.043c1.29.593 2.689.927 4.113.983L172 123c-4.387 1.5-7.426 5.432-7.709 9.974z"/>
        <path fill="#FFBDC5" fill-rule="nonzero" d="M167.406 112.083c-.082.266-2.453 8.948 5.27 8.417l1.054 8.5s2.553-3.104 5.27-3.453c0 0-1.762-4.433-1.235-6.375a6.051 6.051 0 0 0 .708-4.98c-.972-2.391-5.352-7.355-7.822-5.944a7.62 7.62 0 0 0-3.245 3.835z"/>
        <path fill="#7536AD" fill-rule="nonzero" d="M172.043 122s-.127 3.872 4.939.376c0 0 8.621 2.695 10.749 6.697 2.128 4.003.937 35.939.937 35.939s-6.605 4.002-18.466-4.1c0 0-4.764-3.48-5.16-4.705-.398-1.225 2.206-26.415 2.206-26.415-.116-3.366 1.788-6.46 4.795-7.792z"/>
        <path fill="#190C66" fill-rule="nonzero" d="M171.94 111.858s-5.551 4.687-10.565 1.54c0 0-1.677-3.384 2.062-3.874.455.001.878-.235 1.117-.625.24-.39.261-.877.057-1.287a2.35 2.35 0 0 1 .487-2.978 3.03 3.03 0 0 1 3.353-.237 7.051 7.051 0 0 0 4.562.305 6.43 6.43 0 0 1 5.03 1.285c5.03 3.249 2.683 10.389 0 12.013a4.787 4.787 0 0 1-4.645-3.604c-.318-1.37-.805-2.504-1.459-2.538z"/>
        <path fill="#EAEAEA" fill-rule="nonzero" d="M170.984 151.746L170.59 156a21.076 21.076 0 0 0-13.562-2.69s1.01-7.74-3.028-11.31c0 0 14.051.212 17 3.26l-.016 6.486z"/>
        <path fill="#FFF" fill-rule="nonzero" d="M170.984 150.746L170.59 155a21.076 21.076 0 0 0-13.562-2.69s1.01-7.74-3.028-11.31c0 0 14.051.212 17 3.26l-.016 6.486z"/>
        <path fill="#FFBDC5" fill-rule="nonzero" d="M172 114.545s.294-2.124 2.202-1.391c1.909.733 0 2.919-1.631 2.844l-.571-1.453zM180.908 141.112s-.967-13.874 6.295-13.08c7.263.796 3.18 27.384-4.46 28.924 0 0-4.639.878-10.967-5.215a9.499 9.499 0 0 0-5.623-2.566s-1.869.977-2.475.083c-.607-.894-1.918-1.06-1.64-2.65a2.237 2.237 0 0 1 1.092-1.761 2.194 2.194 0 0 1 2.056-.093s-1.05-1.506-.525-2.3c.525-.796.87 1.77 2.623 2.565 1.755.795 11.476 2.831 13.82 4.768l-.196-8.675z"/>
        <path fill="#8154A8" fill-rule="nonzero" d="M190.643 145.585c2.187-7.682 1.96-17.1-2.38-17.554-7.176-.75-6.22 12.36-6.22 12.36l.145 4.693a14.293 14.293 0 0 0 8.455.5z"/>
        <path fill="#FFAF9F" fill-rule="nonzero" d="M161 141.31s-2.809-1.63-3.502-1.254c-.693.377-2.303 1.944-1.011 1.944.81-.062 1.54-.354 2.004-.803l1.872.126.637-.013z"/>
        <path fill="#F2B368" fill-rule="nonzero" d="M164 144.845l3.809-5.842s1.152-.086 1.191.687l-3.75 5.31-1.25-.155z"/>
        <path fill="#FFBDC5" fill-rule="nonzero" d="M119.271 123.013s-6.562 0-7.24 6.471c-.68 6.47 10.343 6.557 12.073 3.79 1.73-2.77 1.373-10.641-4.833-10.26z"/>
        <path fill="#190C66" fill-rule="nonzero" d="M121.849 121.034c-1.017-.151-2.043.206-2.777.969a3.64 3.64 0 0 0-.97 2.924c-.056 1.629.644 3.182 1.873 4.159 0 0 2.124.878.718 2.385a1.636 1.636 0 0 1-1.296.654c-.502 0-.979-.24-1.296-.654a2.904 2.904 0 0 0 .403 2.398c.476.69 1.227 1.108 2.033 1.131 2.561 0 5.872-.63 6.903-4.175 1.733-6.08-.672-9.443-5.591-9.79z"/>
        <path fill="#F2B368" fill-rule="nonzero" d="M110.675 140.97s3.982-4.84 13.524-4.97c9.542-.128 6.34 13.406 6.681 15.294.341 1.887 2.422 15.583 7.12 19.794 0 0 .179 13.26-17.263 12.905 0 0-7.803 0-11.021-2.323l-.342-22.068s-1.43-14.664 1.3-18.632z"/>
        <path fill="url(#a)" fill-rule="nonzero" d="M116.822 142s7.892 5.319-6.37 35L110 159.349 116.822 142z"/>
        <path fill="#0C64CD" fill-rule="nonzero" d="M79.203 123.753L24.537 153.62a3.063 3.063 0 0 1-3.036-.044A3.049 3.049 0 0 1 20 150.942V84.317a9.211 9.211 0 0 1 4.797-8.111L79.48 46.373a3.063 3.063 0 0 1 2.996.038A3.049 3.049 0 0 1 84 48.984v66.69a9.21 9.21 0 0 1-4.797 8.08z"/>
        <path fill="#084B9B" fill-rule="nonzero" d="M16 175v59.033L57 257v-59.033z"/>
        <path fill="#F2B368" fill-rule="nonzero" d="M268.934 211.718l1.073 3.194s5.528 1.437 4.95 3.369c-.577 1.931-9.373-.64-9.373-.64a1.58 1.58 0 0 1-.58-1.118c-.029-.434.127-.86.431-1.18l.231-4.343 3.268.718zM282.934 211.718l1.073 3.194s5.528 1.437 4.95 3.369c-.577 1.931-9.373-.64-9.373-.64a1.58 1.58 0 0 1-.58-1.118c-.029-.434.127-.86.431-1.18l.231-4.343 3.268.718z"/>
        <path fill="#D85252" fill-rule="nonzero" d="M286 161.07L284.59 214h-5.012l-3.243-43.029L271.551 214h-5.983L265 161.494s19.297-5.317 21-.424z"/>
        <path fill="#FFBDC5" fill-rule="nonzero" d="M268.736 118.53L268 124h6l-1.12-7.08s-3.6-5.25-4.144 1.61z"/>
        <path fill="#F2B368" fill-rule="nonzero" d="M268.298 121h5.436l1.266 2.853-1.428 9.147-6.572-9.7z"/>
        <path fill="#FFAF9F" fill-rule="nonzero" d="M267.563 123.311l5.232 5.667 2.696-5.136a8.38 8.38 0 0 1 4.06 1.458l1.316.845-3.61-7.24s-1.605-.216-1.766-.945a17.406 17.406 0 0 1 1.332-3.96s2.23 2.27 1.926 3.96c0 0 12.293 10.173 8.538 18.772 0 0-3.354 3.463-7.816-3.877a158.95 158.95 0 0 1 6.323 28.663s-9.468 5.584-22.676 0l-.866-33.8s-2.006-4.407 5.311-4.407z"/>
        <path fill="#F2B368" fill-rule="nonzero" d="M280.046 125.785l-1.328-.83a8.596 8.596 0 0 0-4.096-1.434l-2.72 5.05-5.278-5.571c-7.382 0-5.375 4.333-5.375 4.333l.874 33.227c13.325 5.49 22.877 0 22.877 0a152.847 152.847 0 0 0-6.379-28.178c2.186 3.502 4.112 4.495 5.505 4.61a25.554 25.554 0 0 0-4.161-11.402l.08.195z"/>
        <path fill="#FFBDC5" fill-rule="nonzero" d="M275.11 112.337s4.51 6.794-.405 8.524c0 0-1.946 1.074-4.509-2.756 0 0-3.017-.592-1.979-2.307 1.038-1.714 2.174.305 2.174.305s-3.293-5.496 4.72-3.766z"/>
        <path fill="#190C66" fill-rule="nonzero" d="M271.468 115.778a3.19 3.19 0 0 0 .876-3.465s5.322 1.091 5.648-3.188c.326-4.279-9.236-4.053-10.438 0 0 0-1.631-.952-2.387 2.166-.755 3.118 1.082 7.709 4.773 7.709l1.528-3.222z"/>
        <path fill="url(#b)" fill-rule="nonzero" d="M266.166 127s3.637 6.169.668 18.458L262.249 147 262 136.992l4.166-9.992z"/>
        <path fill="#FFBDC5" fill-rule="nonzero" d="M270 115.537s-1.226-1.042-1.806-.223c-.58.82.189 1.522 1.644 1.686l.162-1.463zM265.189 125.456a2.776 2.776 0 0 0-2.04-.408 2.703 2.703 0 0 0-1.733 1.116c-2.662 3.804-8.534 12.813-8.414 17.853 0 0-.325 8.465 12.528 10.03l3.158.411s2.133 1.779 3.413 1.515c.447-.135.772-.507.837-.955a1.773 1.773 0 0 0-.223-1.43 1.895 1.895 0 0 0-1.228-.826 1.976 1.976 0 0 1-1.605-1.12s2.27-.939 1.622-1.252c-.649-.313-2.373.412-2.373.412s-7.424-2.8-8.534-5.303c.086.066 11.658-15.234 4.592-20.043z"/>
        <path fill="#FC6" fill-rule="nonzero" d="M264.738 125.444a2.781 2.781 0 0 0-2.017-.397 2.678 2.678 0 0 0-1.714 1.087A68.435 68.435 0 0 0 254 138.102a23.972 23.972 0 0 0 8.358 3.898c2.92-4.604 7.395-13.203 2.38-16.556z"/>
        <path fill="#FFB533" fill-rule="nonzero" d="M245 68V47.609L225 38v19.978z"/>
        <path fill="#FC6" fill-rule="nonzero" d="M225 38l8.571 15L245 47.609z"/>
        <path fill="#190C66" fill-rule="nonzero" d="M126.839 128.316c0-.781 5.33.112 5.758.271a5.716 5.716 0 0 1 3.29 3.045 6.194 6.194 0 0 1 .264 4.385 5.654 5.654 0 0 0-.33 3.938c.228.518.533 1.002.906 1.434 1.02 1.308 2.517 2.073 3.504 3.396a10.097 10.097 0 0 1 1.48 8.1c-1.842 10.123-13.16 7.429-15.711 4.145.23.287 1.645.318 1.958.366 1.3.194 2.626.13 3.899-.191 2.142-.816 3.479-2.895 3.29-5.118-.23-2.997-3.043-3.316-5.396-4.304-2.089-.647-3.362-2.691-2.978-4.783a9.97 9.97 0 0 1 1.432-4.289 8.344 8.344 0 0 0 1.25-2.662 3.397 3.397 0 0 0-.297-2.94 3.606 3.606 0 0 0-2.516-1.668l.197-3.125z"/>
        <path fill="#69ADFF" fill-rule="nonzero" d="M119 38.18V67l32-17.408V20z"/>
        <path stroke="#FFF" stroke-linecap="round" stroke-linejoin="round" stroke-width=".5" d="M151 20l-32 47M119 37l32 12"/>
        <path fill="#F2B368" fill-rule="nonzero" d="M151.701 66.248l-30.466 17.645a.803.803 0 0 1-.829-.016.88.88 0 0 1-.406-.754v-6.077c.002-.954.5-1.832 1.299-2.294l30.466-17.645a.803.803 0 0 1 .829.016.88.88 0 0 1 .406.754v6.077c-.002.954-.5 1.832-1.299 2.294z"/>
        <path fill="#69ADFF" fill-rule="nonzero" d="M164.262 42.908l3.538 1.988a.785.785 0 0 0 .805-.015.848.848 0 0 0 .395-.728V20.307a2.555 2.555 0 0 0-1.262-2.215l-3.538-1.988a.785.785 0 0 0-.805.015.848.848 0 0 0-.395.728v23.83a2.555 2.555 0 0 0 1.262 2.23z"/>
        <path fill="#F2B368" fill-rule="nonzero" d="M35.095 138.893l-5.301 2.95a1.18 1.18 0 0 1-1.203-.016A1.246 1.246 0 0 1 28 140.75V88.367c.015-1.36.743-2.607 1.905-3.26l5.301-2.95a1.18 1.18 0 0 1 1.203.016c.37.225.594.635.591 1.076v52.384c-.015 1.36-.743 2.607-1.905 3.26z"/>
        <path fill="#D85252" fill-rule="nonzero" d="M49.095 131.861l-5.301 2.98c-.375.218-.833.211-1.203-.016a1.262 1.262 0 0 1-.591-1.087V97.432c.015-1.374.743-2.633 1.905-3.293l5.301-2.98c.375-.218.833-.211 1.203.016.37.227.594.641.591 1.087v36.273c-.003 1.386-.733 2.66-1.905 3.326zM64.048 123.925l-5.302 2.945c-.371.19-.812.17-1.167-.05a1.235 1.235 0 0 1-.579-1.034V100.32a3.748 3.748 0 0 1 1.905-3.236l5.301-2.928a1.187 1.187 0 0 1 1.203.016c.37.223.594.63.591 1.068v25.417a3.747 3.747 0 0 1-1.952 3.268z"/>
        <path fill="#69ADFF" fill-rule="nonzero" d="M76.143 116.94l-5.35 2.906a1.2 1.2 0 0 1-1.202-.016 1.215 1.215 0 0 1-.591-1.053v-16.54a3.691 3.691 0 0 1 1.905-3.194l5.301-2.89a1.2 1.2 0 0 1 1.203.017c.37.22.594.621.591 1.053v16.493a3.692 3.692 0 0 1-1.857 3.225zM164.262 59.892l3.538 2.004a.78.78 0 0 0 .805-.016.856.856 0 0 0 .395-.733v-6.808c-.002-.928-.485-1.782-1.262-2.231l-3.538-2.004a.78.78 0 0 0-.805.016.856.856 0 0 0-.395.733v6.825c.008.922.49 1.768 1.262 2.214z"/>
        <path stroke="#FFF" stroke-linecap="round" stroke-linejoin="round" stroke-width=".5" d="M287.5 117v-10" opacity=".53"/>
        <path fill="#E86969" fill-rule="nonzero" d="M11.245 255h9.948L25 238H7z"/>
        <ellipse cx="16" cy="237.5" fill="#D85252" fill-rule="nonzero" rx="9" ry="1.5"/>
        <path fill="#97C165" fill-rule="nonzero" d="M16.375 229a73.14 73.14 0 0 1 2.563-14.578c2.127-6.529 5.025-24.66-5.327-23.355-10.352 1.306-.117 12.132.435 17.702.553 5.57-3.4 12.611 2.329 20.231zM18 237c.277-.335.277-1.436.39-1.85a13.546 13.546 0 0 1 1.838-3.989c1.655-2.393 4.345-3.9 7.288-4.084a7.764 7.764 0 0 1 4.245.59 2.522 2.522 0 0 1 1.188 1.658 2.482 2.482 0 0 1-.44 1.98c-2.244 2.824-9.776-.096-14.509 5.695zM17 233a17.92 17.92 0 0 1 2.135-6.409 17.513 17.513 0 0 0 2.874-7.493c.353-2.537 0-5.157.466-7.677.465-2.52.915-5.007 3.403-6.091 5.54-2.37 9.778 8.561 1.397 16.171-8.38 7.61-9.2 7.076-10.275 11.499z"/>
        <path fill="#97C165" fill-rule="nonzero" d="M15 230c-3.477-3.76-5.382-8.783-5.304-13.982.204-8.6-1.04-11.722-6.296-9.137-5.257 2.585-3.746 13.624 0 17.51C7.146 228.277 15 230 15 230zM15 237c-.954-4.373-4.854-7.346-9.141-6.968 0 0-3.265 2.042 2.938 4.505S14.736 236.4 15 237z"/>
        <path stroke="#EFEFEF" stroke-width=".5" d="M17 238s-.213-5.75 10-9M16.108 240c-.564-5.793 1.096-8.933 4.515-13.359A39.895 39.895 0 0 0 26 216" opacity=".37"/>
        <path stroke="#EFEFEF" stroke-width=".5" d="M15.274 201s1.547 5.797 0 15.53a31.44 31.44 0 0 0 .619 11.578A34.561 34.561 0 0 1 16.929 239" opacity=".37"/>
        <path stroke="#EFEFEF" stroke-width=".5" d="M5 213c-.044 7.635 4.03 14.67 10.59 18.281 2.565 2.073 3.826 5.415 3.288 8.719M8 232s8.186 2.846 7.997 7" opacity=".37"/>
        <path fill="#FC6" fill-rule="nonzero" d="M398.016 250h9.387L411 234h-17z"/>
        <ellipse cx="402.5" cy="234" fill="#F2B368" fill-rule="nonzero" rx="8.5" ry="1"/>
        <path fill="#97C165" fill-rule="nonzero" d="M402.157 226a73.369 73.369 0 0 1 2.138-13.404c1.771-5.998 4.154-22.683-4.46-21.54-8.614 1.143-.091 11.15.367 16.287.458 5.137-2.841 11.648 1.955 18.657zM404 233c.249-.297.265-1.298.365-1.674.347-1.27.907-2.479 1.66-3.581 1.55-2.158 4.075-3.515 6.835-3.676a7.526 7.526 0 0 1 3.965.532c.582.326.99.868 1.126 1.493a2.167 2.167 0 0 1-.413 1.791c-2.074 2.534-9.125-.11-13.538 5.115zM403 229c.285-2.023.966-3.97 2.004-5.73a15.242 15.242 0 0 0 2.673-6.688c.342-2.257 0-4.595.44-6.851.44-2.256.847-4.48 3.178-5.438 5.165-2.11 9.109 7.646 1.303 14.431-7.805 6.786-8.62 6.315-9.598 10.276z"/>
        <path fill="#97C165" fill-rule="nonzero" d="M401 227c-3.23-3.448-4.999-8.052-4.927-12.817.192-7.88-.972-10.738-5.899-8.383-4.927 2.356-3.476 12.493 0 16.05C393.65 225.408 401 227 401 227zM401 233c-.86-4.38-4.37-7.352-8.225-6.966 0 0-2.94 2.033 2.635 4.508 5.575 2.476 5.407 1.857 5.59 2.458z"/>
        <path stroke="#EFEFEF" stroke-width=".5" d="M403 235s-.193-5.127 9-8M402.096 235c-.503-5.317.99-8.13 4.038-12.244A36.899 36.899 0 0 0 411 213" opacity=".37"/>
        <path stroke="#EFEFEF" stroke-width=".5" d="M401.279 200a34.82 34.82 0 0 1 0 14.311 26.55 26.55 0 0 0 .612 10.656A29.21 29.21 0 0 1 402.927 235" opacity=".37"/>
        <path stroke="#EFEFEF" stroke-width=".5" d="M391.001 211c-.075 6.791 3.699 13.06 9.793 16.271 2.396 1.826 3.584 4.79 3.1 7.729M394 228s8.186 2.843 7.997 7" opacity=".37"/>
        <path fill="#084B9B" fill-rule="nonzero" d="M200.257 109L200 152.892 223 167l-.08-45.957z"/>
        <path fill="#217DEB" fill-rule="nonzero" d="M222.66 122L246 110.322 223.39 98 200 110.008z"/>
        <path fill="#0C64CD" fill-rule="nonzero" d="M246.72 111l.28 42.297L223.346 167 223 122.36z"/>
        <path fill="#D85252" fill-rule="nonzero" d="M209.688 102a4.28 4.28 0 0 1-1.228-.19c-2.69-1-4.479-3.688-4.456-6.692-.066-1.637.609-3.211 1.819-4.242a4.04 4.04 0 0 1 3.718-.69c2.701.994 4.495 3.696 4.455 6.709.063 1.64-.618 3.215-1.834 4.243a3.96 3.96 0 0 1-2.474.862zm-1.376-7.71c-.168.231-.244.522-.213.811-.008 1.09.57 2.091 1.49 2.587h.148c.171-.236.248-.533.213-.828.01-1.085-.568-2.082-1.49-2.57h-.148z"/>
        <path fill="#E86969" fill-rule="nonzero" d="M207.688 103a4.28 4.28 0 0 1-1.228-.19c-2.69-1-4.479-3.688-4.456-6.692-.066-1.637.609-3.211 1.819-4.242a4.04 4.04 0 0 1 3.718-.69c2.701.994 4.495 3.696 4.455 6.709.063 1.64-.618 3.215-1.834 4.243a3.96 3.96 0 0 1-2.474.862zm-1.376-7.71c-.168.231-.244.522-.213.811-.008 1.09.57 2.091 1.49 2.587h.148c.171-.236.248-.533.213-.828.01-1.085-.568-2.082-1.49-2.57h-.148z"/>
        <path fill="#D85252" fill-rule="nonzero" d="M213.572 85.248l5.02-2.381 12.685 26.785-5.02 2.38z"/>
        <path fill="#E86969" fill-rule="nonzero" d="M211.397 86.452l5.02-2.382 12.685 26.785-5.02 2.382z"/>
        <path fill="#D85252" fill-rule="nonzero" d="M235.66 105a4.24 4.24 0 0 1-1.223-.19c-2.676-1.001-4.457-3.689-4.434-6.692-.058-1.643.626-3.218 1.842-4.242a4.005 4.005 0 0 1 3.7-.69c2.696.988 4.489 3.691 4.451 6.709.062 1.64-.615 3.215-1.826 4.242a3.928 3.928 0 0 1-2.51.862zm-1.37-7.71c-.167.231-.243.522-.211.811-.008 1.09.566 2.091 1.483 2.587h.147c.17-.236.246-.533.212-.828.01-1.086-.566-2.083-1.484-2.57h-.146z"/>
        <path fill="#E86969" fill-rule="nonzero" d="M233.688 106a4.28 4.28 0 0 1-1.228-.19c-2.69-1-4.479-3.688-4.456-6.692-.066-1.637.609-3.211 1.819-4.242a4.04 4.04 0 0 1 3.718-.69c2.701.994 4.495 3.696 4.455 6.709.063 1.64-.618 3.215-1.834 4.243a3.96 3.96 0 0 1-2.474.862zm-1.376-7.71c-.168.231-.244.522-.213.811-.008 1.09.57 2.091 1.49 2.587h.148c.171-.236.248-.533.213-.828.01-1.085-.568-2.082-1.49-2.57h-.148z"/>
        <path fill="#FFBDC5" fill-rule="nonzero" d="M87.497 167.734s6.79-2.873 16.702-16.225c2.606-3.51 4.599-5.926 6.093-7.787a2.133 2.133 0 0 1 2.518-.515 2.064 2.064 0 0 1 1.151 2.262l-1.245 6.072c-1.187 5.86-4.716 11.005-9.796 14.283-4.117 2.645-9.38 4.897-14.776 4.57 0 0-4.98 4.294-7.338 3.51a10.991 10.991 0 0 1-2.374-1.11.925.925 0 0 1-.429-.855.931.931 0 0 1 .562-.777l3.685-1.534s-3.12-.637-1.876-1.24c1.246-.605 5.463 0 5.463 0l1.66-.654z"/>
        <path fill="#F2B368" fill-rule="nonzero" d="M103.196 150.723A72.647 72.647 0 0 1 92 163.653 11.746 11.746 0 0 0 94.173 169c5.122-1.53 12.385-5.56 15.24-10.496 1.744-2.994 10.481-16.978 4.55-19.33-4.107-1.645-8.928 8.867-10.767 11.549z"/>
    </g>
</svg>
