<svg xmlns="http://www.w3.org/2000/svg" xmlns:xlink="http://www.w3.org/1999/xlink" width="494" height="257" viewBox="0 0 494 257">
    <defs>
        <rect id="b" width="542" height="305" x="48" rx="8"/>
        <filter id="a" width="107.4%" height="113.1%" x="-3.7%" y="-5.2%" filterUnits="objectBoundingBox">
            <feMorphology in="SourceAlpha" operator="dilate" radius="2" result="shadowSpreadOuter1"/>
            <feOffset dy="4" in="shadowSpreadOuter1" result="shadowOffsetOuter1"/>
            <feGaussianBlur in="shadowOffsetOuter1" result="shadowBlurOuter1" stdDeviation="4"/>
            <feColorMatrix in="shadowBlurOuter1" values="0 0 0 0 0.853317482 0 0 0 0 0.853317482 0 0 0 0 0.853317482 0 0 0 0.16 0"/>
        </filter>
        <linearGradient id="c" x1="-6.015%" x2="64.503%" y1="50.002%" y2="50.002%">
            <stop offset="0%" stop-color="#01C8EF"/>
            <stop offset="13%" stop-color="#04B1DD"/>
            <stop offset="55%" stop-color="#0E6BA7"/>
            <stop offset="85%" stop-color="#154085"/>
            <stop offset="100%" stop-color="#172F78"/>
        </linearGradient>
        <radialGradient id="d" cx="-18.523%" cy="-6.593%" r="271.895%" fx="-18.523%" fy="-6.593%" gradientTransform="matrix(.57922 0 0 1 -.078 0)">
            <stop offset="0%" stop-color="#01C8EF"/>
            <stop offset="14%" stop-color="#03BAE4"/>
            <stop offset="40%" stop-color="#0895C8"/>
            <stop offset="76%" stop-color="#115A9A"/>
            <stop offset="100%" stop-color="#172F78"/>
        </radialGradient>
        <linearGradient id="e" x1="73.684%" x2="15.482%" y1="19.823%" y2="93.993%">
            <stop offset="10%" stop-color="#FEC28B"/>
            <stop offset="97%" stop-color="#FF7D3F"/>
        </linearGradient>
        <linearGradient id="f" x1="-6.016%" x2="64.508%" y1="50.002%" y2="50.002%">
            <stop offset="0%" stop-color="#01C8EF"/>
            <stop offset="13%" stop-color="#04B1DD"/>
            <stop offset="55%" stop-color="#0E6BA7"/>
            <stop offset="85%" stop-color="#154085"/>
            <stop offset="100%" stop-color="#172F78"/>
        </linearGradient>
        <radialGradient id="g" cx="-18.54%" cy="-6.609%" r="271.948%" fx="-18.54%" fy="-6.609%" gradientTransform="matrix(.57918 0 0 1 -.078 0)">
            <stop offset="0%" stop-color="#01C8EF"/>
            <stop offset="14%" stop-color="#03BAE4"/>
            <stop offset="40%" stop-color="#0895C8"/>
            <stop offset="76%" stop-color="#115A9A"/>
            <stop offset="100%" stop-color="#172F78"/>
        </radialGradient>
        <linearGradient id="h" x1="73.681%" x2="15.478%" y1="19.823%" y2="93.998%">
            <stop offset="10%" stop-color="#FEC28B"/>
            <stop offset="97%" stop-color="#FF7D3F"/>
        </linearGradient>
        <linearGradient id="i" x1="-6.012%" x2="64.503%" y1="49.995%" y2="49.995%">
            <stop offset="0%" stop-color="#01C8EF"/>
            <stop offset="13%" stop-color="#04B1DD"/>
            <stop offset="55%" stop-color="#0E6BA7"/>
            <stop offset="85%" stop-color="#154085"/>
            <stop offset="100%" stop-color="#172F78"/>
        </linearGradient>
        <radialGradient id="j" cx="-18.515%" cy="-6.589%" r="271.948%" fx="-18.515%" fy="-6.589%" gradientTransform="matrix(.57908 0 0 1 -.078 0)">
            <stop offset="0%" stop-color="#01C8EF"/>
            <stop offset="14%" stop-color="#03BAE4"/>
            <stop offset="40%" stop-color="#0895C8"/>
            <stop offset="76%" stop-color="#115A9A"/>
            <stop offset="100%" stop-color="#172F78"/>
        </radialGradient>
        <linearGradient id="k" x1="73.683%" x2="15.482%" y1="19.825%" y2="93.998%">
            <stop offset="10%" stop-color="#FEC28B"/>
            <stop offset="97%" stop-color="#FF7D3F"/>
        </linearGradient>
        <linearGradient id="l" x1="-6.015%" x2="64.503%" y1="50%" y2="50%">
            <stop offset="0%" stop-color="#01C8EF"/>
            <stop offset="13%" stop-color="#04B1DD"/>
            <stop offset="55%" stop-color="#0E6BA7"/>
            <stop offset="85%" stop-color="#154085"/>
            <stop offset="100%" stop-color="#172F78"/>
        </linearGradient>
        <radialGradient id="m" cx="-18.523%" cy="-6.589%" r="271.948%" fx="-18.523%" fy="-6.589%" gradientTransform="matrix(.57911 0 0 1 -.078 0)">
            <stop offset="0%" stop-color="#01C8EF"/>
            <stop offset="14%" stop-color="#03BAE4"/>
            <stop offset="40%" stop-color="#0895C8"/>
            <stop offset="76%" stop-color="#115A9A"/>
            <stop offset="100%" stop-color="#172F78"/>
        </radialGradient>
        <linearGradient id="n" x1="73.684%" x2="15.482%" y1="19.823%" y2="93.99%">
            <stop offset="10%" stop-color="#FEC28B"/>
            <stop offset="97%" stop-color="#FF7D3F"/>
        </linearGradient>
    </defs>
    <g fill="none" fill-rule="evenodd">
        <path fill="#F0F5FA" d="M-791-337h2761v906H-791z"/>
        <g transform="translate(-72 -24)">
            <use fill="#000" filter="url(#a)" xlink:href="#b"/>
            <use fill="#FFF" xlink:href="#b"/>
        </g>
        <g transform="translate(105 7)">
            <path fill="#020202" fill-rule="nonzero" d="M36.873 242.207L1.496 221.392a2.614 2.614 0 0 1 .017-4.519l35.21-20.338a12.548 12.548 0 0 1 12.527-.017l35.403 20.326a2.614 2.614 0 0 1 .034 4.516l-35.036 20.815a12.555 12.555 0 0 1-12.778.032zM234.508 134.365l-35.376-20.815a2.614 2.614 0 0 1 .017-4.518l35.208-20.336a12.548 12.548 0 0 1 12.528-.015l35.406 20.324a2.614 2.614 0 0 1 .034 4.516l-35.039 20.822a12.555 12.555 0 0 1-12.778.022zM85.72 123.785l-35.377-20.814a2.614 2.614 0 0 1 .017-4.519l35.21-20.336a12.56 12.56 0 0 1 12.53-.017l35.4 20.326a2.614 2.614 0 0 1 .034 4.516L98.498 123.76a12.56 12.56 0 0 1-12.778.026z" opacity=".17"/>
            <path stroke="#03A7D3" stroke-width="4.75" d="M65.124 114.18l-52.508 32.407c-10.932 6.754-10.719 22.741.408 29.186L43 193.133M117.712 114.53l50.368 28.423a26.723 26.723 0 0 0 27.279-.605l26.854-16.763"/>
            <path fill="url(#c)" fill-rule="nonzero" d="M134.482 92.053V75.07l-21.468 2.865-16.07-9.28c-2.819-1.628-7.388-1.628-10.204 0l-2.502 1.59-34.852 4.65v17.293h.015c.039 1.035.729 2.062 2.096 2.854l35.425 20.448c2.818 1.628 7.39 1.628 10.204 0l35.225-20.49c1.363-.786 2.053-1.811 2.097-2.844h.017l.017-.102z"/>
            <path fill="url(#d)" fill-rule="nonzero" d="M132.368 71.996L96.943 51.544c-2.818-1.628-7.387-1.628-10.203 0L51.502 72.033c-2.818 1.627-2.818 4.266 0 5.893l35.42 20.463c2.818 1.627 7.39 1.627 10.204 0l35.225-20.492c2.835-1.635 2.835-4.275.017-5.9z"/>
            <path fill="#FFF" fill-rule="nonzero" d="M132.368 76.86L97.143 97.349c-2.819 1.628-7.39 1.628-10.204 0L51.502 76.896c-1.18-.682-1.86-1.542-2.05-2.429-.265 1.232.415 2.517 2.05 3.462l35.42 20.46c2.818 1.627 7.39 1.627 10.204 0l35.225-20.492c1.638-.942 2.315-2.23 2.053-3.46-.175.873-.855 1.74-2.036 2.423zM101.892 102.912l-1.676.97v-1.94l1.676-.966zM105.402 100.886l-1.678.97v-1.937l1.678-.969zM108.91 98.86l-1.678.97v-1.937l1.678-.97zM119.745 92.605a.838.838 0 0 1-1.256-.73.836.836 0 1 1 1.674 0 .836.836 0 0 1-.418.73zM129.41 87.027a.84.84 0 0 1-1.26-.73c0-.3.16-.578.421-.728a.836.836 0 0 1 1.256.729.838.838 0 0 1-.418.729zM112.418 96.836l-1.676.967v-1.936l1.676-.97z"/>
            <path fill="url(#e)" fill-rule="nonzero" d="M89.93 89.738l-23.835-13.76c-.971-.559-.847-1.535.273-2.186l23.29-13.447c1.117-.646 2.81-.717 3.777-.155l23.835 13.76c.971.558.845 1.535-.272 2.186l-23.29 13.446c-1.118.647-2.811.717-3.778.156z"/>
            <path fill="#FFF" fill-rule="nonzero" d="M80.552 104.632L60.875 93.277c-.47-.27-.85-.998-.85-1.622v-1.458c0-.627.38-.916.85-.644l19.677 11.355c.525.377.84.98.85 1.625v1.458c0 .624-.38.913-.85.641zM100.216 101.943l12.202-7.045v1.938l-12.202 7.046z"/>
            <path fill="url(#f)" fill-rule="nonzero" d="M283.263 98.275V81.29l-21.464 2.864-16.07-9.28c-2.818-1.628-7.39-1.628-10.203 0l-2.502 1.591-34.85 4.65v17.292c.042 1.035.73 2.063 2.1 2.855l35.436 20.448c2.818 1.627 7.388 1.627 10.204 0l35.225-20.49c1.363-.787 2.053-1.812 2.097-2.844h.017l.01-.102z"/>
            <path fill="url(#g)" fill-rule="nonzero" d="M281.156 78.225l-35.424-20.453c-2.821-1.627-7.39-1.627-10.204 0l-35.225 20.49c-2.818 1.627-2.818 4.266 0 5.893l35.424 20.453c2.818 1.628 7.388 1.628 10.204 0l35.225-20.492c2.818-1.632 2.818-4.273 0-5.89z"/>
            <path fill="#FFF" fill-rule="nonzero" d="M281.156 83.084l-35.225 20.489c-2.82 1.628-7.39 1.628-10.204 0L200.303 83.12c-1.181-.682-1.861-1.542-2.053-2.429-.263 1.232.415 2.517 2.053 3.462l35.424 20.453c2.818 1.627 7.388 1.627 10.204 0l35.225-20.492c1.635-.943 2.316-2.23 2.05-3.46-.186.885-.869 1.745-2.05 2.43zM250.68 109.134l-1.676.967v-1.936l1.676-.967zM254.188 107.108l-1.676.97v-1.937l1.676-.97zM257.699 105.082l-1.68.969v-1.936l1.68-.97zM268.531 98.826a.838.838 0 0 1-1.256-.729.838.838 0 1 1 1.676 0 .833.833 0 0 1-.42.73zM278.197 93.248a.838.838 0 0 1-1.256-.729.836.836 0 1 1 1.674 0c0 .3-.159.578-.418.73zM261.206 103.056l-1.676.969v-1.936l1.676-.97z"/>
            <path fill="url(#h)" fill-rule="nonzero" d="M238.716 95.96L214.884 82.2c-.972-.56-.848-1.536.272-2.187l23.287-13.449c1.12-.646 2.811-.716 3.78-.155l23.832 13.76c.972.558.848 1.535-.27 2.186l-23.29 13.447c-1.117.643-2.81.719-3.78.157z"/>
            <path fill="#FFF" fill-rule="nonzero" d="M229.33 110.854l-19.677-11.355c-.469-.27-.85-.998-.85-1.623V96.42c0-.627.381-.916.85-.644l19.678 11.36c.524.375.84.977.85 1.622v1.458c.01.622-.364.91-.85.639zM249.004 108.165l12.202-7.046v1.937l-12.202 7.045z"/>
            <path fill="url(#i)" fill-rule="nonzero" d="M85.805 208.528v-16.983l-21.464 2.862-16.07-9.278c-2.818-1.628-7.387-1.628-10.203 0l-2.502 1.591-34.857 4.647v17.293h.02c.039 1.037.729 2.065 2.096 2.854l35.425 20.453c2.82 1.627 7.39 1.627 10.203 0l35.226-20.492c1.363-.787 2.053-1.812 2.097-2.842h.017l.012-.105z"/>
            <path fill="url(#j)" fill-rule="nonzero" d="M83.691 188.47l-35.425-20.454c-2.818-1.627-7.387-1.627-10.203 0l-35.24 20.502c-2.82 1.627-2.82 4.266 0 5.893l35.422 20.441c2.818 1.628 7.39 1.628 10.204 0l35.225-20.49c2.835-1.627 2.835-4.265.017-5.893z"/>
            <path fill="#FFF" fill-rule="nonzero" d="M83.691 193.333l-35.225 20.491c-2.818 1.628-7.39 1.628-10.204 0L2.82 193.377c-1.18-.683-1.86-1.543-2.05-2.43-.265 1.232.416 2.517 2.05 3.462l35.425 20.443c2.818 1.628 7.39 1.628 10.204 0l35.225-20.49c1.638-.944 2.315-2.23 2.053-3.461-.175.89-.855 1.747-2.036 2.432zM53.215 219.385l-1.676.97v-1.937l1.676-.969zM56.725 217.362l-1.678.966v-1.936l1.678-.967zM60.233 215.335l-1.676.967v-1.936l1.676-.967zM71.068 209.08a.838.838 0 0 1-1.256-.729c0-.3.16-.577.418-.729a.838.838 0 0 1 1.256.73c0 .299-.159.577-.418.728zM80.732 203.5a.838.838 0 0 1-1.258-.73.838.838 0 1 1 1.679 0c0 .302-.16.58-.42.73zM63.741 213.31l-1.676.969v-1.937l1.676-.969z"/>
            <path fill="url(#k)" fill-rule="nonzero" d="M41.253 206.213l-23.835-13.76c-.971-.558-.847-1.537.273-2.186l23.29-13.447c1.117-.646 2.81-.728 3.777-.157l23.835 13.76c.972.558.848 1.537-.272 2.186l-23.29 13.446c-1.118.647-2.811.717-3.778.158z"/>
            <path fill="#FFF" fill-rule="nonzero" d="M31.876 211.39l-19.678-11.355a2.04 2.04 0 0 1-.85-1.625v-1.457c0-.627.38-.914.85-.642l19.678 11.355c.468.27.85.996.85 1.623v1.457c0 .627-.382.914-.85.644zM51.539 208.7l12.202-7.044v1.936l-12.202 7.045z"/>
            <path fill="#020202" fill-rule="nonzero" d="M140.497 138.262c4.815 2.779 4.84 7.288.056 10.057-4.784 2.77-12.572 2.794-17.387.012-4.815-2.781-4.859-7.288-.056-10.081 4.803-2.794 12.57-2.77 17.387.012z" opacity=".17" style="mix-blend-mode:multiply"/>
            <path fill="#102465" fill-rule="nonzero" d="M127.966 146.854s-4.455-2.893-4.574-3.597c-.12-.705.971-1.458 1.7-1.434.73.025 3.907.294 3.907.294l1.01 1.144s1.808 4.305-2.043 3.593zM137.708 143.213s-4.456-2.894-4.58-3.596c-.123-.702.972-1.457 1.701-1.435.729.021 3.9.289 3.9.289l1.01 1.146s1.82 4.308-2.031 3.596z"/>
            <path fill="#020202" fill-rule="nonzero" d="M126.504 106.377l-.131 36.637c1.376.725 3.029.69 4.372-.095 0 0 4.152-31.655 4.223-32.4.065-.695.585 28.894.585 28.894s2.57 1.472 4.526-.53l2.308-35.05-15.883 2.544z"/>
            <path fill="#102465" fill-rule="nonzero" d="M130.153 79s-1.876.413-4.303 2.398l.654 24.979s3.158 2.307 9.6.621c5.253-1.375 6.633-3.585 6.633-3.585s.486-11.982-.015-17.05a23.946 23.946 0 0 0-1.156-5.344 5.05 5.05 0 0 0-5.039-3.401h-.029L130.153 79z"/>
            <path fill="#FFC6A0" fill-rule="nonzero" d="M135.968 77.475l.144-4.881s1.23-.095 1.018-1.438c-.212-1.344-1.47-.462-1.7-.066 0 0-.285-4.63-2.736-5.077-2.452-.447-3.474-.09-3.537 1.105-.064 1.195-.141 5.371 0 6.924.14 1.552 0 2.359 2.24 2.296l.194 1.625s1.018.95 4.156.182l.221-.67z"/>
            <path fill="#FDF7FB" fill-rule="nonzero" d="M130.153 79c.017-.952.17-1.472 2.388-1.725 2.218-.252 4.015-.845 4.241 0 .226.846-.22 1.373-2.429 1.56-2.208.187-4.2.165-4.2.165z"/>
            <path fill="#FFC6A0" fill-rule="nonzero" d="M125.84 81.398c-.957.381-2.79 14.447-2.79 14.447l-5.661-3.673-1.312 2.308s6.33 8.33 9.737 5.932c3.406-2.397 4.815-20.909.026-19.014z"/>
            <path fill="#102465" fill-rule="nonzero" d="M128.773 91.276c.515-5.415-.2-10.957-2.915-9.878-.486.197-1.995 4.27-2.583 7.941 1.533.807 3.885 1.29 5.498 1.937z"/>
            <path fill="#FFC6A0" fill-rule="nonzero" d="M116.446 90.914c-.653-.712-.673-1.963-1.239-1.85-.566.115-.602 1.08-.602 1.08s-1.305-1.944-1.715-1.74c-.41.204-.272 1.254-.272 1.254s-.462.537-.438 1.032c.025.496.348 1.608 1.237 2.607.889.998 2.672 1.183 2.672 1.183l1.312-2.308a7.045 7.045 0 0 0-.955-1.258z"/>
            <path fill="#102465" fill-rule="nonzero" d="M131.8 70.665a.87.87 0 0 1 .828-.352c.442.102.537.61.425.972-.046.157-.94 1.144-.998 1.027a10.852 10.852 0 0 0 2.344 3.076c.194.197.427.35.685.45a.729.729 0 0 0 .763-.166c1.91-2.186 3.238-5.78 1.596-8.503a4.336 4.336 0 0 0-2.638-1.943c-.972-.243-2.021-.139-2.971-.47-.617-.213-1.19-.609-1.844-.643-.654-.034-1.395.571-1.152 1.178-.556-.486-1.51-.148-1.822.51-.31.659-.07 1.478.408 2.029 1.047 1.198 2.96 1.29 3.433 3.037.1.43.151.868.156 1.31.166-.55.433-1.061.787-1.512z"/>
            <path fill="#020202" fill-rule="nonzero" d="M85.72 90.81L50.343 69.994a2.614 2.614 0 0 1 .017-4.52L85.57 45.14a12.56 12.56 0 0 1 12.53-.017l35.4 20.326a2.614 2.614 0 0 1 .034 4.516L98.498 90.78a12.555 12.555 0 0 1-12.778.03z" opacity=".17"/>
            <path fill="url(#l)" fill-rule="nonzero" d="M134.482 56.172V39.188l-21.468 2.864-16.07-9.28c-2.819-1.628-7.388-1.628-10.204 0l-2.502 1.591-34.852 4.65v17.292h.015c.039 1.035.729 2.065 2.096 2.855l35.425 20.45c2.818 1.628 7.39 1.628 10.204 0l35.225-20.492c1.363-.787 2.053-1.812 2.097-2.844h.017l.017-.102z"/>
            <path fill="url(#m)" fill-rule="nonzero" d="M132.368 36.115L96.943 15.662c-2.818-1.628-7.387-1.628-10.203 0l-35.238 20.49c-2.818 1.627-2.818 4.265 0 5.893l35.42 20.453c2.818 1.627 7.39 1.627 10.204 0l35.225-20.49c2.835-1.627 2.835-4.266.017-5.893z"/>
            <path fill="#FFF" fill-rule="nonzero" d="M132.368 40.978L97.13 61.463c-2.818 1.627-7.39 1.627-10.203 0L51.502 41.017c-1.18-.682-1.86-1.545-2.05-2.43-.265 1.233.415 2.518 2.05 3.463l35.42 20.448c2.818 1.627 7.39 1.627 10.204 0l35.225-20.49c1.638-.945 2.315-2.23 2.053-3.461-.175.889-.855 1.749-2.036 2.431zM101.892 67.03l-1.676.97v-1.936l1.676-.97zM105.402 65.005l-1.678.969v-1.936l1.678-.97zM108.91 62.981l-1.678.967v-1.936l1.678-.97zM119.745 56.725a.838.838 0 0 1-1.256-.728c0-.3.159-.578.418-.73a.838.838 0 0 1 1.256.73c0 .3-.159.577-.418.728zM129.41 51.145a.838.838 0 0 1-1.26-.729.838.838 0 1 1 1.676 0h.001a.838.838 0 0 1-.418.73zM112.418 60.955l-1.676.967v-1.936l1.676-.967z"/>
            <path fill="url(#n)" fill-rule="nonzero" d="M89.93 53.859L66.095 40.096c-.971-.558-.847-1.535.273-2.186l23.29-13.446c1.117-.644 2.81-.715 3.777-.156l23.835 13.76c.971.559.845 1.535-.272 2.186l-23.29 13.447c-1.118.646-2.811.717-3.778.158z"/>
            <path fill="#FFF" fill-rule="nonzero" d="M80.552 68.75L60.875 57.397c-.47-.27-.85-.996-.85-1.623v-1.458c0-.626.38-.913.85-.643l19.677 11.354c.525.377.84.98.85 1.626v1.457c0 .625-.38.914-.85.642z"/>
            <ellipse cx="45.767" cy="161.783" fill="#DD9400" fill-rule="nonzero" rx="17.418" ry="19.962"/>
            <ellipse cx="40.75" cy="162.796" fill="#FECF03" fill-rule="nonzero" rx="17.418" ry="19.962"/>
            <g fill-rule="nonzero" opacity=".28" transform="translate(23.079 186.817)">
                <ellipse cx="22.435" cy="20.19" fill="#DD9400" rx="17.418" ry="19.962"/>
                <ellipse cx="17.418" cy="21.201" fill="#FECF03" rx="17.418" ry="19.962"/>
            </g>
            <ellipse cx="242.578" cy="56.99" fill="#DD9400" fill-rule="nonzero" rx="12.885" ry="14.768"/>
            <ellipse cx="238.866" cy="57.736" fill="#FECF03" fill-rule="nonzero" rx="12.885" ry="14.768"/>
            <g fill-rule="nonzero" opacity=".28" transform="translate(225.201 79.926)">
                <ellipse cx="17.448" cy="15.356" fill="#DD9400" rx="13.374" ry="15.327"/>
                <ellipse cx="13.595" cy="16.133" fill="#FECF03" rx="13.374" ry="15.327"/>
            </g>
            <ellipse cx="93.79" cy="14.887" fill="#DD9400" fill-rule="nonzero" rx="12.885" ry="14.768"/>
            <ellipse cx="90.078" cy="15.635" fill="#FECF03" fill-rule="nonzero" rx="12.885" ry="14.768"/>
            <g fill-rule="nonzero" opacity=".28" transform="translate(76.525 37.655)">
                <ellipse cx="17.336" cy="15.524" fill="#DD9400" rx="13.374" ry="15.327"/>
                <ellipse cx="13.483" cy="16.301" fill="#FECF03" rx="13.374" ry="15.327"/>
            </g>
        </g>
    </g>
</svg>
