<svg xmlns="http://www.w3.org/2000/svg" xmlns:xlink="http://www.w3.org/1999/xlink" width="494" height="257" viewBox="0 0 494 257">
    <defs>
        <rect id="b" width="542" height="305" x="48" rx="8"/>
        <filter id="a" width="107.4%" height="113.1%" x="-3.7%" y="-5.2%" filterUnits="objectBoundingBox">
            <feMorphology in="SourceAlpha" operator="dilate" radius="2" result="shadowSpreadOuter1"/>
            <feOffset dy="4" in="shadowSpreadOuter1" result="shadowOffsetOuter1"/>
            <feGaussianBlur in="shadowOffsetOuter1" result="shadowBlurOuter1" stdDeviation="4"/>
            <feColorMatrix in="shadowBlurOuter1" values="0 0 0 0 0.853317482 0 0 0 0 0.853317482 0 0 0 0 0.853317482 0 0 0 0.16 0"/>
        </filter>
        <linearGradient id="c" x1="78.415%" x2="26.075%" y1="22.063%" y2="73.513%">
            <stop offset="0%" stop-color="#B6FFEF"/>
            <stop offset="34%" stop-color="#76B5E5"/>
            <stop offset="49%" stop-color="#5A94E0"/>
            <stop offset="57%" stop-color="#5A9DE0"/>
            <stop offset="68%" stop-color="#5AA0E0"/>
            <stop offset="93%" stop-color="#0047BF"/>
        </linearGradient>
        <linearGradient id="d" x1="48.66%" x2="57.195%" y1="78.891%" y2="-79.671%">
            <stop offset="0%" stop-color="#FFF" stop-opacity="0"/>
            <stop offset="84%" stop-color="#A7D1EF"/>
        </linearGradient>
        <linearGradient id="e" x1="46.866%" x2="63.512%" y1="71.807%" y2="-87.513%">
            <stop offset="0%" stop-color="#FFF" stop-opacity="0"/>
            <stop offset="84%" stop-color="#A7D1EF"/>
        </linearGradient>
        <linearGradient id="f" x1="41.025%" x2="77.898%" y1="121.073%" y2="-208.419%">
            <stop offset="0%" stop-color="#FFF" stop-opacity="0"/>
            <stop offset="95%" stop-color="#A7D1EF"/>
        </linearGradient>
        <linearGradient id="g" x1="48.719%" x2="59.503%" y1="81.676%" y2="-153.112%">
            <stop offset="0%" stop-color="#FFF" stop-opacity="0"/>
            <stop offset="84%" stop-color="#A7D1EF"/>
        </linearGradient>
        <linearGradient id="h" x1="-.012%" x2="100.026%" y1="49.914%" y2="49.914%">
            <stop offset="0%" stop-color="#CCD3D8"/>
            <stop offset="100%" stop-color="#6E828F"/>
        </linearGradient>
        <linearGradient id="i" x1=".008%" x2="100.009%" y1="49.999%" y2="49.999%">
            <stop offset="0%" stop-color="#B6FFEF"/>
            <stop offset="49%" stop-color="#5A94E0"/>
            <stop offset="57%" stop-color="#5A9DE0"/>
            <stop offset="68%" stop-color="#5AA0E0"/>
            <stop offset="93%" stop-color="#0047BF"/>
        </linearGradient>
        <linearGradient id="j" x1=".013%" y1="49.996%" y2="49.996%">
            <stop offset="0%" stop-color="#B6FFEF"/>
            <stop offset="49%" stop-color="#5A94E0"/>
            <stop offset="57%" stop-color="#5A9DE0"/>
            <stop offset="68%" stop-color="#5AA0E0"/>
            <stop offset="93%" stop-color="#0047BF"/>
        </linearGradient>
        <linearGradient id="k" x1="0%" x2="99.967%" y1="50.01%" y2="50.01%">
            <stop offset="0%" stop-color="#01C8EF"/>
            <stop offset="13%" stop-color="#04B1DD"/>
            <stop offset="55%" stop-color="#0E6BA7"/>
            <stop offset="85%" stop-color="#154085"/>
            <stop offset="100%" stop-color="#172F78"/>
        </linearGradient>
        <linearGradient id="l" x1="0%" y1="49.99%" y2="49.99%">
            <stop offset="0%" stop-color="#01C8EF"/>
            <stop offset="13%" stop-color="#04B1DD"/>
            <stop offset="55%" stop-color="#0E6BA7"/>
            <stop offset="85%" stop-color="#154085"/>
            <stop offset="100%" stop-color="#172F78"/>
        </linearGradient>
        <linearGradient id="m" x1="0%" y1="49.99%" y2="49.99%">
            <stop offset="0%" stop-color="#01C8EF"/>
            <stop offset="13%" stop-color="#04B1DD"/>
            <stop offset="55%" stop-color="#0E6BA7"/>
            <stop offset="85%" stop-color="#154085"/>
            <stop offset="100%" stop-color="#172F78"/>
        </linearGradient>
        <linearGradient id="n" x1="0%" y1="49.99%" y2="49.99%">
            <stop offset="0%" stop-color="#01C8EF"/>
            <stop offset="13%" stop-color="#04B1DD"/>
            <stop offset="55%" stop-color="#0E6BA7"/>
            <stop offset="85%" stop-color="#154085"/>
            <stop offset="100%" stop-color="#172F78"/>
        </linearGradient>
        <linearGradient id="o" x1="0%" y1="50%" y2="50%">
            <stop offset="0%" stop-color="#01C8EF"/>
            <stop offset="13%" stop-color="#04B1DD"/>
            <stop offset="55%" stop-color="#0E6BA7"/>
            <stop offset="85%" stop-color="#154085"/>
            <stop offset="100%" stop-color="#172F78"/>
        </linearGradient>
        <linearGradient id="p" x1="0%" x2="99.979%" y1="50%" y2="50%">
            <stop offset="0%" stop-color="#01C8EF"/>
            <stop offset="13%" stop-color="#04B1DD"/>
            <stop offset="55%" stop-color="#0E6BA7"/>
            <stop offset="85%" stop-color="#154085"/>
            <stop offset="100%" stop-color="#172F78"/>
        </linearGradient>
        <linearGradient id="q" x1="0%" y1="50%" y2="50%">
            <stop offset="0%" stop-color="#01C8EF"/>
            <stop offset="13%" stop-color="#04B1DD"/>
            <stop offset="55%" stop-color="#0E6BA7"/>
            <stop offset="85%" stop-color="#154085"/>
            <stop offset="100%" stop-color="#172F78"/>
        </linearGradient>
        <linearGradient id="r" x1="0%" y1="49.993%" y2="49.993%">
            <stop offset="0%" stop-color="#01C8EF"/>
            <stop offset="13%" stop-color="#04B1DD"/>
            <stop offset="55%" stop-color="#0E6BA7"/>
            <stop offset="85%" stop-color="#154085"/>
            <stop offset="100%" stop-color="#172F78"/>
        </linearGradient>
        <linearGradient id="s" x1="0%" y1="49.993%" y2="49.993%">
            <stop offset="0%" stop-color="#01C8EF"/>
            <stop offset="13%" stop-color="#04B1DD"/>
            <stop offset="55%" stop-color="#0E6BA7"/>
            <stop offset="85%" stop-color="#154085"/>
            <stop offset="100%" stop-color="#172F78"/>
        </linearGradient>
    </defs>
    <g fill="none" fill-rule="evenodd">
        <path fill="#F0F5FA" d="M-2131-337H630v906h-2761z"/>
        <g transform="translate(-72 -24)">
            <use fill="#000" filter="url(#a)" xlink:href="#b"/>
            <use fill="#FFF" xlink:href="#b"/>
        </g>
        <g transform="translate(108 7)">
            <path fill="#D7E4F1" fill-rule="nonzero" d="M1.547 136.17L97.486 79.57s4.1-2.698 8.404-.5l170.888 100.492s3.376 2.076 1.28 5.58l-97.826 57.992s-3.547 2.134-8.258-.417L1.547 142.226s-3.086-2.911 0-6.056z"/>
            <path fill="#323233" fill-rule="nonzero" d="M176.24 222.174v10.725s1.92.416 5.264-1.88l85.635-49.274s1.406-1.102 1.22-2.91V167.98l-92.118 52.88v1.314z"/>
            <path fill="#020202" fill-rule="nonzero" d="M176.24 232.899s-2.25.253-5.518-2.065L19.647 143.618s-1.884-.602-1.887-3.175V129.19l158.48 86.887v16.82z"/>
            <path fill="url(#c)" fill-rule="nonzero" d="M18.995 127.138l86.31-49.882s3.688-2.377 7.56-.442l153.725 88.578s3.035 1.831 1.154 4.917l-88.007 51.128s-3.19 1.881-7.428-.369L18.995 132.482s-2.776-2.562 0-5.344z"/>
            <path fill="#EA9A53" fill-rule="nonzero" d="M167.698 209.882l78.404-45.238-.883-1.497-135.667-77.332-78.232 45.27z"/>
            <path fill="#E4EBF3" fill-rule="nonzero" d="M165.521 214.461l78.404-45.238-.883-1.496-135.667-77.332-78.232 45.269z" opacity=".2"/>
            <path fill="#303A3E" fill-rule="nonzero" d="M29.177 130.035l80.727-46.731 138.341 80.088-2.09 1.269-136.55-78.829-78.231 45.27z"/>
            <path fill="url(#d)" fill-rule="nonzero" d="M96.53 93.399l2.739-1.587 6.835-3.673 3.482-1.964.687.38.036 90.153-13.302-7.493z"/>
            <path fill="url(#e)" fill-rule="nonzero" d="M167.963 119.797l-.211 90.102 26.617-15.358v-59.778z"/>
            <path fill="url(#f)" fill-rule="nonzero" d="M208.41 186.437V142.87l13.786 7.957v27.658z"/>
            <ellipse cx="217.694" cy="190.185" fill="#09090B" fill-rule="nonzero" opacity=".06" rx="3.752" ry="5.367" transform="rotate(-88.3 217.694 190.185)"/>
            <path fill="url(#g)" fill-rule="nonzero" d="M77.113 105.063l7.94-4.616v61.142l-7.94-4.5z"/>
            <path fill="#102465" fill-rule="nonzero" d="M107.148 147.984l-.282.815a5.609 5.609 0 0 0-.281 1.213c-.127 1.125-.428 3.49-.757 4.098-.438.81-3.004.641-4.64.084-1.638-.557-3.77-.439-4.242-.084-.473.354-4.552.67-6.827-.478a7.876 7.876 0 0 1-2.172-1.629 1.302 1.302 0 0 1 .89-2.202h.213c1.868 0 10.922-2.186 11.884-4.343l6.214 2.526zM195.053 140.758l.686.526c.33.252.686.467 1.063.64 1.033.476 3.182 1.503 3.657 2.006.63.67-.335 3.052-1.378 4.433-1.044 1.381-1.6 3.44-1.407 4 .194.56-.793 4.532-2.596 6.332a7.842 7.842 0 0 1-2.228 1.55 1.302 1.302 0 0 1-1.814-1.536l.065-.206c.58-1.774 1.356-11.054-.391-12.657l4.343-5.088z"/>
            <path fill="#020202" fill-rule="nonzero" d="M195.337 141.02s-2.757 6.964-5.246 6.924c0 0-10.601-5.907-23.667-13.352-3.91-2.214-8.027-4.57-12.157-6.95a1.665 1.665 0 0 1-.213-.144 2.934 2.934 0 0 1-1.218-1.918c-1.08-6.253-1.407-13.555-2.467-19.324-1.463-7.876-2.692-14.936-3.376-19.85-.779.751-1.662 1.623-2.697 2.692-5.488 5.625-18.584 15.276-23.715 22.91-4.053 12.523-9.316 23.743-13.462 36.08-2.604-.405-5.063-.97-7.484-2.073 2.863-13.977 4.95-28.162 9.403-41.722a4.63 4.63 0 0 1 .709-1.443c9.155-13.654 19.948-26.14 30.684-38.58 1.705 1.968 4.692 4.705 7.676 7.397l14.29 1.063s2.325 2.45 2.587 5.21c.807 8.396.363 28.777-.23 40.6 3.499 1.856 9.192 4.984 11.883 7 4.048 3.021 18.7 15.48 18.7 15.48z"/>
            <path fill="#FFB696" fill-rule="nonzero" d="M170.736 17.535c-.562-.844-1.167-1.162-1.73-1.23.344-2.587.189-5.698-1.19-6.562-2.933-1.836-6.978-3.968-9.774-1.372-2.796 2.596-4.818 9.122-3.814 13.476.636 2.762 4.858 3.434 7.966 2.773 1.727-.368 3.502-1.642 4.782-3.268 1.954 2.315 5.138-1.71 3.76-3.817z"/>
            <path fill="#020202" fill-rule="nonzero" d="M154.504 14.908l.1.087s.53-2.472 1.517-3.797a11.006 11.006 0 0 0 2.948 1.288c2.31.67 6.998.05 6.998.05-.301.321-.06.69-.042 1.126.029.439.144.868.337 1.263.178.318.3.664.363 1.024.013.263-.015.527-.084.781-.093.456-.189.909-.281 1.362-.062.281-.088.66.165.81a.675.675 0 0 0 .661-.101c.695-.411.844-1.623 1.64-1.736 1.896-.264 2.163.954 2.163.954s2.658-5.443-.956-7.395a5.986 5.986 0 0 0-4.34-4.315c-1.277-.3-2.613-.155-3.921-.281a9.682 9.682 0 0 1-3.834-1.207 1.077 1.077 0 0 0-1.432.335c-.717 1.063-1.628 2.115-2.163 3.21a8.56 8.56 0 0 0-.844 3.307c-.078 1.291.057 2.332 1.005 3.235z"/>
            <path fill="#39434A" fill-rule="nonzero" d="M170 17.085s-4.481 2.014-5.66 2.154a.563.563 0 0 1-.197 0l-1.837-.492-8.067-2.152-4.683-2.2c.329.051 5.606.845 8.025 1.016.41.023.81-.123 1.11-.402 1.503-1.26 2.167-5.02 4.082-4.742.107.014.212.04.312.078a5.499 5.499 0 0 1 1.435.844c2.205 1.66 4.782 4.99 5.344 5.758.09.084.135.138.135.138z"/>
            <path fill="#39434A" fill-rule="nonzero" d="M170 17.085s-4.481 2.014-5.66 2.154a.563.563 0 0 1-.197 0l-1.837-.492-2.222-1.924.183-.45 2.506-6.115c.107.014.212.04.312.079a5.499 5.499 0 0 1 1.435.844l-1.522 4.047a2.357 2.357 0 0 0 1.016 2.861 2.351 2.351 0 0 0 1.969.194l3.904-1.344c.067.092.112.146.112.146z" opacity=".2" style="mix-blend-mode:multiply"/>
            <path fill="#23292E" fill-rule="nonzero" d="M164.34 19.24a.563.563 0 0 1-.197 0l-1.837-.493-8.067-2.152-4.683-2.2c.329.051 5.606.845 8.025 1.016.41.023.81-.123 1.11-.402.611.529 1.165 1.01 1.576 1.373l.78.68 3.293 2.177z"/>
            <path fill="url(#h)" fill-rule="nonzero" d="M163.322 10.703l-1.269 4.14-.23.757-.428 1.406a.402.402 0 0 1-.487.248l-11.29-2.841a.298.298 0 0 1-.236-.369L151.3 7.75a.413.413 0 0 1 .495-.244l.498.126.531.13 10.261 2.584a.295.295 0 0 1 .237.358z"/>
            <path fill="#FFB696" fill-rule="nonzero" d="M164.83 77.807a23.467 23.467 0 0 1-9.311.09c-10.542-1.946-18.199-10.044-18.199-10.044s.543-2.965 1.325-7.139c1.497-8.047 3.885-20.576 4.96-24.885 1.262-5.063 3.8-9.096 5.858-10.739.21-.066.425-.12.641-.163a9.172 9.172 0 0 1 5.443.728 226.79 226.79 0 0 1 3.887 1.806h.029c.458.248.888.478 1.274.667.942.467 2.146 1.01 3.409 1.637a45.013 45.013 0 0 1 2.233 1.184c2.5 1.432 4.802 3.21 5.406 5.4.174.715.235 1.453.183 2.186-.143 4.692-1.555 8.768-3.39 13.02-.674 1.562-1.383 4.07-1.951 6.318a45.14 45.14 0 0 0-1.322 9.074l-.476 10.86z"/>
            <path fill="#FFB696" fill-rule="nonzero" d="M155.98 32.015c2.855 2.436 8.793-1.969 8.793-1.969l1.921-7.701.262-1.047.059-.23-9.341 1.462-.515 1.97-.301 1.18-.25.954s-3.494 2.954-.628 5.381z"/>
            <path fill="#FFA47D" fill-rule="nonzero" d="M156.858 25.675c.12.36.44.615.818.65 1.2.094 2.405.022 3.584-.214 2.025-.39 4.095-1.893 5.434-3.772l.068-.093.208-.97v.017c-1.336 1.64-3.212 2.911-5.046 3.265a11.659 11.659 0 0 1-4.751-.064l-.315 1.181z"/>
            <path fill="#FFB696" fill-rule="nonzero" d="M105.938 1.125s-2.731 2.183-2.458 3.375c.272 1.193 2.002 2.552 2.638 2.639.52.076 1.046 1.688 1.924 2.408.16.3.647 1.04 1.356 2.067 2.39 3.454 7.293 10.16 10.506 14.3a72.508 72.508 0 0 0 1.687 2.115c.481.574.886 1.05 1.125 1.28a6.948 6.948 0 0 0 2.824 1.632c3.412.987 11.575 3.246 18.596 4.351 2.773.439 5.366.703 7.417.633a5.66 5.66 0 0 0 4.394-2.233 9.648 9.648 0 0 0 1.594-3.246c.097-.39.156-.789.175-1.19a5.164 5.164 0 0 0-.175-1.59c-.39-1.38-3.985-2.53-8.773-3.394a115.606 115.606 0 0 0-20.12-1.595h-.219a35.16 35.16 0 0 1-2.768-3.21c-1.294-1.836-9.99-9.732-13.62-12.725-.17-1.246-.68-3.777-2.199-5.693 0-.008-1.696-2.295-3.904.076zM189.723 52.388a7.226 7.226 0 0 1-5.193.135c-9.783-3.47-24.505-10.773-24.291-13.915.16-2.357 1.969-4.092 3.51-5.15a5.66 5.66 0 0 1 4.889-.636c3.33 1.052 7.611 3.401 11.572 5.845-.132-.28-.282-.562-.422-.894-.363-.785-.768-1.688-1.196-2.644-.253-.577-.52-1.179-.784-1.795a757.494 757.494 0 0 1-5.423-12.753c-1.37-.045-4.616-.816-6.048-1.406a.33.33 0 0 1 .06-.63c1.068-.22 3.58-.917 4.03-1.381.281-.31.104-.796-.335-1.356-1.018-1.283-3.375-2.94-4.354-3.623a.191.191 0 0 1 .11-.346c3.597-.132 7.313 2.484 8.472 3.375.23.18.429.397.588.642l1.386 2.188c1.831 2.281 8.253 11.718 12.717 18.37l2.073 3.094c1.3 1.97 2.202 3.33 2.4 3.657.348.603.562 1.275.627 1.969.37 3.3-1.618 6.107-4.388 7.254z"/>
            <path fill="#102465" fill-rule="nonzero" d="M140.713 49.092c.618-.563 1.442-7.359 2.374-12.377.067-.346.126-.683.185-1.012.023-.121.056-.242.085-.363-.282-.045-.563-.087-.83-.138a83.924 83.924 0 0 1-7.238-1.59c-.635-.17-.998-.28-.998-.28a19.532 19.532 0 0 1-.304-3.809c0-.543.045-1.066.099-1.558.396-3.615 1.766-5.809 1.766-5.809s7.353.67 13.088 1.581c1.612.262 3.094.537 4.261.827l.282.068c.28.07.531.146.762.219.23.073.464.157.65.24a6.638 6.638 0 0 1 1.718 1.031c.844.389 1.809.844 2.85 1.334h.028c1.485.703 3.113 1.499 4.683 2.309.017 0 .028 0 .045.017.641.329 1.271.664 1.879.993.104.048.208.11.312.168 1.125.622 2.177 1.23 3.032 1.784l.051.034a26.89 26.89 0 0 1 3.724 1.406 61.4 61.4 0 0 1 6.596 3.583c.146.321.281.622.422.9.41.861.751 1.52.982 1.9.281.48.959 1.406 1.82 2.576l.351.467a16.275 16.275 0 0 1-4.233 6.81c-.15.137-.23.202-.23.202s-3.795-1.744-7.843-3.789a3.775 3.775 0 0 1-.152.394 24.533 24.533 0 0 1-.714 1.716 40.677 40.677 0 0 0-1.446 3.684 74.907 74.907 0 0 0-2.551 9.845c-.048.25-.093.52-.138.81-.323 2.25-.444 5.598-.47 8.801v1.727c0 3.35.076 6.25.104 7.15v.282c-2.556.079-6.345-1.294-10.162-3.375 0 0-11.094-1.038-18.199-10.042l3.359-18.716z"/>
            <path fill="url(#i)" fill-rule="nonzero" d="M91.013 14.387s-34.105 25.577 8.242 38.555C141.6 65.921 200.27 64.27 200.27 64.27v64.095s-80.362-3.614-117.246-34.676a14.103 14.103 0 0 1-5.007-10.787V35.928s-2.573-8.5 12.995-21.54z" opacity=".53"/>
            <path fill="url(#j)" fill-rule="nonzero" d="M91.39 14.387v56.987S79.053 74.73 78.406 82.907V35.933s-2.534-9.02 12.984-21.546z" opacity=".53"/>
            <path fill="#020202" fill-rule="nonzero" d="M83.216 60.65L53.03 44.556V23.53h.594v20.674l29.875 15.923z"/>
            <path fill="#020202" fill-rule="nonzero" d="M54.824 24.497a3.541 3.541 0 0 1-1.637-.459c-1.837-.982-3.333-3.282-3.333-5.133 0-.883.332-1.57.937-1.933.694-.416 1.67-.348 2.677.186 1.837.982 3.333 3.283 3.333 5.133 0 .884-.331 1.57-.936 1.933-.315.186-.675.28-1.04.273zm-2.99-7.204a1.406 1.406 0 0 0-.737.188c-.419.25-.65.757-.65 1.424 0 1.654 1.356 3.721 3.021 4.61.816.433 1.578.506 2.09.2.42-.25.65-.757.65-1.424 0-1.654-1.356-3.721-3.021-4.607a2.942 2.942 0 0 0-1.353-.391zM237.85 83.52a3.51 3.51 0 0 1-1.626-.453c-1.826-.973-3.314-3.26-3.314-5.1 0-.877.332-1.558.934-1.918.69-.416 1.66-.348 2.658.186 1.826.973 3.313 3.26 3.313 5.097 0 .877-.331 1.56-.933 1.92-.313.183-.67.276-1.033.268zm-2.982-7.153a1.406 1.406 0 0 0-.732.186c-.416.25-.646.754-.646 1.406 0 1.643 1.347 3.696 3 4.58.81.433 1.568.506 2.077.2.416-.251.647-.752.647-1.407 0-1.643-1.348-3.696-3.002-4.577a2.903 2.903 0 0 0-1.344-.388z"/>
            <path fill="#FECF03" fill-rule="nonzero" d="M81.714 47.626l9.375 5.356-8.373 5.442-9.524-5.397z"/>
            <path fill="url(#k)" fill-rule="nonzero" d="M82.716 58.424l-.211 9.21 8.584-5.024v-9.628"/>
            <path fill="url(#l)" fill-rule="nonzero" d="M82.505 67.633l.21-9.209-9.523-5.397.202 9.715 9.11 4.891"/>
            <path fill="url(#m)" fill-rule="nonzero" d="M58.093 81.754l.208-9.21-9.522-5.397.2 9.715 9.114 4.892"/>
            <path fill="#FECF03" fill-rule="nonzero" d="M57.302 61.769l9.372 5.355-8.373 5.443-9.522-5.398z"/>
            <path fill="url(#n)" fill-rule="nonzero" d="M66.674 67.124v9.629l-8.581 5.023.208-9.209"/>
            <path fill="url(#l)" fill-rule="nonzero" d="M80.465 95.643l.209-9.209-9.525-5.398.203 9.716 9.113 4.891"/>
            <path fill="#FECF03" fill-rule="nonzero" d="M79.672 75.661l9.375 5.353-8.373 5.443-9.525-5.398z"/>
            <path fill="url(#n)" fill-rule="nonzero" d="M89.047 81.014v9.628l-8.582 5.024.209-9.21"/>
            <path stroke="#F2F2F4" stroke-linecap="round" stroke-linejoin="round" stroke-width="1.995" d="M62.604 74.972l10.02 5.552M77.85 60.309l-12.697 6.858"/>
            <path fill="#FECF03" fill-rule="nonzero" d="M206.121 95.25l-12.992 7.417 11.605 7.544 13.198-7.482z"/>
            <path fill="url(#o)" fill-rule="nonzero" d="M204.734 110.21l.29 12.765-11.895-6.962v-13.346"/>
            <path fill="url(#p)" fill-rule="nonzero" d="M205.024 122.975l-.29-12.764 13.198-7.482-.281 13.467-12.627 6.78"/>
            <path fill="url(#q)" fill-rule="nonzero" d="M238.856 142.544l-.29-12.765 13.198-7.482-.281 13.468-12.627 6.779"/>
            <path fill="#FECF03" fill-rule="nonzero" d="M239.953 114.849l-12.992 7.417 11.606 7.544 13.197-7.482z"/>
            <path fill="url(#o)" fill-rule="nonzero" d="M226.961 122.266v13.344l11.895 6.965-.29-12.765"/>
            <path fill="url(#r)" fill-rule="nonzero" d="M207.851 161.792l-.29-12.765 13.198-7.48-.279 13.466-12.629 6.779"/>
            <path fill="#FECF03" fill-rule="nonzero" d="M208.948 134.097l-12.99 7.42 11.603 7.541 13.198-7.48z"/>
            <path fill="url(#s)" fill-rule="nonzero" d="M195.959 141.517v13.344l11.892 6.962-.29-12.765"/>
            <path stroke="#F2F2F4" stroke-linecap="round" stroke-linejoin="round" stroke-width="1.995" d="M232.6 133.14l-13.883 7.696M211.477 112.82l17.594 9.508"/>
            <path stroke="#020202" stroke-width=".95" d="M236.364 82.673v13.398l-18.432 12.27"/>
            <path stroke="#FFF" stroke-width="1.9" d="M98.56 69.968s1.887-6.486 5.938-4.925c4.05 1.561-.163 32.856 5.108 30.856s12.455-20.533 16.846-17.313c4.39 3.221 8.438 22.129 12.16 22.466 3.72.338 10.438-5.859 14.86-4.9"/>
            <path fill="#FFF" fill-rule="nonzero" d="M153.471 77.436s23.526 2.709 35.928.883v2.127s-17.417 1.93-35.928-1.24v-1.77zM168.717 82.932s8.978 1.027 20.682-.332v2.135s-6.036 1.66-20.753.391l.07-2.194z" opacity=".61"/>
        </g>
    </g>
</svg>
