<svg xmlns="http://www.w3.org/2000/svg" xmlns:xlink="http://www.w3.org/1999/xlink" width="494" height="257" viewBox="0 0 494 257">
    <defs>
        <rect id="b" width="542" height="305" x="39" rx="8"/>
        <filter id="a" width="107.4%" height="113.1%" x="-3.7%" y="-5.2%" filterUnits="objectBoundingBox">
            <feMorphology in="SourceAlpha" operator="dilate" radius="2" result="shadowSpreadOuter1"/>
            <feOffset dy="4" in="shadowSpreadOuter1" result="shadowOffsetOuter1"/>
            <feGaussianBlur in="shadowOffsetOuter1" result="shadowBlurOuter1" stdDeviation="4"/>
            <feColorMatrix in="shadowBlurOuter1" values="0 0 0 0 0.853317482 0 0 0 0 0.853317482 0 0 0 0 0.853317482 0 0 0 0.16 0"/>
        </filter>
        <linearGradient id="c" x1="50.932%" x2="45.957%" y1="33.571%" y2="121.162%">
            <stop offset="0%" stop-color="#B6FFEF"/>
            <stop offset="49%" stop-color="#5A94E0"/>
            <stop offset="57%" stop-color="#5A9DE0"/>
            <stop offset="68%" stop-color="#5AA0E0"/>
            <stop offset="93%" stop-color="#0047BF"/>
        </linearGradient>
        <linearGradient id="d" x1="0%" y1="50.001%" y2="50.001%">
            <stop offset="10%" stop-color="#FEC28B"/>
            <stop offset="97%" stop-color="#FF7D3F"/>
        </linearGradient>
        <linearGradient id="e" x1="48.659%" x2="57.194%" y1="78.894%" y2="-79.672%">
            <stop offset="0%" stop-color="#FFF" stop-opacity="0"/>
            <stop offset="84%" stop-color="#A7D1EF"/>
        </linearGradient>
        <linearGradient id="f" x1="46.865%" x2="63.513%" y1="71.807%" y2="-87.513%">
            <stop offset="0%" stop-color="#FFF" stop-opacity="0"/>
            <stop offset="84%" stop-color="#A7D1EF"/>
        </linearGradient>
        <linearGradient id="g" x1="41.026%" x2="77.893%" y1="121.066%" y2="-208.403%">
            <stop offset="0%" stop-color="#FFF" stop-opacity="0"/>
            <stop offset="95%" stop-color="#A7D1EF"/>
        </linearGradient>
        <linearGradient id="h" x1="48.718%" x2="59.505%" y1="81.67%" y2="-153.109%">
            <stop offset="0%" stop-color="#FFF" stop-opacity="0"/>
            <stop offset="84%" stop-color="#A7D1EF"/>
        </linearGradient>
        <radialGradient id="i" cx="68.758%" cy="21.05%" r="271.194%" fx="68.758%" fy="21.05%" gradientTransform="matrix(.57736 0 0 1 .29 0)">
            <stop offset="0%" stop-color="#7FDFFE"/>
            <stop offset="9%" stop-color="#74BAE9"/>
            <stop offset="20%" stop-color="#6A9AD7"/>
            <stop offset="31%" stop-color="#617FC9"/>
            <stop offset="43%" stop-color="#5B6BBD"/>
            <stop offset="57%" stop-color="#565CB5"/>
            <stop offset="73%" stop-color="#5454B0"/>
            <stop offset="100%" stop-color="#5351AF"/>
        </radialGradient>
        <linearGradient id="j" x1="103.014%" x2="11.286%" y1="49.513%" y2="50.987%">
            <stop offset="0%" stop-color="#5761D7"/>
            <stop offset="4%" stop-color="#5C66D9"/>
            <stop offset="9%" stop-color="#6A73DF"/>
            <stop offset="14%" stop-color="#8289E8"/>
            <stop offset="19%" stop-color="#A3A7F5"/>
            <stop offset="22%" stop-color="#BCBEFF"/>
        </linearGradient>
        <linearGradient id="k" x1="50%" x2="50%" y1="-12.587%" y2="105.9%">
            <stop offset="0%" stop-color="#B6FFEF"/>
            <stop offset="49%" stop-color="#5A94E0"/>
            <stop offset="57%" stop-color="#5A9DE0"/>
            <stop offset="68%" stop-color="#5AA0E0"/>
            <stop offset="93%" stop-color="#0047BF"/>
        </linearGradient>
        <linearGradient id="l" x1="75.411%" x2="40.637%" y1="27.102%" y2="58.406%">
            <stop offset="0%" stop-color="#C0BFF6"/>
            <stop offset="29%" stop-color="#C5C4F7"/>
            <stop offset="64%" stop-color="#D3D2F9"/>
            <stop offset="100%" stop-color="#E9E9FD"/>
        </linearGradient>
        <linearGradient id="m" x1="72.764%" x2="24.924%" y1="17.019%" y2="85.299%">
            <stop offset="0%" stop-color="#C0BFF6"/>
            <stop offset="12%" stop-color="#D0CFF9"/>
            <stop offset="26%" stop-color="#E9E9FD"/>
            <stop offset="51%" stop-color="#C0BFF6"/>
            <stop offset="62%" stop-color="#D0CFF9"/>
            <stop offset="75%" stop-color="#E9E9FD"/>
            <stop offset="100%" stop-color="#C0BFF6"/>
        </linearGradient>
        <linearGradient id="n" x1="64.062%" x2="32.158%" y1="8.538%" y2="102.247%">
            <stop offset="0%" stop-color="#B6FFEF"/>
            <stop offset="49%" stop-color="#5A94E0"/>
            <stop offset="57%" stop-color="#5A9DE0"/>
            <stop offset="68%" stop-color="#5AA0E0"/>
            <stop offset="93%" stop-color="#0047BF"/>
        </linearGradient>
    </defs>
    <g fill="none" fill-rule="evenodd">
        <path fill="#F0F5FA" d="M-121-337h2761v906H-121z"/>
        <g transform="translate(-63 -24)">
            <use fill="#000" filter="url(#a)" xlink:href="#b"/>
            <use fill="#FFF" xlink:href="#b"/>
        </g>
        <g fill-rule="nonzero" transform="translate(83 6)">
            <path fill="#020202" d="M7.37 131.836l99.904-58.943s4.27-2.808 8.752-.52l177.966 104.65s3.512 2.163 1.33 5.819l-101.874 60.392s-3.694 2.224-8.602-.433L7.37 138.141s-3.216-3.036 0-6.305z" opacity=".17"/>
            <path fill="#323233" d="M189.293 221.4v11.165s2 .433 5.48-1.956l89.182-51.317s1.478-1.146 1.265-3.036V164.96l-95.927 55.064v1.377z"/>
            <path fill="#020202" d="M189.293 232.565s-2.347.253-5.745-2.15l-157.33-90.83s-1.962-.624-1.965-3.306v-11.725l165.04 90.485v17.526z"/>
            <path fill="url(#c)" d="M25.538 122.44l89.885-51.958s3.841-2.477 7.874-.46l160.089 92.25s3.16 1.908 1.197 5.121l-91.649 53.228s-3.324 1.96-7.74-.383l-159.646-92.25s-2.902-2.664-.01-5.549z"/>
            <path fill="#EA9A53" d="M180.398 208.598l81.65-47.11-.921-1.558-141.284-80.534-81.467 47.142z"/>
            <path fill="url(#d)" d="M180.398 208.598l81.65-47.11-.921-1.558-141.284-80.534-81.467 47.142z"/>
            <path fill="#303A3E" d="M36.144 125.445l84.069-48.663 144.066 83.4-2.176 1.321-142.201-82.09-81.47 47.143z"/>
            <path fill="url(#e)" d="M106.285 87.292l2.851-1.65 7.12-3.825 3.625-2.047.714.397.038 93.883-13.852-7.803z"/>
            <path fill="url(#f)" d="M180.674 114.783l-.22 93.832 27.721-15.995v-62.249z"/>
            <path fill="url(#g)" d="M222.796 184.185v-45.374l14.356 8.286v28.805z"/>
            <ellipse cx="232.467" cy="188.089" fill="#09090B" opacity=".06" rx="3.909" ry="5.589" transform="rotate(-88.3 232.467 188.09)"/>
            <path fill="url(#h)" d="M86.062 99.441l8.271-4.807v63.674l-8.27-4.688z"/>
            <g opacity=".15">
                <path fill="#9FFFF8" d="M.05 105.025l1.331-.175c.149-.107.302-.207.46-.298l102.65-59.264c2.652-1.53 7.284-1.338 10.348.43l59.889 34.576a6.216 6.216 0 0 1 1.83 1.53l.702-.205v2.07c0 .967-.592 1.89-1.786 2.578L72.82 145.531c-2.652 1.518-7.284 1.341-10.348-.427L2.586 110.525c-1.713-.986-2.57-2.259-2.53-3.453l-.005-2.047z"/>
                <path fill="#42E8E0" d="M72.82 143.454l102.657-59.27c2.654-1.53 2.32-4.207-.742-5.975l-59.888-34.576c-3.064-1.77-7.697-1.96-10.348-.427L1.842 102.467c-2.652 1.533-2.32 4.208.744 5.976l59.886 34.58c3.056 1.77 7.696 1.962 10.348.43z"/>
                <path fill="#FFF" d="M141.961 90.672l12.673-7.317c1.18-.68 1.032-1.87-.329-2.656-1.363-.787-3.423-.873-4.602-.193l-12.673 7.32c-1.181.68-1.032 1.87.329 2.656 1.361.785 3.423.87 4.602.19zM118.57 104.175l12.676-7.317c1.18-.68 1.033-1.87-.331-2.657-1.361-.786-3.42-.87-4.6-.19l-12.675 7.318c-1.18.68-1.03 1.87.331 2.656 1.361.784 3.423.87 4.6.19zM95.183 117.678l12.676-7.317c1.179-.68 1.03-1.87-.332-2.657-1.361-.787-3.42-.87-4.6-.19l-12.675 7.317c-1.179.681-1.032 1.87.331 2.657 1.362.787 3.421.87 4.6.19zM71.795 131.18l12.673-7.316c1.18-.68 1.033-1.87-.329-2.657-1.36-.784-3.423-.87-4.602-.19l-12.673 7.317c-1.179.68-1.032 1.87.33 2.657 1.37.787 3.422.873 4.601.19z"/>
            </g>
            <path fill="#A3F5FE" d="M.05 81.7l1.331-.174c.148-.108.302-.208.46-.299l102.65-59.269c2.652-1.518 7.284-1.34 10.348.428l59.889 34.578a6.216 6.216 0 0 1 1.83 1.53l.702-.207v2.072c0 .967-.592 1.888-1.786 2.579L72.82 122.202c-2.652 1.53-7.284 1.338-10.348-.43L2.586 87.2c-1.713-.987-2.57-2.26-2.53-3.456L.05 81.7z"/>
            <path fill="#42E8E0" d="M72.82 120.127L175.477 60.86c2.654-1.533 2.32-4.207-.742-5.976L114.847 20.31c-3.064-1.771-7.697-1.961-10.348-.43L1.842 79.148c-2.652 1.533-2.32 4.207.744 5.976l59.886 34.575c3.056 1.769 7.696 1.961 10.348.428z"/>
            <path fill="url(#i)" d="M72.82 120.127L175.477 60.86c2.654-1.533 2.32-4.207-.742-5.976L114.847 20.31c-3.064-1.771-7.697-1.961-10.348-.43L1.842 79.148c-2.652 1.533-2.32 4.207.744 5.976l59.886 34.575c3.056 1.769 7.696 1.961 10.348.428z"/>
            <path fill="#FFF" d="M56.256 116.11l112.263-64.813-11.916-6.882L44.339 109.23z"/>
            <path fill="#FFF" d="M175.477 59.583L72.82 118.852c-2.652 1.533-7.284 1.34-10.348-.428L2.586 83.848c-1.369-.789-2.189-1.77-2.444-2.73-.365 1.347.468 2.865 2.444 4.006l59.886 34.575c3.064 1.771 7.696 1.961 10.348.428L175.477 60.86c1.47-.847 2.024-2.046 1.7-3.248-.2.741-.759 1.43-1.7 1.97z"/>
            <path fill="#FFF" d="M58.024 87.535l33.8-19.515-8.249-4.761-33.799 19.514z"/>
            <path fill="url(#j)" d="M158.609 127.163l.07 6.133a.253.253 0 0 0 .145.222l66.976 37.767a.941.941 0 0 0 .847-.044l10.821-6.395a.377.377 0 0 0 .2-.253v-.018l-.068-6.196-5.25 3.038-61.8-34.83a.944.944 0 0 0-.847.045l-3.714 2.193-7.38-1.662z"/>
            <path fill="url(#k)" d="M158.609 127.163l.07 6.133a.253.253 0 0 0 .145.222l66.976 37.767a.941.941 0 0 0 .847-.044l10.821-6.395a.377.377 0 0 0 .2-.253v-.018l-.068-6.196-5.25 3.038-61.8-34.83a.944.944 0 0 0-.847.045l-3.714 2.193-7.38-1.662z"/>
            <path fill="url(#l)" d="M170.48 120.43l66.973 37.759c.218.124.195.344-.056.49l-10.82 6.397a.941.941 0 0 1-.848.043l-66.973-37.766c-.218-.122-.195-.342.055-.489l10.821-6.396a.944.944 0 0 1 .848-.038z"/>
            <path fill="#FFF" d="M237.453 158.181l-.187-.103-10.69 6.325a.941.941 0 0 1-.847.043l-66.794-37.652-.131.078c-.253.147-.273.367-.056.488l66.98 37.751a.941.941 0 0 0 .848-.043l10.821-6.396c.25-.147.274-.367.056-.49z"/>
            <path fill="#24126A" d="M172.962 129.627l52.625 29.119a35.56 35.56 0 0 1 1.743-6.272l-52.536-29.617a35.52 35.52 0 0 0-1.832 6.77z" opacity=".6"/>
            <path fill="#24126A" d="M168.195 123.973l63.153 35.61c.15.086.132.235-.038.337l-2.717 1.606a.645.645 0 0 1-.58.03l-63.152-35.605c-.15-.083-.134-.233.038-.334l2.717-1.607a.645.645 0 0 1 .58-.037z"/>
            <path fill="#453C9E" d="M164.86 125.951l1.283.726 1.468-.868a.645.645 0 0 1 .58-.03l61.87 34.88 1.249-.74c.17-.1.187-.252.038-.336l-63.153-35.61a.645.645 0 0 0-.58.03l-2.716 1.606c-.172.11-.193.259-.038.342z"/>
            <path fill="url(#m)" d="M326.232 60.638l-52.536-29.62c.096 9.374-6.368 20.838-14.437 25.607l-71.77 42.421c-9.485 5.607-17.082 19.082-16.97 30.108l52.54 29.62c-.113-11.016 7.484-24.492 16.967-30.108l71.773-42.422c8.068-4.769 14.53-16.232 14.42-25.606h.013z" opacity=".7"/>
            <path fill="url(#n)" d="M326.232 60.638l-52.536-29.62c.096 9.374-6.368 20.838-14.437 25.607l-71.77 42.421c-9.485 5.607-17.082 19.082-16.97 30.108l52.54 29.62c-.113-11.016 7.484-24.492 16.967-30.108l71.773-42.422c8.068-4.769 14.53-16.232 14.42-25.606h.013z"/>
            <path fill="#453C9E" d="M170.525 129.144l52.54 29.62c0-.484 0-.972.032-1.466l-52.541-29.616c-.03.49-.03.979-.03 1.462z" opacity=".8"/>
            <path fill="#FFF" d="M257.066 98.042l10.35 5.834-.986.585-10.35-5.837zM251.758 95.049l3.727 2.1-.987.584-3.73-2.102zM247.644 92.729l2.533 1.427-.99.584-2.532-1.427zM264.034 99.365l5.64 3.18-.988.582-5.642-3.18zM255.538 94.576l6.912 3.896-.987.585-6.912-3.897zM251.424 92.256l2.532 1.43-.986.581-2.533-1.427zM247.51 90.05l2.532 1.427-.989.584-2.53-1.43zM267.846 98.91l4.081 2.302-.986.582-4.081-2.3zM264.871 97.232l1.394.787-.987.585-1.394-.787zM260.757 94.912l2.533 1.43-.99.582-2.532-1.427zM259.12 91.385l15.062 8.494-.987.582-15.061-8.491zM253.81 88.392l3.729 2.103-.987.584-3.729-2.102zM272.358 96.246l4.08 2.3-.986.584-4.081-2.302zM262.779 90.844l7.997 4.509-.986.584-7.998-4.509zM258.665 88.527l2.532 1.426-.986.585-2.533-1.43zM270.344 92.506l8.349 4.706-.987.585-8.35-4.709zM262.723 88.208l6.04 3.405-.987.585-6.04-3.406zM257.06 85.017l4.082 2.3-.987.585-4.08-2.303zM278.129 94.29l2.82 1.589-.989.584-2.818-1.589zM272.82 91.297l3.727 2.1-.986.584-3.73-2.1zM265.233 87.019l6.006 3.385-.989.584-6.004-3.385zM274.564 89.675l8.64 4.87-.987.585-8.64-4.87zM264.889 84.22l8.093 4.565-.986.584-8.094-4.564zM260.775 81.9l2.533 1.43-.987.584-2.533-1.43zM256.826 79.676l2.532 1.427-.987.585-2.532-1.43zM280.284 90.295l5.174 2.92-.987.582-5.176-2.918zM236.069 86.204l-7.178-4.048-.986.584 7.175 4.046zM236.785 84.003l-5.64-3.18-.986.584 5.64 3.18zM237.48 81.792l-4.08-2.3-.987.582 4.081 2.302zM241.592 81.506l-5.935-3.348-.987.582 5.935 3.348zM241.992 79.125l-4.081-2.3-.987.584 4.081 2.3zM245.342 78.409l-5.174-2.917-.99.584 5.177 2.917zM245.243 75.75l-2.821-1.592-.987.585 2.819 1.589zM250.141 75.907l-5.465-3.082-.986.584 5.464 3.082zM252.107 74.411l-5.176-2.92-.987.585 5.176 2.92zM276.502 88.162l2.198 1.242-.986.582-2.201-1.24zM269.964 84.478l4.954 2.794-.987.584-4.954-2.796zM276.049 74.335l8.362 4.714-.987.584-8.362-4.713zM270.323 71.107l3.292 1.857-.987.585-3.291-1.857zM235.31 110.902l10.35 5.835-.986.584-10.35-5.837zM230.002 107.907l3.727 2.102-.99.585-3.726-2.103zM225.886 105.59l2.532 1.426-.987.585-2.532-1.43zM242.275 112.226l5.642 3.177-.989.585-5.64-3.18zM233.782 107.436l6.912 3.896-.987.585-6.912-3.899zM229.668 105.116l2.533 1.427-.987.584-2.533-1.426zM225.754 102.91l2.533 1.427-.99.584-2.532-1.43zM246.09 111.77l4.082 2.302-.987.582-4.081-2.3zM243.115 110.093l1.394.787-.986.581-1.397-.784zM238.999 107.773l2.532 1.43-.986.581-2.533-1.427zM237.364 104.246l15.062 8.493-.987.582-15.064-8.49zM232.054 101.253l3.727 2.102-.987.582-3.727-2.1zM214.313 99.064l-7.178-4.048-.989.585 7.178 4.045zM215.03 96.863l-5.64-3.18-.987.584 5.64 3.18zM215.725 94.652l-4.081-2.303-.987.585 4.081 2.3zM219.836 94.363l-5.935-3.344-.99.582 5.938 3.347z"/>
            <ellipse cx="188.125" cy="112.43" fill="#DD9400" rx="18.14" ry="20.789"/>
            <ellipse cx="182.9" cy="113.485" fill="#FECF03" rx="18.14" ry="20.789"/>
            <ellipse cx="158.03" cy="14.201" fill="#DD9400" rx="12.253" ry="14.042"/>
            <ellipse cx="154.5" cy="14.912" fill="#FECF03" rx="12.253" ry="14.042"/>
            <ellipse cx="314.867" cy="102.614" fill="#DD9400" rx="12.253" ry="14.042"/>
            <ellipse cx="311.338" cy="103.325" fill="#FECF03" rx="12.253" ry="14.042"/>
            <path fill="#004299" d="M141.47 169.564c-6.745 3.894-6.78 10.196-.078 14.092 6.702 3.897 17.612 3.912 24.357.018 6.745-3.894 6.813-10.216.08-14.128-6.732-3.911-17.611-3.878-24.359.018z" opacity=".3" style="mix-blend-mode:multiply"/>
            <path fill="#102465" d="M159.846 181.152s6.103-3.965 6.267-4.929c.165-.964-1.316-2.004-2.34-1.966-1.025.038-5.346.398-5.346.398l-1.384 1.568s-2.472 5.913 2.803 4.929zM146.49 176.17s6.102-3.965 6.267-4.926c.164-.961-1.313-2.006-2.34-1.968-1.028.038-5.344.397-5.344.397l-1.366 1.571s-2.485 5.903 2.783 4.926z"/>
            <path fill="#020202" d="M161.85 125.7l.177 50.2a6.168 6.168 0 0 1-5.996-.132s-4.554-43.365-4.658-44.395c-.089-.949-1.923 39.59-1.923 39.59s-3.522 2.024-6.201-.723l-2.04-48.026 20.64 3.487z"/>
            <path fill="#102465" d="M141.104 108.96l.716-.345c.278-4.554 1.303-22.047 1.303-22.047-1.706.613-2.928 1.29-3.955 5.855-.486 2.158-.969 5.667-1.328 9.186a8.005 8.005 0 0 0 3.213 7.312l.05.038z"/>
            <path fill="#F9FCFF" d="M159.783 95.019l11.73 4.005-5.865 15.091-11.525-4.083z"/>
            <path fill="#102465" d="M156.848 88.193s2.57.564 5.895 3.289l-.893 34.224s-4.321 3.162-13.156.85c-7.196-1.883-9.088-4.914-9.088-4.914s-.656-16.415.02-23.357c.675-6.943 3.494-11.712 3.494-11.712 1.569-.475 5.032-.275 5.032-.275l8.696 1.895z"/>
            <path fill="#F7CCB0" d="M148.883 86.1l-.2-6.687s-1.682-.129-1.394-1.97c.289-1.843 2.025-.63 2.318-.09 0 0 .387-6.347 3.75-6.957 3.362-.61 4.756-.121 4.842 1.518.086 1.64.195 7.36 0 9.485-.195 2.126 0 3.234-3.066 3.148l-.269 2.234s-1.391 1.298-5.692.253l-.289-.934z"/>
            <path fill="#FFF" d="M156.848 88.193c-.02-1.308-.23-2.024-3.269-2.366-3.038-.342-5.505-1.159-5.819 0-.314 1.159.304 1.88 3.345 2.138 3.04.258 5.743.228 5.743.228z"/>
            <path fill="#102465" d="M162.743 91.477c1.313.52 2.024 16.974 2.024 16.974l3.957-3.613 3.072 1.945s-4.352 14.03-9.018 10.745c-4.665-3.284-6.58-28.65-.035-26.051z"/>
            <path fill="#F7CCB0" d="M169.066 102.702c.334-1.282-.45-2.808.306-3.036.756-.227 1.424.914 1.424.914s.332-3.178.952-3.206c.62-.028 1.14 1.339 1.14 1.339s.904.351 1.192.969c.289.617.618 2.168.182 3.946-.435 1.779-2.464 3.153-2.464 3.153l-3.071-1.946a9.589 9.589 0 0 1 .339-2.133z"/>
            <path fill="#020202" d="M154.586 76.772c-.324-.36-.706-.582-1.136-.483-.605.136-.736.832-.582 1.346.066.212 1.288 1.566 1.369 1.406a14.841 14.841 0 0 1-3.193 4.213c-.265.27-.585.481-.939.617-.363.13-.768.041-1.044-.227-2.558-2.92-3.884-6.748-3.037-10.538.113-.682.401-1.324.838-1.86.465-.506 1.227-.794 1.865-.536 1.113-3.102 8.048-2.103 9.36.357 1.574 2.942-1.568 3.734-2.178 5.988a8.202 8.202 0 0 0-.215 1.794c-.184-.5-.561-1.48-1.108-2.077z"/>
        </g>
    </g>
</svg>
