<svg xmlns="http://www.w3.org/2000/svg" xmlns:xlink="http://www.w3.org/1999/xlink" width="494" height="257" viewBox="0 0 494 257">
    <defs>
        <rect id="b" width="542" height="305" x="48" rx="8"/>
        <filter id="a" width="107.4%" height="113.1%" x="-3.7%" y="-5.2%" filterUnits="objectBoundingBox">
            <feMorphology in="SourceAlpha" operator="dilate" radius="2" result="shadowSpreadOuter1"/>
            <feOffset dy="4" in="shadowSpreadOuter1" result="shadowOffsetOuter1"/>
            <feGaussianBlur in="shadowOffsetOuter1" result="shadowBlurOuter1" stdDeviation="4"/>
            <feColorMatrix in="shadowBlurOuter1" values="0 0 0 0 0.853317482 0 0 0 0 0.853317482 0 0 0 0 0.853317482 0 0 0 0.16 0"/>
        </filter>
        <linearGradient id="c" x1="30.036%" x2="70.185%" y1="41.551%" y2="58.543%">
            <stop offset="0%" stop-color="#13122D"/>
            <stop offset="100%" stop-color="#0C0B00" stop-opacity="0"/>
        </linearGradient>
        <linearGradient id="d" x1="0%" y1="50%" y2="50%">
            <stop offset="0%" stop-color="#01C8EF"/>
            <stop offset="13%" stop-color="#04B1DD"/>
            <stop offset="55%" stop-color="#0E6BA7"/>
            <stop offset="85%" stop-color="#154085"/>
            <stop offset="100%" stop-color="#172F78"/>
        </linearGradient>
        <linearGradient id="e" x1="-7863.393%" x2="31621.429%" y1="-5671.46%" y2="22875.255%">
            <stop offset="0%" stop-color="#474595"/>
            <stop offset="100%" stop-color="#11E4FE"/>
        </linearGradient>
        <linearGradient id="f" x1="0%" y1="50.005%" y2="50.005%">
            <stop offset="0%" stop-color="#01C8EF"/>
            <stop offset="13%" stop-color="#04B1DD"/>
            <stop offset="55%" stop-color="#0E6BA7"/>
            <stop offset="85%" stop-color="#154085"/>
            <stop offset="100%" stop-color="#172F78"/>
        </linearGradient>
        <linearGradient id="g" x1="0%" y1="50.002%" y2="50.002%">
            <stop offset="0%" stop-color="#01C8EF"/>
            <stop offset="13%" stop-color="#04B1DD"/>
            <stop offset="55%" stop-color="#0E6BA7"/>
            <stop offset="85%" stop-color="#154085"/>
            <stop offset="100%" stop-color="#172F78"/>
        </linearGradient>
        <linearGradient id="h" x1="0%" y1="49.998%" y2="49.998%">
            <stop offset="0%" stop-color="#01C8EF"/>
            <stop offset="13%" stop-color="#04B1DD"/>
            <stop offset="55%" stop-color="#0E6BA7"/>
            <stop offset="85%" stop-color="#154085"/>
            <stop offset="100%" stop-color="#172F78"/>
        </linearGradient>
        <linearGradient id="i" x1="0%" y1="50%" y2="50%">
            <stop offset="0%" stop-color="#D6D6D6"/>
            <stop offset="100%" stop-color="#EBEAFF"/>
        </linearGradient>
        <linearGradient id="j" x1="0%" y1="49.998%" y2="49.998%">
            <stop offset="0%" stop-color="#D6D6D6"/>
            <stop offset="100%" stop-color="#EBEAFF"/>
        </linearGradient>
        <linearGradient id="k" x1="0%" y1="50%" y2="50%">
            <stop offset="0%" stop-color="#E47E71"/>
            <stop offset="100%" stop-color="#BE1E2D"/>
        </linearGradient>
        <linearGradient id="l" x1="0%" y1="49.482%" y2="49.482%">
            <stop offset="0%" stop-color="#E47E71"/>
            <stop offset="100%" stop-color="#BE1E2D"/>
        </linearGradient>
        <linearGradient id="m" x1="0%" x2="99.95%" y1="50.045%" y2="50.045%">
            <stop offset="0%" stop-color="#E47E71"/>
            <stop offset="100%" stop-color="#BE1E2D"/>
        </linearGradient>
        <linearGradient id="n" x1="0%" y1="50.124%" y2="50.124%">
            <stop offset="0%" stop-color="#E47E71"/>
            <stop offset="100%" stop-color="#BE1E2D"/>
        </linearGradient>
        <linearGradient id="o" x1="0%" y1="49.911%" y2="49.911%">
            <stop offset="0%" stop-color="#E47E71"/>
            <stop offset="100%" stop-color="#BE1E2D"/>
        </linearGradient>
        <linearGradient id="p" x1=".01%" y1="49.702%" y2="49.702%">
            <stop offset="0%" stop-color="#E47E71"/>
            <stop offset="100%" stop-color="#BE1E2D"/>
        </linearGradient>
        <linearGradient id="q" x1="0%" y1="50.079%" y2="50.079%">
            <stop offset="0%" stop-color="#E47E71"/>
            <stop offset="100%" stop-color="#BE1E2D"/>
        </linearGradient>
        <linearGradient id="r" x1="0%" y1="50.102%" y2="50.102%">
            <stop offset="0%" stop-color="#E47E71"/>
            <stop offset="100%" stop-color="#BE1E2D"/>
        </linearGradient>
        <linearGradient id="s" x1="0%" y1="50.08%" y2="50.08%">
            <stop offset="0%" stop-color="#E47E71"/>
            <stop offset="100%" stop-color="#BE1E2D"/>
        </linearGradient>
        <linearGradient id="t" x1="0%" y1="50.113%" y2="50.113%">
            <stop offset="0%" stop-color="#E47E71"/>
            <stop offset="100%" stop-color="#BE1E2D"/>
        </linearGradient>
        <linearGradient id="u" x1="0%" y1="50.017%" y2="50.017%">
            <stop offset="0%" stop-color="#D6D6D6"/>
            <stop offset="100%" stop-color="#EBEAFF"/>
        </linearGradient>
        <linearGradient id="v" x1="0%" y1="50.058%" y2="50.058%">
            <stop offset="0%" stop-color="#D6D6D6"/>
            <stop offset="100%" stop-color="#EBEAFF"/>
        </linearGradient>
        <linearGradient id="w" x1="-.056%" x2="99.944%" y1="50.053%" y2="50.053%">
            <stop offset="0%" stop-color="#231F20"/>
            <stop offset="100%" stop-color="#414042"/>
        </linearGradient>
        <linearGradient id="x" x1="0%" y1="50.046%" y2="50.046%">
            <stop offset="0%" stop-color="#231F20"/>
            <stop offset="100%" stop-color="#414042"/>
        </linearGradient>
        <linearGradient id="y" x1="0%" y1="50.106%" y2="50.106%">
            <stop offset="0%" stop-color="#231F20"/>
            <stop offset="100%" stop-color="#414042"/>
        </linearGradient>
        <linearGradient id="z" x1="0%" y1="50.063%" y2="50.063%">
            <stop offset="0%" stop-color="#231F20"/>
            <stop offset="100%" stop-color="#231F20"/>
        </linearGradient>
        <linearGradient id="A" x1="0%" x2="99.919%" y1="50.161%" y2="50.161%">
            <stop offset="0%" stop-color="#231F20"/>
            <stop offset="100%" stop-color="#231F20"/>
        </linearGradient>
        <linearGradient id="B" x1="-.305%" x2="99.635%" y1="50%" y2="50%">
            <stop offset="0%" stop-color="#231F20"/>
            <stop offset="100%" stop-color="#231F20"/>
        </linearGradient>
        <linearGradient id="C" x1="0%" y1="50.115%" y2="50.115%">
            <stop offset="0%" stop-color="#231F20"/>
            <stop offset="100%" stop-color="#231F20"/>
        </linearGradient>
        <linearGradient id="D" x1="0%" y1="49.841%" y2="49.841%">
            <stop offset="0%" stop-color="#231F20"/>
            <stop offset="100%" stop-color="#231F20"/>
        </linearGradient>
        <linearGradient id="E" x1="0%" y1="50.05%" y2="50.05%">
            <stop offset="0%" stop-color="#231F20"/>
            <stop offset="100%" stop-color="#231F20"/>
        </linearGradient>
        <linearGradient id="F" x1="-.355%" y1="49.918%" y2="49.918%">
            <stop offset="0%" stop-color="#231F20"/>
            <stop offset="100%" stop-color="#231F20"/>
        </linearGradient>
        <linearGradient id="G" x1="0%" y1="50.099%" y2="50.099%">
            <stop offset="0%" stop-color="#231F20"/>
            <stop offset="100%" stop-color="#231F20"/>
        </linearGradient>
        <linearGradient id="H" x1="0%" x2="100.088%" y1="49.941%" y2="49.941%">
            <stop offset="0%" stop-color="#231F20"/>
            <stop offset="100%" stop-color="#231F20"/>
        </linearGradient>
        <linearGradient id="I" x1="0%" y1="50%" y2="50%">
            <stop offset="0%" stop-color="#231F20"/>
            <stop offset="100%" stop-color="#231F20"/>
        </linearGradient>
        <linearGradient id="J" x1="0%" y1="50.064%" y2="50.064%">
            <stop offset="0%" stop-color="#231F20"/>
            <stop offset="100%" stop-color="#414042"/>
        </linearGradient>
        <linearGradient id="K" x1="0%" y1="49.971%" y2="49.971%">
            <stop offset="0%" stop-color="#231F20"/>
            <stop offset="100%" stop-color="#414042"/>
        </linearGradient>
        <linearGradient id="L" x1="0%" y1="50.002%" y2="50.002%">
            <stop offset="0%" stop-color="#D6D6D6"/>
            <stop offset="100%" stop-color="#EBEAFF"/>
        </linearGradient>
        <linearGradient id="M" x1="0%" y1="49.936%" y2="49.936%">
            <stop offset="0%" stop-color="#231F20"/>
            <stop offset="100%" stop-color="#231F20"/>
        </linearGradient>
        <linearGradient id="N" x1=".001%" y1="50.008%" y2="50.008%">
            <stop offset="0%" stop-color="#231F20"/>
            <stop offset="100%" stop-color="#414042"/>
        </linearGradient>
        <linearGradient id="O" x1="71.331%" x2="36.808%" y1="5.073%" y2="77.785%">
            <stop offset="10%" stop-color="#FEC28B"/>
            <stop offset="97%" stop-color="#FF7D3F"/>
        </linearGradient>
        <linearGradient id="P" x1="50%" x2="50%" y1="100%" y2="0%">
            <stop offset="0%" stop-color="#939598"/>
            <stop offset="100%" stop-color="#7A95C5"/>
        </linearGradient>
        <linearGradient id="Q" x1="0%" y1="50.002%" y2="50.002%">
            <stop offset="0%" stop-color="#7A95C5"/>
            <stop offset="100%" stop-color="#939598"/>
        </linearGradient>
        <linearGradient id="R" x1="-.007%" y1="50.01%" y2="50.01%">
            <stop offset="0%" stop-color="#7A95C5"/>
            <stop offset="100%" stop-color="#939598"/>
        </linearGradient>
        <linearGradient id="S" x1="0%" x2="100.004%" y1="50%" y2="50%">
            <stop offset="0%" stop-color="#EBEAFF"/>
            <stop offset="100%" stop-color="#D6D6D6"/>
        </linearGradient>
        <linearGradient id="T" x1="-.007%" y1="50.011%" y2="50.011%">
            <stop offset="0%" stop-color="#939598"/>
            <stop offset="100%" stop-color="#7A95C5"/>
        </linearGradient>
        <linearGradient id="U" x1="-7792.92%" x2="31341.593%" y1="-5571.427%" y2="22472.273%">
            <stop offset="0%" stop-color="#474595"/>
            <stop offset="100%" stop-color="#11E4FE"/>
        </linearGradient>
        <linearGradient id="V" x1="0%" y1="50%" y2="50%">
            <stop offset="0%" stop-color="#01C8EF"/>
            <stop offset="13%" stop-color="#04B1DD"/>
            <stop offset="55%" stop-color="#0E6BA7"/>
            <stop offset="85%" stop-color="#154085"/>
            <stop offset="100%" stop-color="#172F78"/>
        </linearGradient>
        <linearGradient id="W" x1="49.195%" x2="29.851%" y1="55.508%" y2="188.098%">
            <stop offset="0%" stop-color="#01C8EF"/>
            <stop offset="13%" stop-color="#04B1DD"/>
            <stop offset="55%" stop-color="#0E6BA7"/>
            <stop offset="85%" stop-color="#154085"/>
            <stop offset="100%" stop-color="#172F78"/>
        </linearGradient>
        <linearGradient id="X" x1="-7863.393%" x2="31621.429%" y1="-5671.46%" y2="22874.458%">
            <stop offset="0%" stop-color="#474595"/>
            <stop offset="100%" stop-color="#11E4FE"/>
        </linearGradient>
        <linearGradient id="Y" x1="0%" x2="100.015%" y1="50%" y2="50%">
            <stop offset="0%" stop-color="#01C8EF"/>
            <stop offset="13%" stop-color="#04B1DD"/>
            <stop offset="55%" stop-color="#0E6BA7"/>
            <stop offset="85%" stop-color="#154085"/>
            <stop offset="100%" stop-color="#172F78"/>
        </linearGradient>
        <linearGradient id="Z" x1="-7792.92%" x2="31341.593%" y1="-5571.035%" y2="22472.664%">
            <stop offset="0%" stop-color="#474595"/>
            <stop offset="100%" stop-color="#11E4FE"/>
        </linearGradient>
        <radialGradient id="aa" cx="50.097%" cy="49.903%" r="49.903%" fx="50.097%" fy="49.903%">
            <stop offset="14%" stop-color="#FFF200"/>
            <stop offset="14%" stop-color="#FFF313"/>
            <stop offset="15%" stop-color="#FFF544"/>
            <stop offset="17%" stop-color="#FFFA94"/>
            <stop offset="18%" stop-color="#FFF"/>
            <stop offset="19%" stop-color="#FFFBF7"/>
            <stop offset="20%" stop-color="#FEF1E2"/>
            <stop offset="21%" stop-color="#FDE0BE"/>
            <stop offset="22%" stop-color="#FBC98E"/>
            <stop offset="24%" stop-color="#F9AC50"/>
            <stop offset="25%" stop-color="#F7941D"/>
            <stop offset="29%" stop-color="#D78227" stop-opacity=".86"/>
            <stop offset="36%" stop-color="#AC6835" stop-opacity=".66"/>
            <stop offset="44%" stop-color="#855242" stop-opacity=".48"/>
            <stop offset="52%" stop-color="#643F4C" stop-opacity=".33"/>
            <stop offset="60%" stop-color="#492F55" stop-opacity=".21"/>
            <stop offset="68%" stop-color="#35235C" stop-opacity=".12"/>
            <stop offset="77%" stop-color="#261B60" stop-opacity=".05"/>
            <stop offset="87%" stop-color="#1E1663" stop-opacity=".01"/>
            <stop offset="100%" stop-color="#1B1464" stop-opacity="0"/>
        </radialGradient>
        <radialGradient id="ab" cx="50.097%" cy="49.884%" r="49.903%" fx="50.097%" fy="49.884%">
            <stop offset="14%" stop-color="#FFF200"/>
            <stop offset="14%" stop-color="#FFF313"/>
            <stop offset="15%" stop-color="#FFF544"/>
            <stop offset="17%" stop-color="#FFFA94"/>
            <stop offset="18%" stop-color="#FFF"/>
            <stop offset="19%" stop-color="#FFFBF7"/>
            <stop offset="20%" stop-color="#FEF1E2"/>
            <stop offset="21%" stop-color="#FDE0BE"/>
            <stop offset="22%" stop-color="#FBC98E"/>
            <stop offset="24%" stop-color="#F9AC50"/>
            <stop offset="25%" stop-color="#F7941D"/>
            <stop offset="29%" stop-color="#D78227" stop-opacity=".86"/>
            <stop offset="36%" stop-color="#AC6835" stop-opacity=".66"/>
            <stop offset="44%" stop-color="#855242" stop-opacity=".48"/>
            <stop offset="52%" stop-color="#643F4C" stop-opacity=".33"/>
            <stop offset="60%" stop-color="#492F55" stop-opacity=".21"/>
            <stop offset="68%" stop-color="#35235C" stop-opacity=".12"/>
            <stop offset="77%" stop-color="#261B60" stop-opacity=".05"/>
            <stop offset="87%" stop-color="#1E1663" stop-opacity=".01"/>
            <stop offset="100%" stop-color="#1B1464" stop-opacity="0"/>
        </radialGradient>
        <linearGradient id="ac" x1="0%" x2="99.989%" y1="49.992%" y2="49.992%">
            <stop offset="0%" stop-color="#01C8EF"/>
            <stop offset="13%" stop-color="#04B1DD"/>
            <stop offset="55%" stop-color="#0E6BA7"/>
            <stop offset="85%" stop-color="#154085"/>
            <stop offset="100%" stop-color="#172F78"/>
        </linearGradient>
        <linearGradient id="ad" x1=".009%" x2="99.991%" y1="49.976%" y2="49.976%">
            <stop offset="0%" stop-color="#01C8EF"/>
            <stop offset="13%" stop-color="#04B1DD"/>
            <stop offset="55%" stop-color="#0E6BA7"/>
            <stop offset="85%" stop-color="#154085"/>
            <stop offset="100%" stop-color="#172F78"/>
        </linearGradient>
    </defs>
    <g fill="none" fill-rule="evenodd">
        <path fill="#F0F5FA" d="M-1461-337h2761v906h-2761z"/>
        <g transform="translate(-72 -24)">
            <use fill="#000" filter="url(#a)" xlink:href="#b"/>
            <use fill="#FFF" xlink:href="#b"/>
        </g>
        <g transform="translate(107 6)">
            <ellipse cx="166.039" cy="14.553" fill="#DD9400" fill-rule="nonzero" rx="12.671" ry="14.522"/>
            <ellipse cx="162.391" cy="15.289" fill="#FECF03" fill-rule="nonzero" rx="12.671" ry="14.522"/>
            <ellipse cx="210.944" cy="139.615" fill="#DD9400" fill-rule="nonzero" rx="8.165" ry="9.357"/>
            <ellipse cx="208.591" cy="140.088" fill="#FECF03" fill-rule="nonzero" rx="8.165" ry="9.357"/>
            <path fill="url(#c)" fill-rule="nonzero" d="M160.754 38.304L65.631 93.221c-2.298 1.331-6.022 1.331-8.315 0L1.782 60.944c-2.286-1.323-2.272-3.483.029-4.816L96.934 1.211c2.298-1.333 6.03-1.333 8.316 0l55.526 32.275c2.293 1.326 2.286 3.485-.022 4.818z" opacity=".2" transform="translate(50.168 149.787)"/>
            <path stroke="#FFB800" stroke-width="1.9" d="M159.897 38.741a66.414 66.414 0 0 1 27.929-6.115c36.814 0 66.651 29.845 66.651 66.651 0 36.807-29.842 66.652-66.651 66.652a66.373 66.373 0 0 1-33.14-8.806"/>
            <g fill-rule="nonzero">
                <path fill="url(#d)" d="M31.412 8.887l-.05 17.336-15.946 9.289-.12.074.048-17.34.122-.07 3.027-1.766h.002z" transform="translate(228.86 115.625)"/>
                <path fill="url(#e)" d="M15.466 18.175l-.122.072-.146-.086.118-.072z" transform="translate(228.86 115.625)"/>
                <path fill="#FECF03" d="M260.273 124.512l-12.917 7.523h-.002l-3.027 1.765-.15-.086-.118.072-14.943-8.627.12-.07 15.948-9.29z"/>
                <path fill="url(#f)" d="M15.344 18.247l-.048 17.339-15.09-8.713.05-17.339 14.942 8.627z" transform="translate(228.86 115.625)"/>
            </g>
            <path fill="url(#g)" fill-rule="nonzero" d="M219.685 81.506l-.098 34.668-31.89 18.574.098-34.666 6.051-3.528z"/>
            <path fill="#FECF03" fill-rule="nonzero" d="M194.123 96.418l-6.058 3.528-.296-.17 6.108-3.54z"/>
            <path fill="#FECF03" fill-rule="nonzero" d="M188.065 99.946l-.24.139-.293-.167.237-.141z"/>
            <path fill="#FECF03" fill-rule="nonzero" d="M189.782 63.947l30.18 17.425-25.839 15.046-.246-.182-6.108 3.54-.237.142-29.886-17.249.246-.148z"/>
            <path fill="url(#h)" fill-rule="nonzero" d="M187.826 100.085l-.098 34.675-30.18-17.417.098-34.674 29.886 17.249z"/>
            <g fill-rule="nonzero">
                <path fill="url(#i)" d="M103.078 82.141l-2.47-1.435-.203-71.26 2.472 1.436z" transform="translate(47.54 42.284)"/>
                <path fill="url(#j)" d="M5.956 138.215l-2.47-1.436 97.122-56.073 2.47 1.435z" transform="translate(47.54 42.284)"/>
                <path fill="#BFBFBF" d="M53.295 109.242l-2.473-1.439 97.123-56.073 2.47 1.436z"/>
                <path fill="url(#k)" d="M58.5 28.285c.106.01.208.043.3.096l2.47 1.433a.733.733 0 0 0-.3-.096l-2.47-1.433z" transform="translate(47.54 42.284)"/>
                <path fill="url(#l)" d="M56.697 32.012a.812.812 0 0 1-.337-.411l2.47 1.433a.803.803 0 0 0 .34.411l-2.473-1.433z" transform="translate(47.54 42.284)"/>
                <path fill="url(#m)" d="M57.688 29.821a.351.351 0 0 0-.146-.322l2.47 1.433c.104.074.16.196.149.323-.02.356-.208.683-.507.879L57.182 30.7c.3-.195.487-.522.506-.879z" transform="translate(47.54 42.284)"/>
                <path fill="url(#n)" d="M56.823 30.734a.349.349 0 0 0 .359-.034l2.472 1.434a.354.354 0 0 1-.36.033l-2.47-1.433z" transform="translate(47.54 42.284)"/>
                <path fill="#F98FA0" d="M105.082 71.783l2.47 1.433a.366.366 0 0 0-.363.036l-2.47-1.433a.358.358 0 0 1 .363-.036z"/>
                <path fill="url(#o)" d="M57.743 28.483c.226-.143.49-.212.757-.198l2.47 1.433a1.288 1.288 0 0 0-.757.201l-2.47-1.436z" transform="translate(47.54 42.284)"/>
                <path fill="#F98FA0" d="M106.834 74.454l-2.47-1.434a.356.356 0 0 1-.149-.327c.02-.354.207-.678.504-.872l2.47 1.434c-.297.194-.485.519-.504.874a.354.354 0 0 0 .149.325z"/>
                <path fill="url(#p)" d="M56.264 31.056c.004-.283.054-.563.146-.831l2.47 1.433a2.661 2.661 0 0 0-.145.832c-.003.185.03.369.095.542l-2.47-1.433a1.433 1.433 0 0 1-.096-.543z" transform="translate(47.54 42.284)"/>
                <path fill="url(#q)" d="M56.434 30.146l2.473 1.433c0 .024-.017.048-.027.07l-2.47-1.434c.007-.024.017-.045.024-.069z" transform="translate(47.54 42.284)"/>
                <path fill="url(#r)" d="M56.814 29.398c.237-.37.554-.684.93-.915l2.47 1.434c-.375.23-.693.542-.93.912l-2.47-1.43z" transform="translate(47.54 42.284)"/>
                <path fill="url(#s)" d="M56.77 29.463l.044-.065 2.47 1.434-.043.064z" transform="translate(47.54 42.284)"/>
                <path fill="url(#t)" d="M56.77 29.463l2.471 1.433a3.478 3.478 0 0 0-.334.683l-2.473-1.433c.088-.239.2-.468.337-.683z" transform="translate(47.54 42.284)"/>
                <path fill="url(#u)" d="M54.659 31.811c0-.889-.318-1.517-.824-1.81l2.472 1.433c.507.294.82.922.822 1.81 0 1.348-.705 2.913-1.717 3.992l-2.473-1.433c1.015-1.08 1.722-2.644 1.72-3.992z" transform="translate(47.54 42.284)"/>
                <path fill="url(#v)" d="M51.84 36.692c.408-.24.778-.54 1.099-.889l2.473 1.433a4.933 4.933 0 0 1-1.1.89c-.785.453-1.497.496-2.01.197L49.83 36.89c.514.296 1.225.256 2.01-.198z" transform="translate(47.54 42.284)"/>
                <path fill="url(#w)" d="M51.84 35.62a3.913 3.913 0 0 0 1.775-3.073l2.47 1.433a3.906 3.906 0 0 1-1.775 3.073l-2.47-1.434z" transform="translate(47.54 42.284)"/>
                <path fill="url(#x)" d="M53.613 32.547c0-.561-.201-.956-.519-1.14l2.47 1.434c.318.184.516.58.519 1.14l-2.47-1.434z" transform="translate(47.54 42.284)"/>
                <path fill="url(#y)" d="M50.574 35.743c.322.19.77.163 1.264-.124l2.47 1.434c-.495.286-.941.312-1.264.124l-2.47-1.434z" transform="translate(47.54 42.284)"/>
                <path fill="url(#z)" d="M50.574 35.743a.956.956 0 0 1-.392-.456l2.473 1.433c.077.19.214.35.39.457l-2.471-1.434z" transform="translate(47.54 42.284)"/>
                <path fill="url(#A)" d="M50.696 34.277a.478.478 0 0 0 .478-.048l2.47 1.433a.478.478 0 0 1-.478.048l-2.47-1.433z" transform="translate(47.54 42.284)"/>
                <path fill="url(#B)" d="M51.84 33.084a.478.478 0 0 0-.193-.427l2.47 1.433a.478.478 0 0 1 .193.428c-.02.466-.266.893-.66 1.144l-2.47-1.433c.391-.254.636-.68.66-1.145z" transform="translate(47.54 42.284)"/>
                <path fill="url(#C)" d="M50.182 35.287a1.727 1.727 0 0 1-.126-.635l2.47 1.433c.002.218.046.434.129.635l-1.235-.716-.64-.373-.309-.18a1.235 1.235 0 0 1-.289-.164z" transform="translate(47.54 42.284)"/>
                <path fill="#F1F2F2" d="M99.177 74.941l2.47 1.434a.459.459 0 0 0-.478.045l-2.47-1.433a.459.459 0 0 1 .478-.046z"/>
                <path fill="url(#D)" d="M51.826 31.534c.494-.284.943-.31 1.266-.124l2.47 1.433c-.322-.186-.772-.16-1.264.124l-2.472-1.433z" transform="translate(47.54 42.284)"/>
                <path fill="#F1F2F2" d="M100.708 77.997l-2.47-1.434a.478.478 0 0 1-.196-.427c.026-.467.273-.893.664-1.147l2.47 1.433c-.39.255-.636.681-.661 1.147a.478.478 0 0 0 .193.428z"/>
                <path fill="url(#E)" d="M50.056 34.601c0-.301.048-.601.14-.888l2.47 1.433c-.09.288-.137.587-.14.889v.05l-2.47-1.433v-.05z" transform="translate(47.54 42.284)"/>
                <path fill="url(#F)" d="M50.206 33.684l2.47 1.433v.032l-2.47-1.434a.155.155 0 0 1 0-.03z" transform="translate(47.54 42.284)"/>
                <path fill="url(#G)" d="M50.787 32.518c.272-.4.626-.737 1.039-.989l2.472 1.434a3.43 3.43 0 0 0-1.041.989c-.824-.477-1.647-.954-2.47-1.434z" transform="translate(47.54 42.284)"/>
                <path fill="url(#H)" d="M50.206 33.684c.063-.205.143-.404.239-.595l2.47 1.434c-.096.19-.176.39-.239.594l-2.47-1.433z" transform="translate(47.54 42.284)"/>
                <path fill="url(#I)" d="M50.787 32.518c.821.478 1.645.956 2.47 1.434-.128.18-.241.37-.34.568l-2.47-1.433c.098-.198.212-.388.34-.569z" transform="translate(47.54 42.284)"/>
                <path fill="url(#J)" d="M53.835 30l2.47 1.434c-.514-.299-1.226-.256-2.011.198l-2.47-1.433c.785-.457 1.497-.497 2.01-.199z" transform="translate(47.54 42.284)"/>
                <path fill="url(#K)" d="M52.304 38.326l-2.473-1.434c-.506-.293-.822-.922-.824-1.813 0-1.791 1.256-3.975 2.816-4.876l2.47 1.434c-1.56.9-2.82 3.084-2.816 4.876.002.89.318 1.517.827 1.813z" transform="translate(47.54 42.284)"/>
                <path fill="url(#L)" d="M103.038 1.911c1.643-.955 2.99-.179 2.995 1.708l.218 76.783c0 1.885-1.333 4.205-2.977 5.153l-97.493 56.29c-1.643.956-2.99.18-2.995-1.705l-.22-76.783c0-1.887 1.335-4.207 2.976-5.155l97.496-56.29zm.04 80.228l-.2-71.26L5.754 66.957l.2 71.258 97.123-56.074M54.294 31.634c-1.56.901-2.822 3.085-2.817 4.876.005 1.792 1.276 2.518 2.836 1.618 1.56-.901 2.821-3.085 2.816-4.881-.005-1.797-1.273-2.516-2.835-1.613" transform="translate(47.54 42.284)"/>
                <path fill="#F1F2F2" d="M101.177 76.422c.367-.212.664-.04.664.383a1.452 1.452 0 0 1-.66 1.146c-.368.21-.666.04-.666-.382.025-.466.27-.892.662-1.147z"/>
                <path fill="url(#M)" d="M54.298 32.967c.982-.566 1.782-.11 1.785 1.018a3.906 3.906 0 0 1-1.775 3.072c-.982.569-1.78.11-1.782-1.017a3.906 3.906 0 0 1 1.772-3.073zm-.657 2.7c.393-.252.64-.678.66-1.144 0-.423-.297-.595-.664-.383-.391.255-.637.681-.662 1.147 0 .423.298.593.666.38" transform="translate(47.54 42.284)"/>
                <path fill="url(#N)" d="M54.294 31.634c1.562-.903 2.83-.179 2.835 1.613.005 1.792-1.254 3.98-2.816 4.88-1.563.901-2.829.18-2.836-1.617-.007-1.796 1.257-3.975 2.817-4.876zm.014 5.42a3.906 3.906 0 0 0 1.775-3.071c0-1.128-.803-1.584-1.785-1.018a3.906 3.906 0 0 0-1.772 3.072c0 1.128.8 1.586 1.782 1.018" transform="translate(47.54 42.284)"/>
                <path fill="url(#i)" d="M5.956 138.215l-2.47-1.438-.204-71.258 2.473 1.438z" transform="translate(47.54 42.284)"/>
                <path fill="url(#O)" d="M5.956 138.215l-.201-71.258 97.12-56.075.203 71.26z" transform="translate(47.54 42.284)"/>
                <path fill="url(#P)" d="M3.657 142.051l-2.47-1.433c-.54-.315-.87-.975-.876-1.911L.093 61.919l2.478 1.433.217 76.786c0 .939.334 1.598.87 1.913z" transform="translate(47.54 42.284)"/>
                <path fill="url(#Q)" d="M105.159 1.708c-.547-.315-1.297-.272-2.124.203L5.542 58.204c-1.64.956-2.979 3.266-2.971 5.153L.093 61.924c0-1.885 1.333-4.207 2.982-5.153l97.5-56.293c.826-.478 1.576-.528 2.123-.21l2.46 1.44z" transform="translate(47.54 42.284)"/>
            </g>
            <g fill-rule="nonzero">
                <path fill="#A3B7CE" d="M126.855 190.537l.01 2.86 11.746 6.825-.01-2.857zM160.238 174.77l.008 2.86 11.746 6.825-.007-2.857z"/>
                <path fill="#A3B7CE" d="M171.985 181.598l.007 2.857 3.593 2.088-.007-2.857zM126.855 194.044l.01 2.857 33.38-19.271-.007-2.86z"/>
                <path fill="#A3B7CE" d="M155.29 189.133l.008 2.857 16.694-9.637-.007-2.86zM158.884 191.22l.007 2.858 16.694-9.637-.007-2.857z"/>
                <path fill="#A3B7CE" d="M155.29 189.133l.008 2.857 3.593 2.088-.007-2.857z"/>
                <path fill="#B0CAE2" d="M155.29 189.133l3.594 2.088 16.694-9.637-3.593-2.09z"/>
                <path fill="#A3B7CE" d="M138.602 198.767l.01 2.857 16.686-9.634-.007-2.857zM142.197 200.855l.007 2.857 16.687-9.634-.007-2.857z"/>
                <path fill="#A3B7CE" d="M138.602 198.767l.01 2.857 3.592 2.088-.007-2.857z"/>
                <path fill="#D0E0F7" d="M126.855 191.94l11.747 6.827 16.689-9.634 16.694-9.64-11.747-6.825z"/>
                <path fill="#9EBADD" d="M138.602 198.767l3.595 2.088 16.687-9.634-3.593-2.088z"/>
                <path fill="#A3B7CE" d="M149.163 132.625l.01 2.86 5.609 3.26-.007-2.86z"/>
                <path fill="#A3B7CE" d="M140.25 137.773l.01 2.857 8.913-5.146-.01-2.86zM156.934 137.142l.008 2.857 5.606 3.259-.007-2.857zM148.021 142.288l.007 2.857 8.914-5.146-.008-2.857zM137.543 139.335l.01 2.857 5.61 3.261-.008-2.857z"/>
                <path fill="#A3B7CE" d="M128.63 144.48l.01 2.858 8.913-5.146-.01-2.857zM165.071 141.442l.007 2.857 5.61 3.261-.008-2.86z"/>
                <path fill="#A3B7CE" d="M156.158 146.588l.007 2.86 8.913-5.149-.007-2.857zM145.315 143.85l.007 2.857 5.607 3.259-.008-2.857z"/>
                <path fill="#A3B7CE" d="M136.401 148.996l.008 2.857 8.913-5.146-.007-2.857zM173.13 146.124l.006 2.858 5.612 3.26-.01-2.857z"/>
                <path fill="#A3B7CE" d="M164.216 151.27l.007 2.857 8.913-5.145-.007-2.858zM153.451 148.15l.01 2.86 5.607 3.258-.007-2.86z"/>
                <path fill="#A3B7CE" d="M144.538 153.296l.01 2.86 8.913-5.146-.01-2.86zM133.783 150.819l.007 2.86 5.605 3.255-.007-2.857z"/>
                <path fill="#A3B7CE" d="M124.87 155.965l.007 2.86 8.913-5.147-.007-2.86zM161.51 152.833l.006 2.86 5.612 3.258-.01-2.857z"/>
                <path fill="#A3B7CE" d="M152.596 157.978l.007 2.86 8.913-5.146-.007-2.86zM141.92 155.119l.007 2.857 5.605 3.256-.008-2.857zM173.872 155.75l.01 2.857 5.604 3.258-.01-2.86z"/>
                <path fill="#A3B7CE" d="M133.007 160.265l.007 2.857 8.913-5.146-.007-2.857zM122.163 157.527l.008 2.86 5.604 3.256-.007-2.858zM164.959 160.895l.01 2.86 8.913-5.148-.01-2.857z"/>
                <path fill="#A3B7CE" d="M113.25 162.675l.007 2.857 8.914-5.146-.008-2.86zM149.978 159.801l.007 2.857 5.612 3.261-.01-2.857zM141.065 164.947l.007 2.857 8.913-5.146-.007-2.857zM130.3 161.827l.007 2.857 5.605 3.256-.007-2.857zM163.241 162.126l.007 2.857 5.199 3.02-.007-2.858z"/>
                <path fill="url(#R)" d="M162.503 38.715c0 .877-.583 1.76-1.74 2.427L65.642 96.06v-2.866l95.123-54.917c1.149-.667 1.732-1.541 1.732-2.41l.007 2.85z" transform="translate(51.123 128.047)"/>
                <path fill="#A3B7CE" d="M121.387 166.973l.007 2.857 8.913-5.146-.007-2.857zM110.756 164.106l.007 2.857 5.612 3.261-.007-2.857zM101.843 169.252l.007 2.857 8.913-5.146-.007-2.857zM138.358 166.51l.007 2.857 5.612 3.26-.01-2.857zM118.898 168.41l.01 2.858 5.601 3.256-.007-2.857z"/>
                <path fill="#A3B7CE" d="M129.445 171.655l.007 2.857 8.913-5.145-.007-2.858zM109.985 173.557l.007 2.857 8.915-5.146-.01-2.857zM99.13 170.819l.009 2.857 5.609 3.261-.007-2.857zM90.216 175.965l.007 2.857 8.916-5.146-.01-2.857zM126.956 173.09l.007 2.86 5.611 3.261-.01-2.86zM79.838 173.27l.01 2.86 5.61 3.26-.008-2.859zM118.042 178.24l.008 2.856 8.913-5.146-.007-2.86zM70.925 178.418l.008 2.857 8.915-5.145-.01-2.86zM107.27 175.121l.01 2.86 5.605 3.256-.01-2.86z"/>
                <path fill="#A3B7CE" d="M98.358 180.267l.01 2.86 8.912-5.146-.01-2.86zM87.605 177.785l.007 2.857 5.612 3.261-.007-2.857zM78.692 182.93l.007 2.858 8.913-5.146-.007-2.857zM115.329 179.804l.007 2.86 5.611 3.258-.007-2.857zM68.211 179.983l.01 2.86 5.61 3.258-.008-2.857z"/>
                <path fill="#A3B7CE" d="M106.415 184.95l.008 2.86 8.913-5.147-.007-2.86zM59.298 185.131l.01 2.857 8.913-5.145-.01-2.86zM95.749 182.088l.007 2.857 5.604 3.256-.007-2.857zM86.836 187.233l.007 2.858 8.913-5.146-.007-2.857zM75.978 184.496l.01 2.86 5.609 3.26-.007-2.86z"/>
                <path fill="#A3B7CE" d="M67.065 189.644l.007 2.857 8.916-5.146-.01-2.86zM103.804 186.768l.01 2.86 5.612 3.26-.01-2.86z"/>
                <path fill="#A3B7CE" d="M94.894 191.916l.007 2.857 8.913-5.146-.01-2.86zM84.122 188.798l.01 2.86 5.604 3.256-.01-2.857zM75.209 193.946l.01 2.858 8.912-5.146-.01-2.86zM107.436 194.345l.007 2.857 55.805-32.22-.007-2.856zM92.18 193.48l.007 2.86 5.612 3.259-.008-2.858z"/>
                <path fill="#A3B7CE" d="M83.267 198.629l.007 2.857 8.913-5.146-.007-2.86zM104.547 195.542l.007 2.857 5.605 3.256-.01-2.857zM95.639 200.683l.01 2.857 8.905-5.14-.007-2.858z"/>
                <path fill="url(#S)" d="M96.931 1.194c2.303-1.328 6.03-1.328 8.316 0l55.529 32.275c2.288 1.328 2.277 3.488-.029 4.816l-95.113 54.92c-2.303 1.33-6.03 1.33-8.318 0L1.782 60.93c-2.288-1.328-2.277-3.488.026-4.816l95.123-54.92zM87.478 71.43l3.596 2.088 16.686-9.632 16.704-9.656-3.583-2.088-11.747-6.828L75.73 64.595l11.748 6.834m-25.967-2.102l55.805-32.22-5.198-3.02-55.806 32.211 5.199 3.02m14.321-24.274l-8.913 5.148 5.61 3.258 8.912-5.146-5.609-3.26m-11.627 6.712l-8.913 5.146 5.612 3.261 8.913-5.146-5.612-3.26m34.64-20.003L89.932 36.9l5.626 3.26 8.913-5.148-5.617-3.258M98.04 4.577l-8.913 5.148 5.611 3.261 8.913-5.148-5.611-3.26m-76.487 60.28l8.913-5.149-5.621-3.26-8.913 5.148 5.611 3.26m26.475-22.095l-8.913 5.146 5.611 3.26 8.913-5.145-5.611-3.26m-11.536 6.975l-8.914 5.146 5.61 3.26L42.093 53l-5.611-3.261m1.263 24.102l8.916-5.146-5.605-3.26-8.913 5.145 5.602 3.26m49.49-35.377l-8.913 5.146 5.609 3.26 8.913-5.145-5.61-3.261m-.814-27.174l-8.913 5.146 5.612 3.26 8.913-5.145-5.612-3.261m-26.787 24.77l-8.913 5.146 5.611 3.261 8.913-5.145-5.611-3.261m-6.95 22.664l-8.915 5.145 5.611 3.261 8.911-5.148-5.609-3.258m57.705-33.938l-8.913 5.146 5.609 3.261 8.913-5.146-5.61-3.26m11.62-6.709l-8.912 5.146 5.609 3.26 8.913-5.145-5.61-3.26M13.788 60.341l8.908-5.145-5.607-3.261-8.913 5.16 5.612 3.258m14.928-15.117l-8.913 5.146 5.612 3.26 8.913-5.147-5.612-3.27m73.613-25.123l-8.92 5.146 5.609 3.26 8.913-5.145-5.61-3.261m11.633-6.708l-8.914 5.146 5.61 3.26 8.913-5.148-5.61-3.258m-8.136-4.3l-8.913 5.145 5.607 3.259 8.913-5.148-5.607-3.256m-11.62 6.708l-8.91 5.146 5.606 3.258 8.913-5.146-5.607-3.258m25.25 20.306l8.912-5.148-5.611-3.25-8.913 5.137 5.611 3.258M71.04 29.48l-8.913 5.16 5.604 3.256 8.913-5.167-5.604-3.25M29.69 69.156l8.913-5.146-5.605-3.258-8.913 5.148 5.605 3.256m26.45-22.08l-8.913 5.145 5.604 3.258 8.914-5.145-5.605-3.259m34.64-20.002l-8.913 5.145 5.604 3.256 8.93-5.133-5.604-3.257m-23.023 13.29l-8.913 5.136 5.605 3.256 8.913-5.145-5.605-3.247m-23.149 13.68l-8.913 5.145 5.617 3.244 8.913-5.146-5.617-3.256m38.032-31.269l-8.91 5.146 5.604 3.259 8.913-5.137-5.607-3.268m-3.48 11.009l-8.913 5.145 5.604 3.257 8.913-5.153-5.604-3.25M50.12 75.893l8.906-5.141-5.604-3.256-8.906 5.14 5.604 3.257" transform="translate(51.123 128.047)"/>
                <path fill="url(#T)" d="M65.641 96.06c-2.3 1.332-6.03 1.332-8.316 0L1.792 63.784c-1.137-.66-1.706-1.527-1.713-2.39V58.53c0 .87.573 1.732 1.71 2.39l55.534 32.274c2.286 1.333 6.015 1.333 8.316 0l.002 2.866z" transform="translate(51.123 128.047)"/>
                <path fill="#A3B7CE" d="M145.862 138.929l.007 2.857 8.913-5.146-.007-2.857z"/>
                <path fill="#A3B7CE" d="M140.25 135.668l.01 2.857 5.609 3.261-.007-2.857z"/>
                <path fill="#D0E0F7" d="M140.25 135.668l5.612 3.261 8.913-5.146-5.612-3.26z"/>
                <path fill="#A3B7CE" d="M153.628 143.442l.007 2.857 8.913-5.146-.007-2.857z"/>
                <path fill="#A3B7CE" d="M148.021 140.183l.007 2.86 5.607 3.256-.007-2.857zM134.242 145.637l.007 2.86 8.913-5.148-.007-2.858z"/>
                <path fill="#A3B7CE" d="M128.63 142.376l.01 2.86 5.61 3.26-.008-2.859zM161.767 147.744l.007 2.857 8.914-5.145-.008-2.858z"/>
                <path fill="#A3B7CE" d="M156.158 144.486l.007 2.857 5.61 3.258-.008-2.857zM150.147 154.452l.008 2.86 8.913-5.148-.007-2.857zM136.401 146.891l.008 2.86 5.607 3.258-.008-2.86z"/>
                <path fill="#D0E0F7" d="M136.401 146.891l5.607 3.259 8.913-5.146-5.606-3.258z"/>
                <path fill="#A3B7CE" d="M142.008 150.15l.008 2.86 8.913-5.146-.008-2.86zM169.825 152.427l.01 2.86 8.913-5.147-.01-2.86z"/>
                <path fill="#A3B7CE" d="M164.216 149.168l.007 2.857 5.612 3.261-.01-2.86z"/>
                <path fill="#D0E0F7" d="M164.216 149.168l5.61 3.259 8.912-5.146-5.609-3.259z"/>
                <path fill="#A3B7CE" d="M158.205 159.137l.01 2.857 8.913-5.146-.01-2.857zM144.538 151.194l.007 2.857 5.61 3.26-.008-2.859zM124.87 153.862l.007 2.857 5.605 3.257-.01-2.858z"/>
                <path fill="#D0E0F7" d="M124.87 153.862l5.602 3.256 8.916-5.145-5.605-3.257z"/>
                <path fill="#A3B7CE" d="M130.472 157.118l.01 2.858 8.913-5.146-.007-2.857z"/>
                <path fill="#D0E0F7" d="M152.596 155.876l5.61 3.261 8.913-5.146-5.61-3.26z"/>
                <path fill="#A3B7CE" d="M152.596 155.876l.007 2.857 5.612 3.261-.01-2.857zM146.674 166.103l.01 2.857 8.913-5.145-.01-2.858z"/>
                <path fill="#D0E0F7" d="M133.007 158.16l5.604 3.256 8.913-5.146-5.604-3.256z"/>
                <path fill="#A3B7CE" d="M138.611 161.416l.007 2.86 8.914-5.146-.008-2.86z"/>
                <path fill="#A3B7CE" d="M133.007 158.16l.007 2.857 5.604 3.259-.007-2.86z"/>
                <path fill="#9BADBF" d="M164.959 158.793l5.604 3.256 8.914-5.146-5.605-3.256z"/>
                <path fill="#A3B7CE" d="M164.959 158.793l.01 2.857 5.602 3.256-.008-2.857z"/>
                <path fill="#A3B7CE" d="M170.563 162.05l.008 2.856 8.915-5.145-.01-2.858zM113.25 160.57l.007 2.858 5.605 3.258-.007-2.86z"/>
                <path fill="#D0E0F7" d="M113.25 160.57l5.605 3.257 8.913-5.146-5.605-3.256z"/>
                <path fill="#A3B7CE" d="M118.855 163.827l.007 2.86 8.913-5.147-.007-2.86z"/>
                <path fill="#D0E0F7" d="M141.065 162.842l5.609 3.261 8.913-5.146-5.61-3.26z"/>
                <path fill="#A3B7CE" d="M141.065 162.842l.007 2.86 5.612 3.258-.01-2.857zM135.054 172.811l.01 2.86 8.913-5.148-.01-2.857zM121.387 164.868l.007 2.86 5.605 3.256-.008-2.857z"/>
                <path fill="#D0E0F7" d="M121.387 164.868l5.604 3.259 8.914-5.146-5.605-3.259z"/>
                <path fill="#A3B7CE" d="M126.991 168.127l.008 2.857 8.913-5.146-.007-2.857zM107.452 170.41l.01 2.858 8.913-5.146-.007-2.86z"/>
                <path fill="#A3B7CE" d="M101.843 167.15l.007 2.857 5.612 3.26-.01-2.857zM95.828 177.121l.007 2.86 8.913-5.146-.007-2.86zM129.445 169.55l.007 2.86 5.612 3.26-.01-2.859z"/>
                <path fill="#D0E0F7" d="M129.445 169.55l5.61 3.261 8.912-5.145-5.609-3.261z"/>
                <path fill="#A3B7CE" d="M123.652 179.395l.01 2.857 8.912-5.145-.01-2.857z"/>
                <path fill="#D0E0F7" d="M109.985 171.452l5.604 3.256 8.913-5.146-5.604-3.256z"/>
                <path fill="#A3B7CE" d="M115.589 174.708l.007 2.86 8.913-5.146-.007-2.86z"/>
                <path fill="#A3B7CE" d="M109.985 171.452l.007 2.857 5.604 3.259-.007-2.86z"/>
                <path fill="#D0E0F7" d="M90.216 173.86l5.612 3.261 8.913-5.146-5.612-3.26z"/>
                <path fill="#A3B7CE" d="M90.216 173.86l.01 2.86 5.609 3.26-.007-2.859zM84.301 184.087l.01 2.857 8.913-5.145-.007-2.858zM118.042 176.134l.008 2.858 5.611 3.26-.01-2.857z"/>
                <path fill="#D0E0F7" d="M118.042 176.134l5.61 3.261 8.913-5.145-5.61-3.261z"/>
                <path fill="#A3B7CE" d="M76.537 179.574l.007 2.858 8.913-5.146-.007-2.857z"/>
                <path fill="#A3B7CE" d="M70.925 176.314l.008 2.857 5.611 3.26-.007-2.857z"/>
                <path fill="#D0E0F7" d="M71.277 176.488l5.26 3.058 8.359-4.826-5.263-3.055z"/>
                <path fill="#A3B7CE" d="M112.027 186.108l.007 2.857 8.913-5.145-.007-2.858zM103.962 181.421l.01 2.857 8.913-5.145-.01-2.858z"/>
                <path fill="#A3B7CE" d="M98.358 178.165l.01 2.857 5.604 3.256-.01-2.857z"/>
                <path fill="#D0E0F7" d="M98.358 178.165l5.604 3.256 8.913-5.146-5.604-3.256zM78.692 180.826l5.609 3.261 8.916-5.146-5.612-3.26z"/>
                <path fill="#A3B7CE" d="M78.692 180.826l.007 2.86 5.612 3.258-.01-2.857z"/>
                <path fill="#A3B7CE" d="M72.908 190.504l.01 2.857 8.913-5.146-.01-2.86z"/>
                <path fill="#D0E0F7" d="M106.415 182.847l5.612 3.261 8.913-5.146-5.611-3.26z"/>
                <path fill="#A3B7CE" d="M106.415 182.847l.008 2.858 5.611 3.26-.007-2.857zM59.298 183.026l.01 2.858 5.61 3.26-.008-2.857z"/>
                <path fill="#A3B7CE" d="M64.91 186.287l.007 2.858 8.913-5.146-.007-2.857zM86.836 185.129l.007 2.857 5.604 3.258-.007-2.857z"/>
                <path fill="#A3B7CE" d="M92.44 188.387l.007 2.857 8.913-5.145-.007-2.86zM80.813 195.098l.007 2.86 8.916-5.149-.01-2.857zM67.299 187.243l.007 2.857 5.612 3.261-.01-2.857z"/>
                <path fill="#A3B7CE" d="M94.894 189.811l.007 2.857 5.611 3.261-.01-2.857zM100.503 193.072l.01 2.857 8.913-5.146-.01-2.857zM88.876 199.785l.01 2.857 8.913-5.146-.008-2.857z"/>
                <path fill="#D0E0F7" d="M75.209 191.842l5.604 3.256 8.913-5.146-5.604-3.256z"/>
                <path fill="#A3B7CE" d="M75.209 191.842l.01 2.857 5.601 3.258-.007-2.86zM107.436 192.24l.007 2.858 5.198 3.022-.007-2.857z"/>
                <path fill="#A3B7CE" d="M112.634 195.263l.007 2.857 55.806-32.22-.007-2.857z"/>
                <path fill="#D0E0F7" d="M107.436 192.24l5.198 3.023 55.806-32.22-5.199-3.022z"/>
                <path fill="#A3B7CE" d="M83.267 196.524l.007 2.857 5.611 3.261-.01-2.857z"/>
                <path fill="#D0E0F7" d="M83.267 196.524l5.609 3.26 8.915-5.145-5.611-3.26z"/>
                <path fill="#A3B7CE" d="M101.243 201.837l.01 2.857 8.906-5.14-.01-2.86zM95.639 198.58l.01 2.858 5.604 3.256-.01-2.857z"/>
                <path fill="#D0E0F7" d="M95.639 198.58l5.604 3.257 8.906-5.143-5.602-3.256zM148.021 140.183l5.607 3.259 8.913-5.146-5.607-3.259zM128.63 142.376l5.612 3.261 8.913-5.146-5.612-3.26zM156.158 144.486l5.61 3.258 8.912-5.146-5.609-3.26zM144.538 151.194l5.61 3.258 8.913-5.145-5.61-3.259zM101.843 167.15l5.61 3.26 8.915-5.148-5.612-3.26zM59.298 183.026l5.612 3.261 8.913-5.145-5.612-3.261zM86.836 185.129l5.604 3.258 8.913-5.148-5.604-3.256zM67.519 187.281l5.528 3.209 8.784-5.065-5.53-3.208zM94.894 189.811l5.609 3.261 8.913-5.146-5.61-3.26z"/>
            </g>
            <g fill-rule="nonzero">
                <path fill="#FFB800" d="M206.548 23.634L206.5 40.97l-15.948 9.289-.12.074.05-17.337.122-.074 3.027-1.763h.002z"/>
                <path fill="url(#U)" d="M15.495 18.11l-.122.075-.148-.089.12-.069z" transform="translate(175.11 14.811)"/>
                <path fill="#FECF03" d="M206.548 23.634l-12.915 7.525h-.002l-3.027 1.763-.15-.084-.12.07-14.943-8.624.12-.072 15.948-9.29z"/>
                <path fill="url(#V)" d="M15.373 18.185l-.05 17.336L.234 26.81.282 9.472l14.943 8.624z" transform="translate(175.11 14.811)"/>
            </g>
            <g fill-rule="nonzero">
                <path fill="url(#W)" d="M31.333 8.846l-.05 17.337-15.948 9.288-.117.072.047-17.337.122-.074 3.027-1.763h.005z" transform="translate(172.243 147.637)"/>
                <path fill="url(#X)" d="M15.387 18.132l-.122.074-.145-.086.117-.072z" transform="translate(172.243 147.637)"/>
                <path fill="#FECF03" d="M203.576 156.483l-12.914 7.523h-.005l-3.027 1.763-.15-.084-.118.072-14.942-8.627.119-.069 15.949-9.29z"/>
                <path fill="url(#V)" d="M15.265 18.206l-.047 17.337-15.091-8.71.05-17.34L15.12 18.12z" transform="translate(172.243 147.637)"/>
            </g>
            <g fill-rule="nonzero">
                <path fill="url(#Y)" d="M31.35 8.908l-.048 17.337-15.948 9.288-.12.074.05-17.336.122-.074 3.027-1.763h.002z" transform="translate(230.294 47.062)"/>
                <path fill="url(#Z)" d="M15.406 18.197l-.122.074-.148-.089.12-.071z" transform="translate(230.294 47.062)"/>
                <path fill="#FECF03" d="M261.644 55.97l-12.914 7.526h-.003l-3.027 1.763-.15-.086-.12.071-14.942-8.624.12-.071 15.948-9.29z"/>
                <path fill="url(#V)" d="M15.284 18.27l-.05 17.337L.146 26.895.194 9.558l14.942 8.624z" transform="translate(230.294 47.062)"/>
            </g>
            <path fill="url(#aa)" fill-rule="nonzero" d="M260.682 100.536a6.211 6.211 0 1 1-12.423.029 6.211 6.211 0 0 1 12.423-.029zM231.216 43.505a6.211 6.211 0 1 1-12.422.029 6.211 6.211 0 0 1 12.422-.029z"/>
            <path fill="url(#ab)" fill-rule="nonzero" d="M232.36 154.127a6.211 6.211 0 1 1-6.21-6.196 6.2 6.2 0 0 1 6.21 6.196z"/>
            <path fill="#E50027" fill-rule="nonzero" d="M215.495 49.007l-5.332-8.92a2.217 2.217 0 0 0-3.806 0l-5.33 8.92a2.212 2.212 0 0 0-.017 2.231 2.184 2.184 0 0 0 1.912 1.116h10.66a2.188 2.188 0 0 0 1.91-1.116 2.212 2.212 0 0 0 .003-2.231z"/>
            <path fill="#C1001F" fill-rule="nonzero" d="M215.511 51.238a2.188 2.188 0 0 1-1.91 1.116h-5.33V39.007a2.208 2.208 0 0 1 1.91 1.08l5.333 8.92c.402.69.4 1.542-.003 2.231z"/>
            <path fill="#FD003A" fill-rule="nonzero" d="M202.929 51.467a1.29 1.29 0 0 1-1.15-.669 1.312 1.312 0 0 1 0-1.344l5.342-8.914a1.33 1.33 0 0 1 2.287 0l5.327 8.914c.245.413.245.927 0 1.34-.23.418-.674.676-1.152.669l-10.654.004z"/>
            <path fill="#E50027" fill-rule="nonzero" d="M213.59 51.467c.479.008.922-.25 1.152-.669a1.314 1.314 0 0 0 0-1.34l-5.327-8.913a1.328 1.328 0 0 0-1.145-.652v11.574h5.32z"/>
            <path fill="#E1E4FB" fill-rule="nonzero" d="M209.145 42.619v3.538a.886.886 0 1 1-1.77 0v-3.538a.886.886 0 1 1 1.77 0z"/>
            <path fill="#C5C9F7" fill-rule="nonzero" d="M209.145 42.619v3.538a.886.886 0 0 1-.884.886v-5.31a.886.886 0 0 1 .884.886z"/>
            <path fill="#E1E4FB" fill-rule="nonzero" d="M208.26 47.927a1.328 1.328 0 1 0-.004 2.656 1.328 1.328 0 0 0 .005-2.656z"/>
            <path fill="#C5C9F7" fill-rule="nonzero" d="M209.587 49.255a1.326 1.326 0 0 1-1.326 1.328v-2.656a1.326 1.326 0 0 1 1.326 1.328z"/>
            <path fill="#E50027" fill-rule="nonzero" d="M279.564 98.272l-5.33-8.926a2.217 2.217 0 0 0-3.806 0l-5.332 8.92a2.212 2.212 0 0 0-.016 2.232 2.186 2.186 0 0 0 1.91 1.113h10.66a2.181 2.181 0 0 0 1.911-1.113 2.212 2.212 0 0 0 .003-2.226z"/>
            <path fill="#C1001F" fill-rule="nonzero" d="M279.58 100.503a2.181 2.181 0 0 1-1.91 1.113h-5.33V88.271a2.215 2.215 0 0 1 1.91 1.08l5.33 8.92c.403.69.403 1.543 0 2.232z"/>
            <path fill="#FD003A" fill-rule="nonzero" d="M267 100.732c-.478.007-.92-.25-1.151-.669a1.316 1.316 0 0 1 .014-1.347l5.325-8.913a1.333 1.333 0 0 1 2.289 0l5.325 8.913a1.31 1.31 0 0 1 0 1.34 1.29 1.29 0 0 1-1.15.669l-10.652.007z"/>
            <path fill="#E50027" fill-rule="nonzero" d="M277.662 100.732c.477.007.92-.25 1.15-.669a1.31 1.31 0 0 0 0-1.34l-5.326-8.913a1.335 1.335 0 0 0-1.146-.652v11.574h5.322z"/>
            <path fill="#E1E4FB" fill-rule="nonzero" d="M273.216 91.884v3.538a.886.886 0 1 1-1.77 0v-3.538a.886.886 0 1 1 1.77 0z"/>
            <path fill="#C5C9F7" fill-rule="nonzero" d="M273.216 91.884v3.538a.889.889 0 0 1-.886.886v-5.31a.889.889 0 0 1 .886.886z"/>
            <path fill="#E1E4FB" fill-rule="nonzero" d="M272.34 97.192a1.328 1.328 0 1 0 0 2.656 1.328 1.328 0 0 0 0-2.656z"/>
            <path fill="#C5C9F7" fill-rule="nonzero" d="M273.658 98.52a1.326 1.326 0 0 1-1.318 1.338v-2.666c.73.004 1.32.598 1.318 1.328z"/>
            <path fill="#E50027" fill-rule="nonzero" d="M226.016 177.752l-5.33-8.92a2.217 2.217 0 0 0-3.806 0l-5.33 8.92a2.215 2.215 0 0 0 1.912 3.344h10.661a2.176 2.176 0 0 0 1.912-1.115 2.207 2.207 0 0 0-.02-2.23z"/>
            <path fill="#C1001F" fill-rule="nonzero" d="M226.032 179.98a2.176 2.176 0 0 1-1.91 1.116h-5.333v-13.344a2.21 2.21 0 0 1 1.911 1.08l5.33 8.92c.403.688.404 1.54.002 2.229z"/>
            <path fill="#FD003A" fill-rule="nonzero" d="M213.452 180.212c-.478.007-.92-.25-1.151-.669a1.321 1.321 0 0 1 .014-1.347l5.318-8.913a1.33 1.33 0 0 1 2.288 0l5.328 8.913c.243.414.243.927 0 1.34a1.295 1.295 0 0 1-1.152.67l-10.645.006z"/>
            <path fill="#E50027" fill-rule="nonzero" d="M224.114 180.212c.478.007.92-.25 1.151-.669a1.321 1.321 0 0 0 0-1.34l-5.327-8.913a1.333 1.333 0 0 0-1.147-.654v11.576h5.323z"/>
            <path fill="#E1E4FB" fill-rule="nonzero" d="M219.668 171.361v3.54a.886.886 0 0 1-1.77 0v-3.54a.886.886 0 0 1 1.77 0z"/>
            <path fill="#C5C9F7" fill-rule="nonzero" d="M219.668 171.361v3.54a.886.886 0 0 1-.886.885v-5.309a.889.889 0 0 1 .886.884z"/>
            <path fill="#E1E4FB" fill-rule="nonzero" d="M218.782 176.672a1.328 1.328 0 1 0 0 2.656 1.328 1.328 0 0 0 0-2.656z"/>
            <path fill="#C5C9F7" fill-rule="nonzero" d="M220.11 178a1.326 1.326 0 0 1-1.328 1.326v-2.654A1.326 1.326 0 0 1 220.11 178z"/>
            <path fill="url(#ac)" fill-rule="nonzero" d="M62.084 33.873L4.644.717C2.186-.703.17.43.162 3.27L.065 37.805c0 2.84 1.994 6.295 4.452 7.714l2.65 1.52-.015 5.102 2.686-3.562 52.126 30.1c2.473 1.434 4.475.285 4.482-2.553l.098-34.537c0-2.84-1.98-6.285-4.453-7.711" opacity=".43" transform="translate(14.334 39.656)"/>
            <g fill="#F9FCFF" fill-rule="nonzero">
                <path d="M70.777 79.026l-46.23-26.691c-.834-.478-1.496-.086-1.5.87v.257a3.282 3.282 0 0 0 1.487 2.595l46.234 26.691c.831.478 1.507.096 1.51-.862v-.258a3.311 3.311 0 0 0-1.503-2.602M41.687 71.527L24.52 61.616c-.834-.478-1.495-.089-1.5.867v.275a3.278 3.278 0 0 0 1.488 2.577l17.17 9.917c.83.478 1.507.095 1.512-.846v-.277a3.304 3.304 0 0 0-1.503-2.602M52.71 77.891l-4.625-2.67c-.899-.519-1.615-.096-1.618.936a3.53 3.53 0 0 0 1.608 2.783l4.625 2.671c.886.511 1.615.096 1.617-.922a3.562 3.562 0 0 0-1.607-2.798M29.238 73.649l-4.632-2.671c-.898-.519-1.615-.112-1.617.922a3.54 3.54 0 0 0 1.617 2.797l4.625 2.671c.886.512 1.615.096 1.617-.936a3.533 3.533 0 0 0-1.605-2.783"/>
            </g>
            <path fill="#004299" fill-rule="nonzero" d="M40.567 213.314c4.3 2.016 4.319 5.274.05 7.288-4.27 2.014-11.216 2.024-15.512 0-4.295-2.023-4.338-5.282-.05-7.305 4.288-2.024 11.216-1.997 15.512.017z" opacity=".3" style="mix-blend-mode:multiply"/>
            <path fill="#FFC6A0" fill-rule="nonzero" d="M49.353 161.593s.85.755 1.037.877c.186.121 1.897.446 2.248.769.351.322.27.97.27.97s.74.762.82.986c.078.225-.703.82-.739.935-.036.114-.196.836-.611 1.005-.416.17-1.482.734-1.687.734-.205 0-2.8-2.418-4.346-4.704-1.545-2.286 3.008-1.572 3.008-1.572z"/>
            <path fill="#102465" fill-rule="nonzero" d="M14.434 200.25a3.536 3.536 0 0 0-1.001.063c-.327.11-1.911 2.15-1.892 2.51.02.361 4.25 4.196 5.679 5.256 1.428 1.061 2.204 0 1.91-.501-.293-.502-1.277-2.303-1.535-3.137-.258-.834-.418-1.5-.937-2.215-.518-.714-2.224-1.975-2.224-1.975z"/>
            <path fill="#102465" fill-rule="nonzero" d="M35.246 163.917s2.074 16.43 1.637 18.98c-.437 2.552-19.097 20.192-19.293 20.109-.196-.084-3.882.42-4.7-3.006L27.45 182.38l-.647-16.192 8.444-2.272z"/>
            <path fill="#102465" fill-rule="nonzero" d="M15.977 166.067l-.138 2.738a12.578 12.578 0 0 0 1.259 6.01c2.759 5.674 8.715 17.918 9.013 18.446.392.716 5.734 20.189 5.734 20.189 2.06.329 4.15-.371 5.597-1.873 0 0-4.35-19.86-4.61-23.173-.261-3.313-6.033-22.217-6.033-22.217l-10.822-.12z"/>
            <path fill="#102465" fill-rule="nonzero" d="M32.461 213.521s3.875-2.446 5.972-2.93c2.662-.62 4.59.298 4.852.697.263.399-.812 1.765-2.171 2.46-1.36.695-6.88 2.518-7.392 2.576-.51.057-1.208-1.08-1.261-2.803z"/>
            <path fill="#FFC6A0" fill-rule="nonzero" d="M33.923 132.766c2.035.559 2.965 1.958 4.343 5.31 1.379 3.352 2.012 9.63 2.012 9.63l9.066 13.887s-.096 2.766-1.933 3.005c0 0-9.651-9.57-11.047-11.913-1.395-2.344-1.755-8.51-1.755-8.51l-.686-11.41z"/>
            <path fill="#92DBFB" fill-rule="nonzero" d="M36.085 149.137a52.839 52.839 0 0 0 5.05-3.046c-.736-2.22-1.956-5.815-2.867-8.015-1.378-3.344-2.307-4.751-4.343-5.31l.676 11.397s.648 2.564 1.484 4.974z"/>
            <path fill="#92DBFB" fill-rule="nonzero" d="M33.923 132.766c-1.378-.478-4.465-.423-4.465-.423l-7.797 1.385a24.78 24.78 0 0 0-6.417 3.397l.239 9.747v19.112c-.006.368.183.712.497.905 1.213.717 4.641 2.334 10.129 1.498h.043c.46-.072.93-.153 1.419-.26a18.063 18.063 0 0 0 4.032-1.379c.363-.177.69-.358 1.001-.54l.227-.136c.521-.317 1.016-.675 1.481-1.07l.146-.127c.32-.277.62-.577.898-.898l.082-.095c.144-.172.276-.353.396-.543l.029-.043.036-.062s.016-1.66.06-4.042c.088-4.778.286-12.542.675-15.894.4-3.723-.563-7.465-2.711-10.532z"/>
            <path fill="#102465" fill-rule="nonzero" d="M31.056 116.47s-4.778-2.458-8.194.177c-3.416 2.635-1.966 7.193-.886 9.948 1.08 2.754 1.947 1.801 1.947 1.801l8.932-3.199s1.183-.325 1.159-4.001c-.024-3.677-2.958-4.725-2.958-4.725z"/>
            <path fill="#FFC6A0" fill-rule="nonzero" d="M33.445 120.326c0-.657-.597-1.168-1.512-1.495a6.11 6.11 0 0 1-2.94 3.483 4.778 4.778 0 0 1-4.552 0 13.81 13.81 0 0 0-.478 2.29c-.253-.491-1.741-1.63-2.064 0-.322 1.633 1.171 1.802 1.171 1.802l-.05 5.941.478 1.766c3.786 1.084 5.196.134 5.196.134l-.065-3.065c2.726.181 4.238-.533 4.484-2.418.246-1.885.354-6.98.332-8.438z"/>
            <path fill="#FFF" fill-rule="nonzero" d="M28.643 131.808c.245.003.488.049.717.136.2.122 1.25 1.261 1.228 2.465a8.648 8.648 0 0 1-.564 2.568l-2.389-2.329-1.672 2.946s-.956-.24-2.26-1.286a8.689 8.689 0 0 1-2.035-2.58c.478-1.07.786-1.708.786-1.708.11-.239.587-.341.587-.341s2.542 2.496 4.609 2.694c.004 0 .755-.315.993-2.565z"/>
            <path fill="#FFC6A0" fill-rule="nonzero" d="M5.04 167.718s-.238 1.113-.253 1.336c-.014.222.545 1.87.44 2.336-.105.466-.717.717-.717.717s-.298 1.017-.456 1.194c-.158.177-1.058-.21-1.175-.186-.117.024-.825.239-1.178-.036-.354-.275-1.369-.93-1.47-1.109-.1-.179.717-3.626 1.945-6.096 1.228-2.47 2.865 1.844 2.865 1.844z"/>
            <path fill="#FFC6A0" fill-rule="nonzero" d="M1.72 167.006s5.588-14.654 6.895-17.382c1.306-2.728 4.804-11.27 6.629-12.496 1.825-1.226 2.575 7.761 2.575 7.761s-4.845 9.437-6.352 11.508c-1.507 2.071-6.417 11.321-6.417 11.321s-1.25 1.78-3.33-.712z"/>
            <path fill="#92DBFB" fill-rule="nonzero" d="M13.502 152.995c1.945-3.483 4.317-8.106 4.317-8.106s-.75-8.987-2.575-7.761c-1.422.955-4.649 7.136-6.63 11.12a47.28 47.28 0 0 0 4.888 4.747z"/>
            <path fill="url(#ad)" fill-rule="nonzero" d="M51.188 96.427l-13.11-7.558c-4.112-2.373-7.466-.478-7.478 4.262l-.022 6.624c-.014 4.663 3.214 10.299 7.244 12.733-.294 1.242-1.051 2.554-2.917 2.298 0 0 5.017 2.803 7.042.113l9.176 5.296c4.124 2.389 7.466.461 7.478-4.262l.019-6.639c.014-4.737-3.306-10.487-7.43-12.867" opacity=".43"/>
            <path fill="#F9FCFF" fill-rule="nonzero" d="M37.798 98.553c-.977-.566-1.773-.112-1.778 1.013a3.892 3.892 0 0 0 1.766 3.056c.98.566 1.775.112 1.777-1.01a3.88 3.88 0 0 0-1.765-3.059m6.806 3.933c-.977-.567-1.773-.113-1.775 1.013a3.88 3.88 0 0 0 1.765 3.048c.977.566 1.773.112 1.775-1.01a3.88 3.88 0 0 0-1.765-3.059m6.808 3.93c-.979-.566-1.775-.112-1.777 1.013a3.887 3.887 0 0 0 1.766 3.056c.977.566 1.772.112 1.777-1.01a3.892 3.892 0 0 0-1.766-3.059"/>
        </g>
    </g>
</svg>
