<svg xmlns="http://www.w3.org/2000/svg" width="24" height="24" viewBox="0 0 24 24">
    <g fill="none" fill-rule="evenodd">
        <path fill="#DADFE2" d="M12 0C5.373 0 0 5.376 0 12.008c0 5.306 3.438 9.807 8.206 11.395.6.112.82-.26.82-.577 0-.287-.01-1.233-.016-2.236-3.338.726-4.043-1.417-4.043-1.417-.546-1.388-1.332-1.757-1.332-1.757-1.089-.745.082-.73.082-.73 1.205.084 1.84 1.237 1.84 1.237 1.07 1.836 2.807 1.306 3.491.999.108-.776.42-1.306.762-1.606-2.665-.304-5.467-1.333-5.467-5.935 0-1.31.469-2.382 1.236-3.223-.124-.303-.535-1.524.117-3.178 0 0 1.007-.323 3.3 1.23.958-.265 1.984-.399 3.004-.403 1.02.004 2.047.138 3.006.404 2.29-1.554 3.297-1.231 3.297-1.231.653 1.654.242 2.875.118 3.178.77.84 1.235 1.912 1.235 3.223 0 4.613-2.808 5.628-5.48 5.925.43.373.814 1.104.814 2.224 0 1.607-.014 2.9-.014 3.296 0 .32.216.694.825.576C20.566 21.812 24 17.312 24 12.008 24 5.376 18.627 0 12 0"/>
        <path fill="#FFFFFE" d="M4.532 17.283c-.025.057-.115.074-.197.035-.084-.038-.13-.115-.103-.173.024-.059.114-.075.198-.036.083.038.13.117.102.174M5.102 17.79c-.055.052-.162.028-.234-.052-.076-.08-.09-.188-.034-.24.056-.05.16-.026.236.054.075.081.09.187.032.239M5.494 18.606c-.07.045-.186.003-.257-.093-.07-.095-.07-.209.001-.254.072-.046.185-.005.257.09.07.096.07.21-.001.257M6.112 19.162c-.056.063-.176.046-.264-.04-.09-.085-.114-.205-.058-.268.057-.063.177-.046.266.04.089.084.116.205.056.268M7.098 19.643c-.033.09-.186.131-.34.093-.155-.04-.255-.145-.224-.236.032-.09.186-.133.341-.092.154.039.255.144.223.235M8.064 19.752c.004.095-.125.173-.284.175-.16.003-.29-.074-.292-.167 0-.096.126-.174.286-.176.16-.003.29.074.29.168M9.022 19.523c.019.093-.092.188-.251.213-.156.025-.301-.032-.32-.124-.02-.095.093-.19.249-.215.16-.023.302.032.322.126"/>
    </g>
</svg>
