<svg xmlns="http://www.w3.org/2000/svg" width="102" height="102" viewBox="0 0 102 102">
    <g fill="none" fill-rule="nonzero">
        <path fill="#0067D4" d="M82.16 19.86a16.46 16.46 0 0 1-4.64-12.62 4.014 4.014 0 0 1 8 .66c0 1.32 0 7.88 8.84 9.08a4.035 4.035 0 0 1-1.06 8 18.9 18.9 0 0 1-11.14-5.12z"/>
        <path fill="#0067D4" d="M38.36 79.62l-16-16a4 4 0 0 1-.4-5.18l27.72-38 .18-.24a47.32 47.32 0 0 1 27.64-16L97.1.66a4.2 4.2 0 0 1 3.58 1.12 4 4 0 0 1 1.06 3.58L97.9 25a47.44 47.44 0 0 1-15.82 26.92l-.24.18-38.3 28a4 4 0 0 1-5.18-.48zm-8-19.22L41.5 71.54l35.44-25.86a39.38 39.38 0 0 0 13.02-22.26l2.72-13.8-13.84 2.5a39.24 39.24 0 0 0-22.86 13.14L30.36 60.4z"/>
        <path fill="#0067D4" d="M46.78 100.18a4 4 0 0 1-1.02-1.76c-3.7-13.54-15.88-27.26-16-27.38a4 4 0 0 1 .32-5.66 4 4 0 0 1 5.64.32A99.42 99.42 0 0 1 50.88 89c3.68-5.58 8.22-14.62 6.68-23.76a4.005 4.005 0 1 1 7.9-1.32c3.12 18.6-12.26 35.38-12.92 36a4 4 0 0 1-3.88 1.16 4 4 0 0 1-1.88-.9z"/>
        <path fill="#0067D4" d="M1.36 54.78A4.16 4.16 0 0 1 .32 52.9a4 4 0 0 1 1.16-3.88c.7-.66 17.48-16 36-12.92a4.006 4.006 0 1 1-1.34 7.9c-9.12-1.54-18.16 3-23.74 6.66a99.18 99.18 0 0 1 23.38 15.18 4 4 0 1 1-5.34 5.96c-.12-.14-13.88-12.32-27.38-16a4 4 0 0 1-1.7-1.02z"/>
        <path fill="#0BF" d="M73.621 23.243l5.134 5.133a3.63 3.63 0 0 1 0 5.134L64.132 48.133a3.63 3.63 0 0 1-5.134 0l-5.133-5.134a3.63 3.63 0 0 1 0-5.133l14.623-14.623a3.63 3.63 0 0 1 5.133 0z"/>
    </g>
</svg>
