<svg xmlns="http://www.w3.org/2000/svg" width="87" height="128" viewBox="0 0 87 128">
    <path fill="#D4EAFF" fill-rule="evenodd" d="M-41 64c0-35.346 28.654-64 64-64 35.346 0 64 28.654 64 64 0 35.346-28.654 64-64 64-35.346 0-64-28.654-64-64zm53.708-17.235l-20.49-10.124a1.122 1.122 0 0 0-.494-.128.664.664 0 0 0-.525.237c-.126.149-.199.364-.199.634v43.463c0 .74.548 1.615 1.217 1.946l18.936 9.356c.263.13.514.192.74.192.638 0 1.086-.488 1.086-1.307V47.198a.484.484 0 0 0-.271-.433zm24 36.278l18.4 9.092c1.005.496 1.826-.006 1.826-1.116V50.565L36.708 83.043zM14.921 50.018v22.274l20.037 9.9L14.92 50.018zm41.532-3.358L35.566 36.34a.718.718 0 0 0-.301-.071l-.02-.002a.762.762 0 0 0-.644.345L21.727 57.284l14.371 23.077 20.555-33.007a.487.487 0 0 0-.2-.694z"/>
</svg>
