<svg xmlns="http://www.w3.org/2000/svg" width="104" height="108" viewBox="0 0 104 108">
    <g fill="none" fill-rule="nonzero" transform="translate(-12 -10)">
        <circle cx="65.34" cy="104.14" r="11.34" fill="#0BF"/>
        <path fill="#0067D4" d="M111.12 118H19.58a4.5 4.5 0 0 1 0-9h91.54a4.5 4.5 0 0 1 0 9zM46.22 99.04a4.42 4.42 0 0 1-2.42-.7c-10.3-6.6-15.1-14.86-15.1-26a4.5 4.5 0 1 1 9 0c0 8 3.28 13.48 10.94 18.4a4.5 4.5 0 0 1-2.42 8.28v.02zM85.7 93.66a4.5 4.5 0 0 1-2.6-8.18 23.62 23.62 0 0 0 10.14-19.76 25.14 25.14 0 0 0-16-23.02 4.506 4.506 0 0 1 3.16-8.44 34.3 34.3 0 0 1 21.84 31.28 32.6 32.6 0 0 1-14 27.3 4.64 4.64 0 0 1-2.54.82z"/>
        <path fill="#0067D4" d="M86.76 118H44a4.5 4.5 0 0 1-4.5-4.5v-9.36a26 26 0 1 1 51.82 0v9.38a4.5 4.5 0 0 1-4.56 4.48zm-38.32-9h33.82v-4.86a16.92 16.92 0 1 0-33.82 0V109z"/>
        <path fill="#0067D4" d="M49.52 80H16.88a4.5 4.5 0 1 1 0-9h32.64a4.5 4.5 0 1 1 0 9zM63.74 54.74a4.52 4.52 0 0 1-3.34-1.48l-9.48-10.44a4.48 4.48 0 0 1 .42-6.44L80.2 11.82a4.48 4.48 0 0 1 6.36.54l8.74 10.46a4.48 4.48 0 0 1-.5 6.28l-28 24.52a4.42 4.42 0 0 1-3.06 1.12zM60.7 40.22L64.1 44l21.48-18.72-3-3.6L60.7 40.22z"/>
        <path fill="#0067D4" d="M51.8 56.44a4.5 4.5 0 0 1-3.02-7.84l7.36-6.6a4.5 4.5 0 0 1 6 6.68l-7.36 6.64a4.48 4.48 0 0 1-2.98 1.12zM87.24 24.68a4.5 4.5 0 0 1-2.82-8l7.12-5.7A4.502 4.502 0 1 1 97.18 18L90 23.7a4.46 4.46 0 0 1-2.76.98z"/>
        <rect width="33.2" height="11.7" x="16.52" y="59.22" fill="#0BF" rx="2.93"/>
    </g>
</svg>
