<svg xmlns="http://www.w3.org/2000/svg" width="90" height="86" viewBox="0 0 90 86">
    <g fill="none" fill-rule="nonzero">
        <path fill="#0BF" d="M24.08 20.34v41.84H5.92a5.72 5.72 0 0 1-5.74-5.72V6.16A5.72 5.72 0 0 1 5.92.44H56.2a5.74 5.74 0 0 1 5.74 5.72v14.18H24.08z"/>
        <path fill="#0067D4" d="M79.56 86h-49.2c-5.67 0-10.269-4.59-10.28-10.26V26.62c0-5.677 4.603-10.28 10.28-10.28h49.2c5.677 0 10.28 4.603 10.28 10.28v49.2C89.785 81.458 85.199 86 79.56 86zm-49.2-61.74a2.28 2.28 0 0 0-2.28 2.28v49.2A2.28 2.28 0 0 0 30.36 78h49.2a2.28 2.28 0 0 0 2.28-2.26V26.62a2.28 2.28 0 0 0-2.28-2.28l-49.2-.08z"/>
        <path fill="#0067D4" d="M68.1 47.24H41.58a4 4 0 1 1 0-8H68.1a4 4 0 1 1 0 8z"/>
        <path fill="#0067D4" d="M54.96 47.24a4 4 0 0 1-4-4v-10a4 4 0 1 1 8 0v10a4 4 0 0 1-4 4z"/>
        <path fill="#0067D4" d="M41.58 70.8a4.014 4.014 0 0 1-.68-8 23.56 23.56 0 0 0 19.04-19.62 4 4 0 1 1 8 0c0 7.82-7.76 24.48-25.7 27.5-.216.06-.437.1-.66.12z"/>
        <path fill="#0067D4" d="M68.1 70.8c-.22.02-.44.02-.66 0a31.2 31.2 0 0 1-22.32-16.32 4 4 0 1 1 7.02-3.82 23.44 23.44 0 0 0 16.62 12.26 4.014 4.014 0 0 1-.66 8v-.12z"/>
    </g>
</svg>
