<svg xmlns="http://www.w3.org/2000/svg" width="86" height="106" viewBox="0 0 86 106">
    <g fill="none" fill-rule="nonzero">
        <path fill="#0BF" d="M25.24 34.3a3.5 3.5 0 0 1-2.16-6.24l11.26-8.88a3.503 3.503 0 0 1 4.34 5.5L27.4 33.56a3.48 3.48 0 0 1-2.16.74zM50.18 90.32a3.48 3.48 0 0 1-2.74-5.66l16.98-21.5a3.503 3.503 0 1 1 5.5 4.34L52.94 89a3.5 3.5 0 0 1-2.76 1.32z"/>
        <path fill="#0067D4" d="M43.98 38.6H3.16a2.76 2.76 0 0 0-2.78 2.76v23.28a2.76 2.76 0 0 0 2.78 2.78h40.82a2.76 2.76 0 0 0 2.76-2.78V41.36a2.76 2.76 0 0 0-2.76-2.76zM23.56 60.32a7.32 7.32 0 1 1 7.32-7.34 7.36 7.36 0 0 1-7.32 7.34zM45 29.54c-7.909 0-14.32-6.411-14.32-14.32C30.68 7.311 37.091.9 45 .9c7.909 0 14.32 6.411 14.32 14.32-.011 7.904-6.416 14.309-14.32 14.32zM45 7.9a7.32 7.32 0 1 0 7.32 7.32A7.32 7.32 0 0 0 45 7.94V7.9zM71.32 68.82C63.411 68.82 57 62.409 57 54.5c0-7.909 6.411-14.32 14.32-14.32 7.909 0 14.32 6.411 14.32 14.32-.011 7.904-6.416 14.309-14.32 14.32zm0-21.64a7.32 7.32 0 1 0 0 14.64 7.32 7.32 0 0 0 0-14.64z"/>
        <path fill="#0BF" d="M37.16 89.94a3.58 3.58 0 0 1-2.52-1.06l-8.12-8.4a3.5 3.5 0 1 1 5.04-4.86L39.68 84a3.5 3.5 0 0 1-2.52 6v-.06z"/>
        <path fill="#0067D4" d="M44.86 105.1A11.86 11.86 0 1 1 56.7 93.24c-.011 6.538-5.302 11.838-11.84 11.86zm0-16.7a4.86 4.86 0 1 0-.04 9.72 4.86 4.86 0 0 0 .04-9.72z"/>
    </g>
</svg>
