<svg xmlns="http://www.w3.org/2000/svg" width="231" height="191" viewBox="0 0 231 191">
    <defs>
        <linearGradient id="a" x1="34.012%" x2="75.589%" y1="72.845%" y2="13.438%">
            <stop offset="0%" stop-color="#403A9B"/>
            <stop offset="100%" stop-color="#1F83DA"/>
        </linearGradient>
        <linearGradient id="b" x1="51.002%" x2="49.167%" y1="13.273%" y2="80.473%">
            <stop offset="0%" stop-color="#403A9B"/>
            <stop offset="100%" stop-color="#1F83DA"/>
        </linearGradient>
        <linearGradient id="c" x1="26.277%" x2="57.635%" y1="78.548%" y2="40.821%">
            <stop offset="0%" stop-color="#403A9B"/>
            <stop offset="100%" stop-color="#1F83DA"/>
        </linearGradient>
        <linearGradient id="d" x1="-1.875%" x2="37.682%" y1="68.416%" y2="54.344%">
            <stop offset="0%" stop-color="#BCFDF1"/>
            <stop offset="100%" stop-color="#3B97D9"/>
        </linearGradient>
        <linearGradient id="e" x1="26.387%" x2="77.641%" y1="60.903%" y2="37.146%">
            <stop offset="0%" stop-color="#BCFDF1"/>
            <stop offset="100%" stop-color="#3B97D9"/>
        </linearGradient>
        <linearGradient id="f" x1="39.105%" x2="71.931%" y1="76.567%" y2="-3.515%">
            <stop offset="0%" stop-color="#5FADED"/>
            <stop offset="36%" stop-color="#4BA0E7"/>
            <stop offset="100%" stop-color="#1F83DA"/>
        </linearGradient>
        <linearGradient id="g" x1="0%" y1="49.841%" y2="49.841%">
            <stop offset="0%" stop-color="#5FADED"/>
            <stop offset="36%" stop-color="#4BA0E7"/>
            <stop offset="100%" stop-color="#1F83DA"/>
        </linearGradient>
        <linearGradient id="h" x1="24.365%" x2="69.674%" y1="30.024%" y2="62.616%">
            <stop offset="0%" stop-color="#BCFDF1"/>
            <stop offset="100%" stop-color="#3B97D9"/>
        </linearGradient>
        <linearGradient id="i" x1="27.965%" x2="112.466%" y1="58.837%" y2="22.31%">
            <stop offset="0%" stop-color="#BCFDF1"/>
            <stop offset="100%" stop-color="#3B97D9"/>
        </linearGradient>
        <linearGradient id="j" x1="0%" y1="50.01%" y2="50.01%">
            <stop offset="0%" stop-color="#5FADED"/>
            <stop offset="36%" stop-color="#4BA0E7"/>
            <stop offset="100%" stop-color="#1F83DA"/>
        </linearGradient>
        <linearGradient id="k" x1="75.721%" x2="19.823%" y1="12.258%" y2="90.817%">
            <stop offset="0%" stop-color="#403A9B"/>
            <stop offset="100%" stop-color="#1F83DA"/>
        </linearGradient>
        <linearGradient id="l" x1="27.059%" x2="101.655%" y1="56.414%" y2="35.714%">
            <stop offset="0%" stop-color="#5FADED"/>
            <stop offset="36%" stop-color="#4BA0E7"/>
            <stop offset="100%" stop-color="#1F83DA"/>
        </linearGradient>
        <linearGradient id="m" x1="15.512%" x2="75.647%" y1="79.99%" y2="27.61%">
            <stop offset="0%" stop-color="#BCFDF1"/>
            <stop offset="100%" stop-color="#3B97D9"/>
        </linearGradient>
        <linearGradient id="n" x1="34.256%" x2="89.311%" y1="57.803%" y2="30.318%">
            <stop offset="0%" stop-color="#BCFDF1"/>
            <stop offset="100%" stop-color="#3B97D9"/>
        </linearGradient>
        <linearGradient id="o" x1="49.825%" x2="50.611%" y1="28.534%" y2="130.293%">
            <stop offset="0%" stop-color="#BCFDF1"/>
            <stop offset="100%" stop-color="#3B97D9"/>
        </linearGradient>
        <linearGradient id="p" x1="53.597%" x2="47.571%" y1="89.118%" y2="23.426%">
            <stop offset="0%" stop-color="#403A9B"/>
            <stop offset="100%" stop-color="#1F83DA"/>
        </linearGradient>
        <linearGradient id="q" x1="0%" y1="49.987%" y2="49.987%">
            <stop offset="0%" stop-color="#5FADED"/>
            <stop offset="36%" stop-color="#4BA0E7"/>
            <stop offset="100%" stop-color="#1F83DA"/>
        </linearGradient>
        <linearGradient id="r" x1="36.285%" x2="54.178%" y1="18.323%" y2="59.67%">
            <stop offset="0%" stop-color="#5FADED"/>
            <stop offset="36%" stop-color="#4BA0E7"/>
            <stop offset="100%" stop-color="#1F83DA"/>
        </linearGradient>
        <linearGradient id="s" x1="13.603%" x2="59.456%" y1="8.726%" y2="60.728%">
            <stop offset="0%" stop-color="#BCFDF1"/>
            <stop offset="100%" stop-color="#3B97D9"/>
        </linearGradient>
        <linearGradient id="t" x1="8.245%" x2="53.888%" y1="32.582%" y2="51.633%">
            <stop offset="0%" stop-color="#BCFDF1"/>
            <stop offset="100%" stop-color="#3B97D9"/>
        </linearGradient>
        <linearGradient id="u" x1="4.259%" x2="98.02%" y1="81.067%" y2="17.403%">
            <stop offset="0%" stop-color="#BCFDF1"/>
            <stop offset="100%" stop-color="#3B97D9"/>
        </linearGradient>
        <linearGradient id="v" x1="0%" x2="100.037%" y1="50.022%" y2="50.022%">
            <stop offset="0%" stop-color="#5FADED"/>
            <stop offset="36%" stop-color="#4BA0E7"/>
            <stop offset="100%" stop-color="#1F83DA"/>
        </linearGradient>
        <linearGradient id="w" x1="41.304%" x2="55.94%" y1="9.98%" y2="77.282%">
            <stop offset="0%" stop-color="#BCFDF1"/>
            <stop offset="100%" stop-color="#3B97D9"/>
        </linearGradient>
        <linearGradient id="x" x1="2.462%" x2="81.598%" y1="20.844%" y2="69.388%">
            <stop offset="0%" stop-color="#5FADED"/>
            <stop offset="36%" stop-color="#4BA0E7"/>
            <stop offset="100%" stop-color="#1F83DA"/>
        </linearGradient>
        <linearGradient id="y" x1="-4.266%" x2="89.37%" y1="24.623%" y2="68.418%">
            <stop offset="0%" stop-color="#BCFDF1"/>
            <stop offset="100%" stop-color="#3B97D9"/>
        </linearGradient>
        <linearGradient id="z" x1="47.461%" x2="60.167%" y1="109.065%" y2="-187.214%">
            <stop offset="0%" stop-color="#BCFDF1"/>
            <stop offset="100%" stop-color="#3B97D9"/>
        </linearGradient>
        <linearGradient id="A" x1="0%" x2="99.832%" y1="49.995%" y2="49.995%">
            <stop offset="0%" stop-color="#5FADED"/>
            <stop offset="36%" stop-color="#4BA0E7"/>
            <stop offset="100%" stop-color="#1F83DA"/>
        </linearGradient>
        <linearGradient id="B" x1="48.48%" x2="52.164%" y1="92.007%" y2="11.901%">
            <stop offset="0%" stop-color="#5FADED"/>
            <stop offset="36%" stop-color="#4BA0E7"/>
            <stop offset="100%" stop-color="#1F83DA"/>
        </linearGradient>
        <linearGradient id="C" x1="64.34%" x2="45.165%" y1="-7.468%" y2="77.506%">
            <stop offset="0%" stop-color="#403A9B"/>
            <stop offset="100%" stop-color="#1F83DA"/>
        </linearGradient>
        <linearGradient id="D" x1="-12.262%" x2="153.736%" y1="108.899%" y2="11.237%">
            <stop offset="0%" stop-color="#5FADED"/>
            <stop offset="36%" stop-color="#4BA0E7"/>
            <stop offset="100%" stop-color="#1F83DA"/>
        </linearGradient>
        <linearGradient id="E" x1="55.25%" x2="48.674%" y1="-30.858%" y2="69.449%">
            <stop offset="0%" stop-color="#5FADED"/>
            <stop offset="36%" stop-color="#4BA0E7"/>
            <stop offset="100%" stop-color="#1F83DA"/>
        </linearGradient>
        <linearGradient id="F" x1="33.569%" x2="53.608%" y1="115.47%" y2="35.686%">
            <stop offset="0%" stop-color="#BCFDF1"/>
            <stop offset="100%" stop-color="#3B97D9"/>
        </linearGradient>
        <linearGradient id="G" x1="31.152%" x2="51.656%" y1="136.055%" y2="42.474%">
            <stop offset="0%" stop-color="#BCFDF1"/>
            <stop offset="100%" stop-color="#3B97D9"/>
        </linearGradient>
        <linearGradient id="H" x1="0%" y1="49.977%" y2="49.977%">
            <stop offset="0%" stop-color="#BCFDF1"/>
            <stop offset="100%" stop-color="#3B97D9"/>
        </linearGradient>
        <linearGradient id="I" x1="0%" y1="50%" y2="50%">
            <stop offset="0%" stop-color="#BCFDF1"/>
            <stop offset="100%" stop-color="#3B97D9"/>
        </linearGradient>
        <linearGradient id="J" x1="23.4%" x2="76.6%" y1="97.727%" y2="2.222%">
            <stop offset="0%" stop-color="#BCFDF1"/>
            <stop offset="100%" stop-color="#3B97D9"/>
        </linearGradient>
        <linearGradient id="K" x1="31.802%" x2="119.253%" y1="67.389%" y2="-16.226%">
            <stop offset="0%" stop-color="#BCFDF1"/>
            <stop offset="100%" stop-color="#3B97D9"/>
        </linearGradient>
        <linearGradient id="L" x1="21.691%" x2="67.298%" y1="-67.232%" y2="121.607%">
            <stop offset="0%" stop-color="#BCFDF1"/>
            <stop offset="100%" stop-color="#3B97D9"/>
        </linearGradient>
        <linearGradient id="M" x1="39.502%" x2="55.088%" y1="-127.84%" y2="136.08%">
            <stop offset="0%" stop-color="#BCFDF1"/>
            <stop offset="100%" stop-color="#3B97D9"/>
        </linearGradient>
        <linearGradient id="N" x1="40.607%" x2="53.105%" y1="-7.045%" y2="68.493%">
            <stop offset="0%" stop-color="#5FADED"/>
            <stop offset="36%" stop-color="#4BA0E7"/>
            <stop offset="100%" stop-color="#1F83DA"/>
        </linearGradient>
        <linearGradient id="O" x1="49.239%" x2="50.423%" y1="-146.875%" y2="156.818%">
            <stop offset="0%" stop-color="#5FADED"/>
            <stop offset="36%" stop-color="#4BA0E7"/>
            <stop offset="100%" stop-color="#1F83DA"/>
        </linearGradient>
        <radialGradient id="P" cx="-64.447%" cy="-12.865%" r="808.858%" fx="-64.447%" fy="-12.865%" gradientTransform="matrix(1 0 0 .33897 0 -.085)">
            <stop offset="0%" stop-color="#1F83DA"/>
            <stop offset="100%" stop-color="#403A9B"/>
        </radialGradient>
        <radialGradient id="Q" cx="23.992%" cy="24.093%" r="88.7%" fx="23.992%" fy="24.093%" gradientTransform="matrix(.99784 0 0 1 0 0)">
            <stop offset="0%" stop-color="#1F83DA"/>
            <stop offset="100%" stop-color="#403A9B"/>
        </radialGradient>
        <linearGradient id="R" x1="-.043%" x2="100.094%" y1="49.627%" y2="49.627%">
            <stop offset="0%" stop-color="#3686F1"/>
            <stop offset="100%" stop-color="#6EE4F1"/>
        </linearGradient>
        <linearGradient id="S" x1="15.347%" x2="58.638%" y1="12.772%" y2="57.527%">
            <stop offset="0%" stop-color="#403A9B"/>
            <stop offset="100%" stop-color="#1F83DA"/>
        </linearGradient>
        <linearGradient id="T" x1=".366%" x2="100.69%" y1="49.921%" y2="49.921%">
            <stop offset="0%" stop-color="#3686F1"/>
            <stop offset="100%" stop-color="#6EE4F1"/>
        </linearGradient>
        <linearGradient id="U" x1="24.92%" x2="58.115%" y1="105.863%" y2="16.385%">
            <stop offset="0%" stop-color="#403A9B"/>
            <stop offset="100%" stop-color="#1F83DA"/>
        </linearGradient>
        <linearGradient id="V" x1="55.021%" x2="40.507%" y1="71.626%" y2="-29.196%">
            <stop offset="0%" stop-color="#3686F1"/>
            <stop offset="100%" stop-color="#6EE4F1"/>
        </linearGradient>
        <linearGradient id="W" x1="62.47%" x2="39.779%" y1="166.744%" y2="-147.323%">
            <stop offset="0%" stop-color="#3686F1"/>
            <stop offset="100%" stop-color="#6EE4F1"/>
        </linearGradient>
        <linearGradient id="X" x1="84.143%" x2="43.733%" y1="102.514%" y2="-11.606%">
            <stop offset="0%" stop-color="#403A9B"/>
            <stop offset="100%" stop-color="#1F83DA"/>
        </linearGradient>
        <radialGradient id="Y" cx="-3.376%" cy="-18.375%" r="185.068%" fx="-3.376%" fy="-18.375%" gradientTransform="scale(-1 -.72379) rotate(10.2 -2.452 .413)">
            <stop offset="0%" stop-color="#5F56F1"/>
            <stop offset="100%" stop-color="#51BAF1"/>
        </radialGradient>
        <linearGradient id="Z" x1="60.798%" x2="36.257%" y1="95.48%" y2="-7.91%">
            <stop offset="0%" stop-color="#5F56F1"/>
            <stop offset="100%" stop-color="#51BAF1"/>
        </linearGradient>
        <linearGradient id="aa" x1="54.624%" x2="48.459%" y1="110.718%" y2="29.499%">
            <stop offset="0%" stop-color="#403A9B"/>
            <stop offset="100%" stop-color="#1F83DA"/>
        </linearGradient>
        <linearGradient id="ab" x1="63.601%" x2="40.235%" y1="104.342%" y2="11.166%">
            <stop offset="0%" stop-color="#3686F1"/>
            <stop offset="100%" stop-color="#6EE4F1"/>
        </linearGradient>
        <linearGradient id="ac" x1="277.907%" x2="-36.288%" y1="1386.33%" y2="-1162.038%">
            <stop offset="0%" stop-color="#3686F1"/>
            <stop offset="100%" stop-color="#6EE4F1"/>
        </linearGradient>
        <linearGradient id="ad" x1="186.267%" x2="22.545%" y1="704.11%" y2="-346.447%">
            <stop offset="0%" stop-color="#3686F1"/>
            <stop offset="100%" stop-color="#6EE4F1"/>
        </linearGradient>
        <linearGradient id="ae" x1="87.969%" x2="30.388%" y1="144.214%" y2="-75.88%">
            <stop offset="0%" stop-color="#3686F1"/>
            <stop offset="100%" stop-color="#6EE4F1"/>
        </linearGradient>
        <linearGradient id="af" x1="63.892%" x2="41.776%" y1="113.391%" y2="26.768%">
            <stop offset="0%" stop-color="#3686F1"/>
            <stop offset="100%" stop-color="#6EE4F1"/>
        </linearGradient>
        <linearGradient id="ag" x1="-.129%" x2="99.338%" y1="50.431%" y2="50.431%">
            <stop offset="0%" stop-color="#403A9B"/>
            <stop offset="100%" stop-color="#1F83DA"/>
        </linearGradient>
    </defs>
    <g fill="none" fill-rule="nonzero">
        <path fill="url(#a)" d="M155.336 167l63.638-36.24V57l-63.638 36.226z"/>
        <path fill="url(#b)" d="M155.336 146.154V167L60.13 113.359V92.5z"/>
        <path fill="url(#c)" d="M155.336 93.94v12.56L60.13 53.046V40.5z"/>
        <path fill="url(#d)" d="M226.49 62.053L157.186 101.5 53.115 42.77v-3.563L123.022 0 226.49 58.49z"/>
        <path fill="url(#e)" d="M226.49 58.514L123.022 0 53.115 39.219 157.185 98z"/>
        <path fill="url(#f)" d="M155.336 106.09v40.41L60.13 92.91V52.5z"/>
        <path fill="url(#g)" d="M120.761 100.82c-4.656-13.37-19.04-25.36-33.024-21.63L60.13 90.924c10.541-.162 23.177 7.786 30.236 25.576l30.395-15.68z"/>
        <path fill="url(#h)" d="M113.245 93.625L88.151 104.5C80.278 92.534 72.942 88.44 64.64 88.546v-2.66l20.252-8.415c11.011-2.433 24.142 4.933 28.353 13.495v2.659z"/>
        <path fill="url(#i)" d="M113.245 91.136C108.97 82.593 96.878 74.5 85.873 76.94l-21.233 9.14c8.297-.106 15.63 3.98 23.498 15.919l25.107-10.864z"/>
        <path fill="url(#j)" d="M120.26 100.5v46.877L89.87 165l-.175-48.928z"/>
        <path fill="url(#k)" d="M89.869 165l30.391-17.623V100.5l-30.566 15.572L89.87 165"/>
        <path fill="url(#l)" d="M218.974 57.26L124.765 4 60.631 40.014 155.388 93.5z"/>
        <path fill="url(#m)" d="M174.377 50.753L142.278 69l-35.547-19.91v-6.95L139.113 24l35.264 19.817z"/>
        <path fill="url(#n)" d="M174.377 43.27l-7.647 4.353L142.29 61.5l-27.845-15.578-7.715-4.326L139.114 23.5z"/>
        <path fill="url(#o)" d="M163.354 43.03l-5.22 2.976-16.65 9.494-18.97-10.66-5.26-2.964 22.07-12.376z"/>
        <path fill="url(#p)" d="M158.844 46.554L142.214 56l-18.947-10.607L140.057 36z"/>
        <path fill="url(#q)" d="M205.445 80.5v29.552L165.358 133v-29.565l38.198-21.854z"/>
        <path fill="url(#r)" d="M205.445 80.5v29.552L165.358 133v-29.565L202.85 81.98z"/>
        <path fill="url(#s)" d="M231 137.5v14.88l-40.087 23.12v-14.894z"/>
        <path fill="url(#t)" d="M222.482 117.411l-16.68-7.911-40.444 23.102 16.68 7.898z"/>
        <path fill="url(#u)" d="M221.956 117.5L231 136.932 190.437 160l-9.044-19.432z"/>
        <path fill="url(#v)" d="M217.915 123l6.57 14.176L194.993 154l-6.584-14.176z"/>
        <path fill="url(#w)" d="M224.486 137.163l-1.868 1.075L194.978 154l-5.656-12.215-.914-1.948L217.915 123z"/>
        <path fill="url(#x)" d="M222.482 138.499L195.029 154l-5.619-12.012 27.44-15.488z"/>
        <path fill="url(#y)" d="M202.94 82v26.428L165.357 130v-26.428z"/>
        <path fill="url(#z)" d="M190.913 175.5l-25.555-13.531V133l16.588 7.948 8.967 19.574z"/>
        <path fill="url(#A)" d="M90.322 165L50.61 142.914l.293-38.491a14.498 14.498 0 0 1 21.55-12.59l.653.36a34.104 34.104 0 0 1 17.59 30.035L90.322 165z"/>
        <path fill="url(#B)" d="M86.688 121.929L86.418 163l-31.76-17.59-4.048-2.25.391-36.372c.194-6.76 5.72-12.17 12.539-12.275 2.389-.104 4.762.432 6.87 1.553l.58.307c9.624 4.953 15.674 14.802 15.698 25.556z"/>
        <path fill="url(#C)" d="M86.187 121.942v6.693L85.957 163l-31.84-17.59v-.175l.216-39.558c.003-5.231 3.55-9.809 8.65-11.165 2.391-.1 4.767.436 6.878 1.553l.581.308c9.651 4.948 15.72 14.804 15.745 25.569z"/>
        <path fill="url(#D)" d="M86.187 128.138l-.23 34.362-31.84-17.59v-.173L84.105 127z"/>
        <path fill="url(#E)" d="M83.681 126.861V110.5c1.857 5.025 2.298 10.96 1.834 17.5l-1.834-1.139z"/>
        <path fill="url(#F)" d="M46.1 123.5v40.142L0 191v-40.115z"/>
        <path fill="url(#G)" d="M77.668 135v32.41L40.087 189.5v-32.397z"/>
        <path fill="url(#H)" d="M40.087 157.007L63.597 164l14.071-29z"/>
        <path fill="url(#I)" d="M0 150.836l28.832 8.664 17.268-36z"/>
        <path fill="url(#J)" d="M116.753 117.651v15.418L98.193 143l-1.484-1.178v-15.418l18.56-9.904z"/>
        <path fill="url(#K)" d="M97.711 143.5l19.042-9.791V118.5l-19.042 9.778z"/>
        <path fill="url(#L)" d="M115.25 121v9.134L104.225 136v-9.134l10.279-5.478z"/>
        <path fill="url(#M)" d="M102.722 128v9.352L100.217 139v-9.366l1.892-1.236z"/>
        <path fill="url(#N)" d="M114.247 122v8.097l-10.522 5.403v-8.097z"/>
        <path fill="url(#O)" d="M102.221 128.5v7.824l-2.004 1.176v-7.85z"/>
        <g fill="#000" opacity=".4" style="mix-blend-mode:soft-light">
            <path d="M214.78 141.493l-2.465 1.426-4.837-9.328 2.465-1.439zM211.573 143.358l-2.69 1.56-4.823-9.328 2.676-1.56zM208.154 145.357l-2.703 1.573-4.837-9.341 2.703-1.573zM199.885 138.015l2.545 4.89-6.811 3.971-2.531-4.89zM203.556 145.09l-6.811 3.972-.676-1.306 6.811-3.971zM204.722 147.356l-6.798 3.957-.715-1.385 6.798-3.971z"/>
        </g>
        <path fill="#FFF" d="M184.863 107.892c.145.022.29-.04.375-.161l5.708-8.195.857-1.211 1.112-1.588v-.794a1.483 1.483 0 0 0-.576-1.197 1.041 1.041 0 0 0-1.166-.121l-14.738 8.329a3.274 3.274 0 0 0-1.554 2.92v10.684c-.007.472.206.92.576 1.211.172.13.376.21.59.23.2.01.398-.031.576-.122l14.738-8.316a3.3 3.3 0 0 0 1.554-2.933V99.63c-.33.523-.703 1.018-1.112 1.48v5.383a2.088 2.088 0 0 1-.991 1.87l-14.846 8.263v-9.985l8.897 1.251zm-7.905-3.794l14.818-8.303v.377l-7.047 10.052a.361.361 0 0 1-.362.161l-8.347-1.05c.134-.522.472-.968.938-1.237z" style="mix-blend-mode:soft-light"/>
        <path fill="url(#P)" d="M141.055 47a5.751 5.751 0 0 1-4.382-2.003 5.714 5.714 0 0 1-1.309-4.625L139.181 13h3.75l3.815 27.372a5.714 5.714 0 0 1-1.309 4.625A5.751 5.751 0 0 1 141.055 47z"/>
        <ellipse cx="141.306" cy="12.5" fill="url(#Q)" rx="6.514" ry="6.5"/>
        <path fill="url(#R)" d="M132.045 183.676c.142.24.398.306.88.32.69.05 1.338-.32 1.605-.918.554-1.197-.128-2.54-.184-3.764.105-1.42.338-2.831.695-4.216a31.161 31.161 0 0 0-.213-9.31 6.334 6.334 0 0 0-.653-2.114c-.653-1.13-2.073-1.675-2.996-.572-.668.785-.298 2.181-.256 3.139.227 3.724.445 7.452.653 11.185.114 1.822.213 3.657.313 5.479.007.263.06.524.156.771z"/>
        <path fill="url(#S)" d="M127.479 184.194a.364.364 0 0 0-.204.329c0 .141.08.27.204.329l6.5 1.088c.393.105.81.072 1.183-.094.364-.202-.143-2.686-.156-3.21a2 2 0 0 0-.234-1.048c-.364-.55-5.161 1.612-7.293 2.606z"/>
        <path fill="url(#T)" d="M128.146 185.175c.137.24.385.306.852.32a1.544 1.544 0 0 0 1.552-.918c.535-1.197-.124-2.54-.179-3.765.104-1.42.325-2.83.66-4.217.393-3.097.328-6.232-.193-9.311a6.493 6.493 0 0 0-.632-2.115c-.632-1.131-2.005-1.663-2.898-.572-.645.785-1.085 1.064-1.03 2.022.206 3.724 1.209 8.58 1.373 12.304.11 1.823.206 3.658.303 5.48.02.267.085.527.192.772z"/>
        <path fill="url(#U)" d="M124.269 156c0 .238.093 11.179.347 11.298.253.12 6.67 5.484 12.18-.98L136.29 156h-12.02z"/>
        <path fill="url(#V)" d="M131.356 133.37l-2.874 2.079a3.116 3.116 0 0 1-1.943.792c-.875 0-2.264-2.845-3.083-3.741-.583.74-1.61 1.689-2.194 2.43.345 1.367.901 2.68 1.653 3.897.76 1.176 2.044 1.972 3.499 2.17 1.302.05 2.566-.422 3.47-1.3 1.809-1.639 2.389-4.133 1.472-6.327z"/>
        <path fill="#85C6F1" d="M134.682 131.57c.108.22.138.47.083.71-.111.341-.5.45-.832.505-.615.098-1.235.162-1.857.19a1.711 1.711 0 0 1-1.29-.3 2.014 2.014 0 0 1-.485-1.501 4.717 4.717 0 0 1 .582-2.73c.458-.669 1.72-1.365 2.454-.628.314.456.527.972.624 1.515l.72 2.239z"/>
        <path fill="url(#W)" d="M136.002 132.449c.48.21.79.685.794 1.21 0 2.568-.569 14.913-.251 20.9.383 7.183-10.33 3.645-12.58 3.02-2.248-.626 1.562-18.093 2.54-23.161.82-4.217 7.566-2.887 9.497-1.97z"/>
        <path fill="#85C6F1" d="M125.272 124.48a4.77 4.77 0 0 1 2.108-3.199 4.855 4.855 0 0 1 3.802-.64c2.822.473 4.815 3 4.595 5.828-.36 2.674-2.892 2.88-5.093 4.511-.582.425-2.769.919-3.627 0a12.363 12.363 0 0 1-1.785-6.5z"/>
        <path fill="url(#X)" d="M129.801 127.581a1.18 1.18 0 0 1-.333-.653c0-.695 1-.9 1.2-1.54a.985.985 0 0 0-.587-1.103 1.308 1.308 0 0 0-1.332.163c-.346.273-.453 2.057-.52 2.493-1.558-1.362-.439-2.22-.612-2.643-.866-.217-2.398.082-2.344-.899a6.165 6.165 0 0 1 1.505-3.337c2.664-2.261 5.62-.3 7.06.3a4.035 4.035 0 0 1 2.48 2.383 4.17 4.17 0 0 1-.216 3.474c-.227.477-.92 1.362-.88 1.88.04.518 1.146 1.022 1.466 1.362.565.536 1.07 1.134 1.505 1.785a6.241 6.241 0 0 1 1.092 2.929 3.169 3.169 0 0 1-1.079 2.724 3.385 3.385 0 0 1-3.29.313 4.649 4.649 0 0 1-2.424-2.479 9.206 9.206 0 0 1-.506-3.555c0-.654.226-1.785-.28-2.193-.506-.41-1.372-.709-1.905-1.404z"/>
        <path fill="url(#Y)" d="M125.728 138.582c-.166 1.966-1.084 4.75-1.459 7.418a15.345 15.345 0 0 0 4.17-1.545c1.473-.728 1.724-3.358 2.14-4.699a2.526 2.526 0 0 0-.208-2.375c-.528-.65-1.042-.293-1.932-.191a4.71 4.71 0 0 0-2.266 1.034c-.153.115-.306.23-.445.358z"/>
        <path fill="url(#Z)" d="M124.269 137.112l-6.586 3.388-5.44-10.058v-.567l6.586-3.375 5.44 10.045z"/>
        <path fill="url(#aa)" d="M124.269 136.602l-6.58 3.398-5.446-10.102 6.58-3.398z"/>
        <path fill="url(#ab)" d="M123.267 136.23l-5.488 2.77-4.534-8.243 5.488-2.757z"/>
        <path fill="url(#ac)" d="M112.226 131.362c0-.13 0-.303-.226-.346-.225-.043-.3 0-.39.14a2.855 2.855 0 0 0-.797 1.137.909.909 0 0 0 0 .627c.059.224.258.416.54.52.207.08.456.08.662 0 .27-.13.196-.368.196-.574l.015-1.504z"/>
        <path fill="url(#ad)" d="M113.746 133.737a16.973 16.973 0 0 1-1.858-2.3c-.611-1.435-1.996-2.505-3.69-2.851-2.51-.613.682 2.213.54 3.45-.142 1.238 3.291 3.464 3.291 3.464l1.717-1.763z"/>
        <path fill="url(#ae)" d="M126.239 134.481l-4.803 5.56-8.288-6.541-2.408 2.773 9.22 7.848a3.359 3.359 0 0 0 2.39.877 3.35 3.35 0 0 0 2.319-1.047l5.321-6.318c.657-.507.94-1.353.719-2.145a2.561 2.561 0 0 0-1.923-1.841 2.607 2.607 0 0 0-2.547.834z"/>
        <path fill="url(#af)" d="M122.023 132c-.441.02-.853.273-1.13.694a.616.616 0 0 0-.103.57c.118.177.32.229.487.125.17-.083.316-.25.486-.333a.545.545 0 0 1 .509 0c.14.126.266.275.373.444l.622-.917a4.86 4.86 0 0 0-1.244-.583z"/>
        <path fill="url(#ag)" d="M122.436 186.686a.381.381 0 0 0-.17.357.375.375 0 0 0 .234.316l6.473 1.076c.39.109.805.08 1.178-.081.363-.215-.142-2.69-.155-3.214a2.04 2.04 0 0 0-.233-1.063c-.44-.51-5.204 1.641-7.327 2.61z"/>
    </g>
</svg>
