<svg xmlns="http://www.w3.org/2000/svg" width="24" height="24" viewBox="0 0 24 24">
    <path fill="#DADFE2" fill-rule="evenodd" d="M0 12C0 5.373 5.373 0 12 0s12 5.373 12 12-5.373 12-12 12S0 18.627 0 12zm10.07-3.232L6.228 6.87a.21.21 0 0 0-.092-.024.125.125 0 0 0-.099.045A.182.182 0 0 0 6 7.01v8.149c0 .139.103.303.228.365l3.55 1.754c.05.024.097.036.14.036.12 0 .203-.092.203-.245v-8.22a.09.09 0 0 0-.05-.08zm4.5 6.803l3.45 1.704c.189.093.343 0 .343-.209V9.481l-3.793 6.09zm-4.085-6.193v4.177l3.757 1.856-3.757-6.033zm7.787-.63l-3.916-1.934A.135.135 0 0 0 14.3 6.8h-.004a.143.143 0 0 0-.12.065L11.76 10.74l2.695 4.327 3.854-6.189a.091.091 0 0 0-.038-.13z"/>
</svg>
