<svg xmlns="http://www.w3.org/2000/svg" width="84" height="128" viewBox="0 0 84 128">
    <path fill="#D4EAFF" fill-rule="evenodd" d="M9.356 77.02l-1.09 16.313c1.6 0 2.308-.731 3.2-1.6l7.688-7.475 15.993 11.816c2.943 1.624 5.067.783 5.8-2.732l10.499-49.474c1.075-4.31-1.643-6.264-4.458-4.986L-14.66 62.653c-4.209 1.688-4.184 4.036-.768 5.082l15.82 4.938 36.626-23.107c1.73-1.048 3.316-.485 2.014.671L9.355 77.02zM20 128c-35.346 0-64-28.654-64-64 0-35.346 28.654-64 64-64 35.346 0 64 28.654 64 64 0 35.346-28.654 64-64 64z"/>
</svg>
