<svg xmlns="http://www.w3.org/2000/svg" width="24" height="24" viewBox="0 0 24 24">
    <defs>
        <linearGradient id="a" x1="48.127%" x2="46.621%" y1="4.683%" y2="121.693%">
            <stop offset="0%" stop-color="#CDDEEF"/>
            <stop offset="100%" stop-color="#DCECF8"/>
        </linearGradient>
    </defs>
    <g fill="none" fill-rule="evenodd">
        <path fill="#FFF" d="M-280-24H40v4646h-320z"/>
        <path fill="url(#a)" d="M-15-1h335v681L74.72 616.98C31.519 605.88.892 567.508-.354 522.92L-15-1z" transform="translate(-280 -24)"/>
        <path fill="#000" d="M3 18c0-.552.445-1 1-1h16c.552 0 1 .444 1 1 0 .552-.445 1-1 1H4c-.552 0-1-.444-1-1zM3 6c0-.552.445-1 1-1h16c.552 0 1 .444 1 1 0 .552-.445 1-1 1H4c-.552 0-1-.444-1-1zm0 6c0-.552.445-1 1-1h16c.552 0 1 .444 1 1 0 .552-.445 1-1 1H4c-.552 0-1-.444-1-1z"/>
    </g>
</svg>
